<svg width="377" height="76" viewBox="0 0 377 76" fill="none" xmlns="http://www.w3.org/2000/svg">
<path d="M373.255 17.5234L318.458 0.68805C315.472 -0.22935 312.251 -0.22935 309.267 0.68805L254.468 17.5234C249.844 18.9437 249.844 25.059 254.468 26.4793L264.021 29.4142C261.925 32.0054 260.637 35.1662 260.509 38.6275C258.617 39.7119 257.285 41.6685 257.285 44.0042C257.285 46.1219 258.401 47.9037 260.008 49.0431L254.993 71.6107C254.557 73.5732 256.05 75.4355 258.059 75.4355H269.082C271.093 75.4355 272.586 73.5732 272.15 71.6107L267.135 49.0431C268.742 47.9037 269.858 46.1219 269.858 44.0042C269.858 41.7314 268.587 39.8298 266.781 38.7257C266.931 35.7751 268.439 33.1663 270.846 31.5123L309.265 43.3167C311.044 43.8628 314.459 44.5445 318.456 43.3167L373.255 26.4813C377.881 25.0591 377.881 18.9457 373.255 17.5234ZM320.303 49.3259C314.698 51.0468 309.923 50.096 307.418 49.3259L278.93 40.5743L276.144 62.863C276.144 69.8073 293.03 75.4355 313.862 75.4355C334.693 75.4355 351.579 69.8073 351.579 62.863L348.793 40.5723L320.303 49.3259Z" fill="#5D67C5"/>
<path d="M14.88 56.92C14.32 57.08 13.7867 57.16 13.28 57.16C12.7733 57.1867 12.2533 57.2133 11.72 57.24C11.2133 57.2667 10.5067 57.28 9.6 57.28C8.69333 57.28 7.33333 57.2533 5.52 57.2C5.09333 57.2267 4.66667 57.24 4.24 57.24C3.81333 57.24 3.41333 57.16 3.04 57C2.21333 56.6533 1.65333 55.8533 1.36 54.6C1.22667 54.0133 1.08 53.6 0.92 53.36C0.733333 53.12 0.586667 52.8933 0.48 52.68C0.213333 52.2533 0.24 51.5467 0.56 50.56C0.853333 49.5733 1.24 48.36 1.72 46.92C2.2 45.4533 2.74667 43.9067 3.36 42.28C4.8 38.4133 6.09333 35.3467 7.24 33.08C7.69333 32.0667 8.08 31.1867 8.4 30.44C8.74667 29.6933 9.05333 29.0533 9.32 28.52C9.58667 27.96 9.72 27.6667 9.72 27.64C9.98667 26.6267 11.0133 25.7733 12.8 25.08C14.5333 24.36 16.1067 24.1733 17.52 24.52C19.0933 24.92 19.7867 25.96 19.6 27.64C19.2267 29.2933 18.6667 30.9467 17.92 32.6C17.2 34.2533 16.3733 35.9867 15.44 37.8C14.5067 39.6133 13.4933 41.5333 12.4 43.56C11.3067 45.5867 10.2267 47.7867 9.16 50.16C9.13333 50.2667 9.18667 50.36 9.32 50.44C9.66667 50.4133 10.1467 50.3067 10.76 50.12C11.4 49.9333 12.0533 49.7733 12.72 49.64C13.4133 49.48 14.0933 49.4 14.76 49.4C15.4267 49.4 15.9867 49.5733 16.44 49.92C16.4133 50.4 16.5333 50.7867 16.8 51.08C17.0667 51.3467 17.3333 51.6133 17.6 51.88C18.2667 52.5733 18.32 53.4933 17.76 54.64C17.2267 55.76 16.2667 56.52 14.88 56.92ZM24.9519 37.68C25.2985 36.8 26.1252 36.2 27.4319 35.88C28.6585 35.56 29.8052 35.6 30.8719 36C31.9652 36.4267 32.4585 37.12 32.3519 38.08C32.0585 39.0133 31.6852 40.16 31.2319 41.52C30.8052 42.8533 30.3919 44.2267 29.9919 45.64C28.9252 49.2667 28.3119 51.8267 28.1519 53.32C27.7519 55.72 27.0852 57.0133 26.1519 57.2C25.8852 57.2533 25.6319 57.2933 25.3919 57.32C24.8052 57.3467 24.4319 57.5067 24.2719 57.8C24.1119 58.0933 23.8452 58.3067 23.4719 58.44C23.0985 58.6 22.6852 58.6667 22.2319 58.64C21.8052 58.64 21.3652 58.5333 20.9119 58.32C20.4585 58.1333 20.0719 57.8533 19.7519 57.48C19.0052 56.5733 18.8585 55.36 19.3119 53.84C19.7385 50.9333 20.8185 47.24 22.5519 42.76C23.3785 40.5467 24.1785 38.8533 24.9519 37.68ZM32.5119 31.68C31.2052 31.9467 30.1385 31.8667 29.3119 31.44C28.5119 31.0133 28.0452 30.5067 27.9119 29.92C27.7785 29.3067 27.9652 28.68 28.4719 28.04C29.0585 27.24 29.9385 26.72 31.1119 26.48C31.6452 26.4267 32.0319 26.4 32.2719 26.4C32.5119 26.4 32.8052 26.4533 33.1519 26.56C34.0319 26.64 34.6052 27.0267 34.8719 27.72C35.2452 28.3067 35.2719 28.9733 34.9519 29.72C34.6585 30.4667 33.8452 31.12 32.5119 31.68ZM39.2034 37.68C40.9901 36.96 42.1901 36.9467 42.8034 37.64C43.1234 38.0133 43.2834 38.5333 43.2834 39.2V39.4C44.2701 38.2533 45.9901 37.2933 48.4434 36.52C51.0301 35.72 53.1634 35.4933 54.8434 35.84C57.0301 36.2933 58.2568 37.72 58.5234 40.12C58.7368 42.1467 58.2701 44.72 57.1234 47.84C56.7501 48.64 56.4568 49.2933 56.2434 49.8C56.0568 50.28 55.8834 50.72 55.7234 51.12C55.3768 51.8667 54.8301 52.76 54.0834 53.8C53.6568 54.6 52.9901 55.2133 52.0834 55.64C51.2034 56.0667 50.3234 56.3067 49.4434 56.36C48.5901 56.44 47.8834 56.3067 47.3234 55.96C46.7634 55.64 46.6034 55.12 46.8434 54.4C47.4568 52.7467 47.9634 51.24 48.3634 49.88C48.7634 48.52 49.1768 47.36 49.6034 46.4C50.0034 45.04 50.0568 44.1867 49.7634 43.84C49.5234 43.5733 49.1101 43.6133 48.5234 43.96C48.0168 44.28 47.6568 44.6533 47.4434 45.08C46.9634 45.4267 46.0568 46.8133 44.7234 49.24C44.3501 49.9067 43.9768 50.5733 43.6034 51.24C43.2568 51.88 42.9234 52.48 42.6034 53.04C42.3101 53.6 42.0434 54.0667 41.8034 54.44C41.5901 54.8133 41.3901 55.0533 41.2034 55.16C41.0434 55.2933 40.8968 55.3733 40.7634 55.4C40.6568 55.4533 40.5634 55.5067 40.4834 55.56C40.4034 55.6133 40.3368 55.7867 40.2834 56.08C40.1768 56.6933 39.5368 57.1467 38.3634 57.44C36.4701 57.92 34.7634 57.84 33.2434 57.2C32.7368 56.9867 32.3368 56.6933 32.0434 56.32C31.4301 55.0933 32.4834 50.92 35.2034 43.8C36.1634 41.2933 36.7901 39.8 37.0834 39.32C37.7501 38.3067 38.1768 37.7333 38.3634 37.6C38.5768 37.4667 38.8568 37.4933 39.2034 37.68ZM75.4172 39.04C75.8705 38.2133 76.4705 37.8 77.2172 37.8C78.3639 38.44 79.0839 39.48 79.3772 40.92C79.6705 42.36 79.3505 43.6533 78.4172 44.8C78.3905 44.8267 78.4039 45.0533 78.4572 45.48C78.9372 48.1467 78.7639 50.92 77.9372 53.8C77.6439 54.76 77.2972 55.6533 76.8972 56.48C76.5239 57.3067 76.0439 58.3467 75.4572 59.6C74.8972 60.8533 74.0972 62.0933 73.0572 63.32C72.0172 64.5467 70.8439 65.52 69.5372 66.24C66.7905 67.7867 63.7239 68.12 60.3372 67.24C59.1105 66.76 58.2572 66.2 57.7772 65.56C57.1639 64.7867 56.9505 63.96 57.1372 63.08C57.3239 61.9867 57.9639 61.3867 59.0572 61.28C59.5905 61.2267 60.2572 61.4267 61.0572 61.88C61.9639 62.0667 62.6972 62.0533 63.2572 61.84C63.8172 61.6267 64.2572 61.4267 64.5772 61.24C64.9239 61.08 65.3505 60.8667 65.8572 60.6C66.7372 60.1467 67.7372 59.1067 68.8572 57.48C69.4705 56.6267 70.0839 55.48 70.6972 54.04C69.7105 55.2933 68.1372 55.9067 65.9772 55.88C65.3639 55.8533 64.6705 55.8267 63.8972 55.8C63.1505 55.7733 62.4705 55.52 61.8572 55.04C61.2439 54.56 60.7505 53.9333 60.3772 53.16C60.0039 52.3867 59.7505 51.5067 59.6172 50.52C59.5105 49.5067 59.5105 48.48 59.6172 47.44C60.0439 43.8133 61.5639 40.9467 64.1772 38.84C65.9639 37.3733 67.8839 36.5867 69.9372 36.48C70.9239 36.4267 71.8572 36.5333 72.7372 36.8C73.8039 37.2 74.6972 37.9467 75.4172 39.04ZM70.5372 48.12C70.5372 48.04 70.5505 47.9733 70.5772 47.92C70.4439 47.8667 70.3105 47.8267 70.1772 47.8C70.0439 47.7467 69.8039 47.6667 69.4572 47.56C69.1105 47.4533 68.6439 47.52 68.0572 47.76C67.4705 47.9733 66.9505 48.28 66.4972 48.68C66.0705 49.0533 65.7239 49.4533 65.4572 49.88C65.2172 50.3067 65.1772 50.6667 65.3372 50.96C65.5239 51.2533 65.8439 51.3733 66.2972 51.32C66.7505 51.24 67.2439 51.04 67.7772 50.72C68.9505 50 69.8705 49.1333 70.5372 48.12ZM85.8969 37.92C86.4569 37.52 87.1502 37.4267 87.9769 37.64C88.1369 37.6667 88.2969 37.68 88.4569 37.68C89.0435 36.48 90.0569 35.8533 91.4969 35.8C91.8702 35.7733 92.3902 35.7067 93.0569 35.6C93.7235 35.4933 94.5235 35.52 95.4569 35.68C96.4169 35.84 97.2569 36.12 97.9769 36.52C99.5502 37.3733 100.497 38.6 100.817 40.2C101.457 42.5467 101.364 45.1067 100.537 47.88C99.6569 50.9467 98.1635 53.4 96.0569 55.24C95.0969 56.0933 94.0835 56.6267 93.0169 56.84C91.9502 57.08 90.9902 57.2133 90.1369 57.24C89.2835 57.2667 88.4969 57.2667 87.7769 57.24C87.0835 57.24 86.4035 57.1733 85.7369 57.04C84.2969 56.7467 83.1102 56.0667 82.1769 55C81.0835 53.8 80.6169 51.9333 80.7769 49.4C80.8835 47.16 81.4435 44.9067 82.4569 42.64C83.4969 40.3467 84.6435 38.7733 85.8969 37.92ZM92.9369 45.96C92.2702 46.1733 91.6435 46.2667 91.0569 46.24C90.7635 46.5333 90.4969 46.8533 90.2569 47.2C90.0435 47.52 89.7502 47.8267 89.3769 48.12C89.0035 48.3867 88.8169 48.4933 88.8169 48.44C88.3635 49.08 87.9902 49.7467 87.6969 50.44C87.4035 51.1067 87.4035 51.7867 87.6969 52.48C88.7635 52.5867 89.5502 52.56 90.0569 52.4C90.5635 52.24 91.0302 51.9333 91.4569 51.48C91.9102 51.0267 92.2569 50.4933 92.4969 49.88C92.9769 48.7333 93.1235 47.4267 92.9369 45.96ZM127.614 56.92C127.054 57.08 126.521 57.16 126.014 57.16C125.508 57.1867 124.988 57.2133 124.454 57.24C123.948 57.2667 123.241 57.28 122.334 57.28C121.428 57.28 120.068 57.2533 118.254 57.2C117.828 57.2267 117.401 57.24 116.974 57.24C116.548 57.24 116.148 57.16 115.774 57C114.948 56.6533 114.388 55.8533 114.094 54.6C113.961 54.0133 113.814 53.6 113.654 53.36C113.468 53.12 113.321 52.8933 113.214 52.68C112.948 52.2533 112.974 51.5467 113.294 50.56C113.588 49.5733 113.974 48.36 114.454 46.92C114.934 45.4533 115.481 43.9067 116.094 42.28C117.534 38.4133 118.828 35.3467 119.974 33.08C120.428 32.0667 120.814 31.1867 121.134 30.44C121.481 29.6933 121.788 29.0533 122.054 28.52C122.321 27.96 122.454 27.6667 122.454 27.64C122.721 26.6267 123.748 25.7733 125.534 25.08C127.268 24.36 128.841 24.1733 130.254 24.52C131.828 24.92 132.521 25.96 132.334 27.64C131.961 29.2933 131.401 30.9467 130.654 32.6C129.934 34.2533 129.108 35.9867 128.174 37.8C127.241 39.6133 126.228 41.5333 125.134 43.56C124.041 45.5867 122.961 47.7867 121.894 50.16C121.868 50.2667 121.921 50.36 122.054 50.44C122.401 50.4133 122.881 50.3067 123.494 50.12C124.134 49.9333 124.788 49.7733 125.454 49.64C126.148 49.48 126.828 49.4 127.494 49.4C128.161 49.4 128.721 49.5733 129.174 49.92C129.148 50.4 129.268 50.7867 129.534 51.08C129.801 51.3467 130.068 51.6133 130.334 51.88C131.001 52.5733 131.054 53.4933 130.494 54.64C129.961 55.76 129.001 56.52 127.614 56.92ZM146.366 49.08C145.86 49.32 145.366 49.5067 144.886 49.64C144.406 49.7733 143.846 49.9067 143.206 50.04C141.526 50.3867 140.313 50.5867 139.566 50.64C139.646 50.9067 140.046 51.2267 140.766 51.6C141.246 51.68 141.766 51.6133 142.326 51.4C142.913 51.16 143.513 50.9467 144.126 50.76C144.766 50.5467 145.38 50.4267 145.966 50.4C146.58 50.3733 147.153 50.6 147.686 51.08C147.9 51.56 148.073 51.84 148.206 51.92C148.34 52 148.46 52.04 148.566 52.04C148.673 52.04 148.793 52.08 148.926 52.16C149.06 52.24 149.246 52.5467 149.486 53.08C149.753 53.6133 149.686 54.12 149.286 54.6C148.913 55.08 148.326 55.4933 147.526 55.84C146.726 56.1867 145.793 56.4667 144.726 56.68C143.66 56.8933 142.593 57.04 141.526 57.12C139.126 57.3067 137.3 57.12 136.046 56.56C134.233 55.9467 133.06 54.7333 132.526 52.92C131.833 50.52 132.22 47.72 133.686 44.52C134.353 43.0267 135.406 41.4267 136.846 39.72C138.1 38.2267 139.5 37.1467 141.046 36.48C142.833 35.7067 144.7 35.3467 146.646 35.4C148.726 35.4533 150.166 36.36 150.966 38.12C151.366 39.0533 151.446 40.36 151.206 42.04C150.78 44.2267 150.22 45.7733 149.526 46.68C148.833 47.56 147.78 48.36 146.366 49.08ZM144.046 42.76C142.633 42.4667 141.526 43.2667 140.726 45.16C140.486 45.6667 140.3 46.2 140.166 46.76C141.073 46.8667 142.033 46.36 143.046 45.24C143.42 44.7867 143.7 44.3333 143.886 43.88C144.073 43.4 144.126 43.0267 144.046 42.76ZM170.023 37.84L170.183 37.88C170.236 37.88 170.263 37.8933 170.263 37.92C170.956 37.6533 171.53 37.8533 171.983 38.52C172.276 38.9733 172.503 39.6667 172.663 40.6C172.716 41.88 172.583 43.6533 172.263 45.92C171.65 50.5067 171.316 53.24 171.263 54.12C171.316 55.0533 170.743 55.6933 169.543 56.04C168.503 56.36 167.463 56.3467 166.423 56C165.33 55.6267 164.876 55.0533 165.063 54.28C164.85 54.68 164.636 54.96 164.423 55.12C164.21 55.3067 163.783 55.5467 163.143 55.84C162.53 56.16 161.65 56.4133 160.503 56.6C159.356 56.8133 158.21 56.8667 157.063 56.76C155.916 56.68 154.863 56.4 153.903 55.92C152.97 55.4667 152.343 54.7467 152.023 53.76C151.41 51.84 151.49 49.4 152.263 46.44C152.796 44.4933 153.756 42.7733 155.143 41.28C156.743 39.5733 158.556 38.16 160.583 37.04C162.103 36.2133 163.57 35.72 164.983 35.56C165.463 35.5067 165.876 35.52 166.223 35.6C166.596 35.68 166.983 35.76 167.383 35.84C167.81 35.92 168.21 36.04 168.583 36.2C169.543 36.6 170.023 37.1467 170.023 37.84ZM162.623 48.44C162.81 48.0667 162.956 47.6 163.063 47.04C163.196 46.48 163.37 45.8667 163.583 45.2C161.423 46.08 159.77 47.16 158.623 48.44C157.37 49.8533 157.45 50.8267 158.863 51.36C160.09 51.68 160.983 51.48 161.543 50.76C161.783 50.44 161.996 50.04 162.183 49.56C162.37 49.08 162.596 48.5867 162.863 48.08C162.783 48.2133 162.703 48.3333 162.623 48.44ZM177.308 38.44C177.682 37.48 178.202 36.76 178.868 36.28C179.562 35.7733 180.215 35.4667 180.828 35.36C181.468 35.2267 181.988 35.2933 182.388 35.56C182.815 35.8267 182.962 36.24 182.828 36.8C183.335 36.2933 184.068 35.8267 185.028 35.4C185.988 34.9733 186.748 34.68 187.308 34.52C187.868 34.36 188.348 34.28 188.748 34.28C189.628 34.3333 189.882 34.8133 189.508 35.72C189.962 35.8 190.295 36.0933 190.508 36.6C190.722 37.1067 190.748 37.6667 190.588 38.28C190.428 38.8933 190.068 39.4933 189.508 40.08C188.948 40.6667 188.188 41.0667 187.228 41.28C186.295 41.4933 185.508 41.9867 184.868 42.76C184.255 43.5067 183.708 44.44 183.228 45.56C182.428 47.4533 181.708 50.1333 181.068 53.6C180.855 54.8533 179.988 55.9067 178.468 56.76C177.028 57.5867 175.708 57.8267 174.508 57.48C173.148 57.1067 172.548 56.1067 172.708 54.48C172.762 53.3333 173.108 51.8133 173.748 49.92C174.388 48 174.882 46.56 175.228 45.6C175.575 44.6133 175.815 43.8667 175.948 43.36L177.308 38.44ZM195.727 37.68C197.514 36.96 198.714 36.9467 199.327 37.64C199.647 38.0133 199.807 38.5333 199.807 39.2V39.4C200.794 38.2533 202.514 37.2933 204.967 36.52C207.554 35.72 209.687 35.4933 211.367 35.84C213.554 36.2933 214.78 37.72 215.047 40.12C215.26 42.1467 214.794 44.72 213.647 47.84C213.274 48.64 212.98 49.2933 212.767 49.8C212.58 50.28 212.407 50.72 212.247 51.12C211.9 51.8667 211.354 52.76 210.607 53.8C210.18 54.6 209.514 55.2133 208.607 55.64C207.727 56.0667 206.847 56.3067 205.967 56.36C205.114 56.44 204.407 56.3067 203.847 55.96C203.287 55.64 203.127 55.12 203.367 54.4C203.98 52.7467 204.487 51.24 204.887 49.88C205.287 48.52 205.7 47.36 206.127 46.4C206.527 45.04 206.58 44.1867 206.287 43.84C206.047 43.5733 205.634 43.6133 205.047 43.96C204.54 44.28 204.18 44.6533 203.967 45.08C203.487 45.4267 202.58 46.8133 201.247 49.24C200.874 49.9067 200.5 50.5733 200.127 51.24C199.78 51.88 199.447 52.48 199.127 53.04C198.834 53.6 198.567 54.0667 198.327 54.44C198.114 54.8133 197.914 55.0533 197.727 55.16C197.567 55.2933 197.42 55.3733 197.287 55.4C197.18 55.4533 197.087 55.5067 197.007 55.56C196.927 55.6133 196.86 55.7867 196.807 56.08C196.7 56.6933 196.06 57.1467 194.887 57.44C192.994 57.92 191.287 57.84 189.767 57.2C189.26 56.9867 188.86 56.6933 188.567 56.32C187.954 55.0933 189.007 50.92 191.727 43.8C192.687 41.2933 193.314 39.8 193.607 39.32C194.274 38.3067 194.7 37.7333 194.887 37.6C195.1 37.4667 195.38 37.4933 195.727 37.68Z" fill="#0B0D1D"/>
<path d="M373.255 17.5234L318.458 0.68805C315.472 -0.22935 312.251 -0.22935 309.267 0.68805L254.468 17.5234C249.844 18.9437 249.844 25.059 254.468 26.4793L264.021 29.4142C261.925 32.0054 260.637 35.1662 260.509 38.6275C258.617 39.7119 257.285 41.6685 257.285 44.0042C257.285 46.1219 258.401 47.9037 260.008 49.0431L254.993 71.6107C254.557 73.5732 256.05 75.4355 258.059 75.4355H269.082C271.093 75.4355 272.586 73.5732 272.15 71.6107L267.135 49.0431C268.742 47.9037 269.858 46.1219 269.858 44.0042C269.858 41.7314 268.587 39.8298 266.781 38.7257C266.931 35.7751 268.439 33.1663 270.846 31.5123L309.265 43.3167C311.044 43.8628 314.459 44.5445 318.456 43.3167L373.255 26.4813C377.881 25.0591 377.881 18.9457 373.255 17.5234ZM320.303 49.3259C314.698 51.0468 309.923 50.096 307.418 49.3259L278.93 40.5743L276.144 62.863C276.144 69.8073 293.03 75.4355 313.862 75.4355C334.693 75.4355 351.579 69.8073 351.579 62.863L348.793 40.5723L320.303 49.3259Z" fill="#5D67C5"/>
<path d="M14.88 56.92C14.32 57.08 13.7867 57.16 13.28 57.16C12.7733 57.1867 12.2533 57.2133 11.72 57.24C11.2133 57.2667 10.5067 57.28 9.6 57.28C8.69333 57.28 7.33333 57.2533 5.52 57.2C5.09333 57.2267 4.66667 57.24 4.24 57.24C3.81333 57.24 3.41333 57.16 3.04 57C2.21333 56.6533 1.65333 55.8533 1.36 54.6C1.22667 54.0133 1.08 53.6 0.92 53.36C0.733333 53.12 0.586667 52.8933 0.48 52.68C0.213333 52.2533 0.24 51.5467 0.56 50.56C0.853333 49.5733 1.24 48.36 1.72 46.92C2.2 45.4533 2.74667 43.9067 3.36 42.28C4.8 38.4133 6.09333 35.3467 7.24 33.08C7.69333 32.0667 8.08 31.1867 8.4 30.44C8.74667 29.6933 9.05333 29.0533 9.32 28.52C9.58667 27.96 9.72 27.6667 9.72 27.64C9.98667 26.6267 11.0133 25.7733 12.8 25.08C14.5333 24.36 16.1067 24.1733 17.52 24.52C19.0933 24.92 19.7867 25.96 19.6 27.64C19.2267 29.2933 18.6667 30.9467 17.92 32.6C17.2 34.2533 16.3733 35.9867 15.44 37.8C14.5067 39.6133 13.4933 41.5333 12.4 43.56C11.3067 45.5867 10.2267 47.7867 9.16 50.16C9.13333 50.2667 9.18667 50.36 9.32 50.44C9.66667 50.4133 10.1467 50.3067 10.76 50.12C11.4 49.9333 12.0533 49.7733 12.72 49.64C13.4133 49.48 14.0933 49.4 14.76 49.4C15.4267 49.4 15.9867 49.5733 16.44 49.92C16.4133 50.4 16.5333 50.7867 16.8 51.08C17.0667 51.3467 17.3333 51.6133 17.6 51.88C18.2667 52.5733 18.32 53.4933 17.76 54.64C17.2267 55.76 16.2667 56.52 14.88 56.92ZM24.9519 37.68C25.2985 36.8 26.1252 36.2 27.4319 35.88C28.6585 35.56 29.8052 35.6 30.8719 36C31.9652 36.4267 32.4585 37.12 32.3519 38.08C32.0585 39.0133 31.6852 40.16 31.2319 41.52C30.8052 42.8533 30.3919 44.2267 29.9919 45.64C28.9252 49.2667 28.3119 51.8267 28.1519 53.32C27.7519 55.72 27.0852 57.0133 26.1519 57.2C25.8852 57.2533 25.6319 57.2933 25.3919 57.32C24.8052 57.3467 24.4319 57.5067 24.2719 57.8C24.1119 58.0933 23.8452 58.3067 23.4719 58.44C23.0985 58.6 22.6852 58.6667 22.2319 58.64C21.8052 58.64 21.3652 58.5333 20.9119 58.32C20.4585 58.1333 20.0719 57.8533 19.7519 57.48C19.0052 56.5733 18.8585 55.36 19.3119 53.84C19.7385 50.9333 20.8185 47.24 22.5519 42.76C23.3785 40.5467 24.1785 38.8533 24.9519 37.68ZM32.5119 31.68C31.2052 31.9467 30.1385 31.8667 29.3119 31.44C28.5119 31.0133 28.0452 30.5067 27.9119 29.92C27.7785 29.3067 27.9652 28.68 28.4719 28.04C29.0585 27.24 29.9385 26.72 31.1119 26.48C31.6452 26.4267 32.0319 26.4 32.2719 26.4C32.5119 26.4 32.8052 26.4533 33.1519 26.56C34.0319 26.64 34.6052 27.0267 34.8719 27.72C35.2452 28.3067 35.2719 28.9733 34.9519 29.72C34.6585 30.4667 33.8452 31.12 32.5119 31.68ZM39.2034 37.68C40.9901 36.96 42.1901 36.9467 42.8034 37.64C43.1234 38.0133 43.2834 38.5333 43.2834 39.2V39.4C44.2701 38.2533 45.9901 37.2933 48.4434 36.52C51.0301 35.72 53.1634 35.4933 54.8434 35.84C57.0301 36.2933 58.2568 37.72 58.5234 40.12C58.7368 42.1467 58.2701 44.72 57.1234 47.84C56.7501 48.64 56.4568 49.2933 56.2434 49.8C56.0568 50.28 55.8834 50.72 55.7234 51.12C55.3768 51.8667 54.8301 52.76 54.0834 53.8C53.6568 54.6 52.9901 55.2133 52.0834 55.64C51.2034 56.0667 50.3234 56.3067 49.4434 56.36C48.5901 56.44 47.8834 56.3067 47.3234 55.96C46.7634 55.64 46.6034 55.12 46.8434 54.4C47.4568 52.7467 47.9634 51.24 48.3634 49.88C48.7634 48.52 49.1768 47.36 49.6034 46.4C50.0034 45.04 50.0568 44.1867 49.7634 43.84C49.5234 43.5733 49.1101 43.6133 48.5234 43.96C48.0168 44.28 47.6568 44.6533 47.4434 45.08C46.9634 45.4267 46.0568 46.8133 44.7234 49.24C44.3501 49.9067 43.9768 50.5733 43.6034 51.24C43.2568 51.88 42.9234 52.48 42.6034 53.04C42.3101 53.6 42.0434 54.0667 41.8034 54.44C41.5901 54.8133 41.3901 55.0533 41.2034 55.16C41.0434 55.2933 40.8968 55.3733 40.7634 55.4C40.6568 55.4533 40.5634 55.5067 40.4834 55.56C40.4034 55.6133 40.3368 55.7867 40.2834 56.08C40.1768 56.6933 39.5368 57.1467 38.3634 57.44C36.4701 57.92 34.7634 57.84 33.2434 57.2C32.7368 56.9867 32.3368 56.6933 32.0434 56.32C31.4301 55.0933 32.4834 50.92 35.2034 43.8C36.1634 41.2933 36.7901 39.8 37.0834 39.32C37.7501 38.3067 38.1768 37.7333 38.3634 37.6C38.5768 37.4667 38.8568 37.4933 39.2034 37.68ZM75.4172 39.04C75.8705 38.2133 76.4705 37.8 77.2172 37.8C78.3639 38.44 79.0839 39.48 79.3772 40.92C79.6705 42.36 79.3505 43.6533 78.4172 44.8C78.3905 44.8267 78.4039 45.0533 78.4572 45.48C78.9372 48.1467 78.7639 50.92 77.9372 53.8C77.6439 54.76 77.2972 55.6533 76.8972 56.48C76.5239 57.3067 76.0439 58.3467 75.4572 59.6C74.8972 60.8533 74.0972 62.0933 73.0572 63.32C72.0172 64.5467 70.8439 65.52 69.5372 66.24C66.7905 67.7867 63.7239 68.12 60.3372 67.24C59.1105 66.76 58.2572 66.2 57.7772 65.56C57.1639 64.7867 56.9505 63.96 57.1372 63.08C57.3239 61.9867 57.9639 61.3867 59.0572 61.28C59.5905 61.2267 60.2572 61.4267 61.0572 61.88C61.9639 62.0667 62.6972 62.0533 63.2572 61.84C63.8172 61.6267 64.2572 61.4267 64.5772 61.24C64.9239 61.08 65.3505 60.8667 65.8572 60.6C66.7372 60.1467 67.7372 59.1067 68.8572 57.48C69.4705 56.6267 70.0839 55.48 70.6972 54.04C69.7105 55.2933 68.1372 55.9067 65.9772 55.88C65.3639 55.8533 64.6705 55.8267 63.8972 55.8C63.1505 55.7733 62.4705 55.52 61.8572 55.04C61.2439 54.56 60.7505 53.9333 60.3772 53.16C60.0039 52.3867 59.7505 51.5067 59.6172 50.52C59.5105 49.5067 59.5105 48.48 59.6172 47.44C60.0439 43.8133 61.5639 40.9467 64.1772 38.84C65.9639 37.3733 67.8839 36.5867 69.9372 36.48C70.9239 36.4267 71.8572 36.5333 72.7372 36.8C73.8039 37.2 74.6972 37.9467 75.4172 39.04ZM70.5372 48.12C70.5372 48.04 70.5505 47.9733 70.5772 47.92C70.4439 47.8667 70.3105 47.8267 70.1772 47.8C70.0439 47.7467 69.8039 47.6667 69.4572 47.56C69.1105 47.4533 68.6439 47.52 68.0572 47.76C67.4705 47.9733 66.9505 48.28 66.4972 48.68C66.0705 49.0533 65.7239 49.4533 65.4572 49.88C65.2172 50.3067 65.1772 50.6667 65.3372 50.96C65.5239 51.2533 65.8439 51.3733 66.2972 51.32C66.7505 51.24 67.2439 51.04 67.7772 50.72C68.9505 50 69.8705 49.1333 70.5372 48.12ZM85.8969 37.92C86.4569 37.52 87.1502 37.4267 87.9769 37.64C88.1369 37.6667 88.2969 37.68 88.4569 37.68C89.0435 36.48 90.0569 35.8533 91.4969 35.8C91.8702 35.7733 92.3902 35.7067 93.0569 35.6C93.7235 35.4933 94.5235 35.52 95.4569 35.68C96.4169 35.84 97.2569 36.12 97.9769 36.52C99.5502 37.3733 100.497 38.6 100.817 40.2C101.457 42.5467 101.364 45.1067 100.537 47.88C99.6569 50.9467 98.1635 53.4 96.0569 55.24C95.0969 56.0933 94.0835 56.6267 93.0169 56.84C91.9502 57.08 90.9902 57.2133 90.1369 57.24C89.2835 57.2667 88.4969 57.2667 87.7769 57.24C87.0835 57.24 86.4035 57.1733 85.7369 57.04C84.2969 56.7467 83.1102 56.0667 82.1769 55C81.0835 53.8 80.6169 51.9333 80.7769 49.4C80.8835 47.16 81.4435 44.9067 82.4569 42.64C83.4969 40.3467 84.6435 38.7733 85.8969 37.92ZM92.9369 45.96C92.2702 46.1733 91.6435 46.2667 91.0569 46.24C90.7635 46.5333 90.4969 46.8533 90.2569 47.2C90.0435 47.52 89.7502 47.8267 89.3769 48.12C89.0035 48.3867 88.8169 48.4933 88.8169 48.44C88.3635 49.08 87.9902 49.7467 87.6969 50.44C87.4035 51.1067 87.4035 51.7867 87.6969 52.48C88.7635 52.5867 89.5502 52.56 90.0569 52.4C90.5635 52.24 91.0302 51.9333 91.4569 51.48C91.9102 51.0267 92.2569 50.4933 92.4969 49.88C92.9769 48.7333 93.1235 47.4267 92.9369 45.96ZM127.614 56.92C127.054 57.08 126.521 57.16 126.014 57.16C125.508 57.1867 124.988 57.2133 124.454 57.24C123.948 57.2667 123.241 57.28 122.334 57.28C121.428 57.28 120.068 57.2533 118.254 57.2C117.828 57.2267 117.401 57.24 116.974 57.24C116.548 57.24 116.148 57.16 115.774 57C114.948 56.6533 114.388 55.8533 114.094 54.6C113.961 54.0133 113.814 53.6 113.654 53.36C113.468 53.12 113.321 52.8933 113.214 52.68C112.948 52.2533 112.974 51.5467 113.294 50.56C113.588 49.5733 113.974 48.36 114.454 46.92C114.934 45.4533 115.481 43.9067 116.094 42.28C117.534 38.4133 118.828 35.3467 119.974 33.08C120.428 32.0667 120.814 31.1867 121.134 30.44C121.481 29.6933 121.788 29.0533 122.054 28.52C122.321 27.96 122.454 27.6667 122.454 27.64C122.721 26.6267 123.748 25.7733 125.534 25.08C127.268 24.36 128.841 24.1733 130.254 24.52C131.828 24.92 132.521 25.96 132.334 27.64C131.961 29.2933 131.401 30.9467 130.654 32.6C129.934 34.2533 129.108 35.9867 128.174 37.8C127.241 39.6133 126.228 41.5333 125.134 43.56C124.041 45.5867 122.961 47.7867 121.894 50.16C121.868 50.2667 121.921 50.36 122.054 50.44C122.401 50.4133 122.881 50.3067 123.494 50.12C124.134 49.9333 124.788 49.7733 125.454 49.64C126.148 49.48 126.828 49.4 127.494 49.4C128.161 49.4 128.721 49.5733 129.174 49.92C129.148 50.4 129.268 50.7867 129.534 51.08C129.801 51.3467 130.068 51.6133 130.334 51.88C131.001 52.5733 131.054 53.4933 130.494 54.64C129.961 55.76 129.001 56.52 127.614 56.92ZM146.366 49.08C145.86 49.32 145.366 49.5067 144.886 49.64C144.406 49.7733 143.846 49.9067 143.206 50.04C141.526 50.3867 140.313 50.5867 139.566 50.64C139.646 50.9067 140.046 51.2267 140.766 51.6C141.246 51.68 141.766 51.6133 142.326 51.4C142.913 51.16 143.513 50.9467 144.126 50.76C144.766 50.5467 145.38 50.4267 145.966 50.4C146.58 50.3733 147.153 50.6 147.686 51.08C147.9 51.56 148.073 51.84 148.206 51.92C148.34 52 148.46 52.04 148.566 52.04C148.673 52.04 148.793 52.08 148.926 52.16C149.06 52.24 149.246 52.5467 149.486 53.08C149.753 53.6133 149.686 54.12 149.286 54.6C148.913 55.08 148.326 55.4933 147.526 55.84C146.726 56.1867 145.793 56.4667 144.726 56.68C143.66 56.8933 142.593 57.04 141.526 57.12C139.126 57.3067 137.3 57.12 136.046 56.56C134.233 55.9467 133.06 54.7333 132.526 52.92C131.833 50.52 132.22 47.72 133.686 44.52C134.353 43.0267 135.406 41.4267 136.846 39.72C138.1 38.2267 139.5 37.1467 141.046 36.48C142.833 35.7067 144.7 35.3467 146.646 35.4C148.726 35.4533 150.166 36.36 150.966 38.12C151.366 39.0533 151.446 40.36 151.206 42.04C150.78 44.2267 150.22 45.7733 149.526 46.68C148.833 47.56 147.78 48.36 146.366 49.08ZM144.046 42.76C142.633 42.4667 141.526 43.2667 140.726 45.16C140.486 45.6667 140.3 46.2 140.166 46.76C141.073 46.8667 142.033 46.36 143.046 45.24C143.42 44.7867 143.7 44.3333 143.886 43.88C144.073 43.4 144.126 43.0267 144.046 42.76ZM170.023 37.84L170.183 37.88C170.236 37.88 170.263 37.8933 170.263 37.92C170.956 37.6533 171.53 37.8533 171.983 38.52C172.276 38.9733 172.503 39.6667 172.663 40.6C172.716 41.88 172.583 43.6533 172.263 45.92C171.65 50.5067 171.316 53.24 171.263 54.12C171.316 55.0533 170.743 55.6933 169.543 56.04C168.503 56.36 167.463 56.3467 166.423 56C165.33 55.6267 164.876 55.0533 165.063 54.28C164.85 54.68 164.636 54.96 164.423 55.12C164.21 55.3067 163.783 55.5467 163.143 55.84C162.53 56.16 161.65 56.4133 160.503 56.6C159.356 56.8133 158.21 56.8667 157.063 56.76C155.916 56.68 154.863 56.4 153.903 55.92C152.97 55.4667 152.343 54.7467 152.023 53.76C151.41 51.84 151.49 49.4 152.263 46.44C152.796 44.4933 153.756 42.7733 155.143 41.28C156.743 39.5733 158.556 38.16 160.583 37.04C162.103 36.2133 163.57 35.72 164.983 35.56C165.463 35.5067 165.876 35.52 166.223 35.6C166.596 35.68 166.983 35.76 167.383 35.84C167.81 35.92 168.21 36.04 168.583 36.2C169.543 36.6 170.023 37.1467 170.023 37.84ZM162.623 48.44C162.81 48.0667 162.956 47.6 163.063 47.04C163.196 46.48 163.37 45.8667 163.583 45.2C161.423 46.08 159.77 47.16 158.623 48.44C157.37 49.8533 157.45 50.8267 158.863 51.36C160.09 51.68 160.983 51.48 161.543 50.76C161.783 50.44 161.996 50.04 162.183 49.56C162.37 49.08 162.596 48.5867 162.863 48.08C162.783 48.2133 162.703 48.3333 162.623 48.44ZM177.308 38.44C177.682 37.48 178.202 36.76 178.868 36.28C179.562 35.7733 180.215 35.4667 180.828 35.36C181.468 35.2267 181.988 35.2933 182.388 35.56C182.815 35.8267 182.962 36.24 182.828 36.8C183.335 36.2933 184.068 35.8267 185.028 35.4C185.988 34.9733 186.748 34.68 187.308 34.52C187.868 34.36 188.348 34.28 188.748 34.28C189.628 34.3333 189.882 34.8133 189.508 35.72C189.962 35.8 190.295 36.0933 190.508 36.6C190.722 37.1067 190.748 37.6667 190.588 38.28C190.428 38.8933 190.068 39.4933 189.508 40.08C188.948 40.6667 188.188 41.0667 187.228 41.28C186.295 41.4933 185.508 41.9867 184.868 42.76C184.255 43.5067 183.708 44.44 183.228 45.56C182.428 47.4533 181.708 50.1333 181.068 53.6C180.855 54.8533 179.988 55.9067 178.468 56.76C177.028 57.5867 175.708 57.8267 174.508 57.48C173.148 57.1067 172.548 56.1067 172.708 54.48C172.762 53.3333 173.108 51.8133 173.748 49.92C174.388 48 174.882 46.56 175.228 45.6C175.575 44.6133 175.815 43.8667 175.948 43.36L177.308 38.44ZM195.727 37.68C197.514 36.96 198.714 36.9467 199.327 37.64C199.647 38.0133 199.807 38.5333 199.807 39.2V39.4C200.794 38.2533 202.514 37.2933 204.967 36.52C207.554 35.72 209.687 35.4933 211.367 35.84C213.554 36.2933 214.78 37.72 215.047 40.12C215.26 42.1467 214.794 44.72 213.647 47.84C213.274 48.64 212.98 49.2933 212.767 49.8C212.58 50.28 212.407 50.72 212.247 51.12C211.9 51.8667 211.354 52.76 210.607 53.8C210.18 54.6 209.514 55.2133 208.607 55.64C207.727 56.0667 206.847 56.3067 205.967 56.36C205.114 56.44 204.407 56.3067 203.847 55.96C203.287 55.64 203.127 55.12 203.367 54.4C203.98 52.7467 204.487 51.24 204.887 49.88C205.287 48.52 205.7 47.36 206.127 46.4C206.527 45.04 206.58 44.1867 206.287 43.84C206.047 43.5733 205.634 43.6133 205.047 43.96C204.54 44.28 204.18 44.6533 203.967 45.08C203.487 45.4267 202.58 46.8133 201.247 49.24C200.874 49.9067 200.5 50.5733 200.127 51.24C199.78 51.88 199.447 52.48 199.127 53.04C198.834 53.6 198.567 54.0667 198.327 54.44C198.114 54.8133 197.914 55.0533 197.727 55.16C197.567 55.2933 197.42 55.3733 197.287 55.4C197.18 55.4533 197.087 55.5067 197.007 55.56C196.927 55.6133 196.86 55.7867 196.807 56.08C196.7 56.6933 196.06 57.1467 194.887 57.44C192.994 57.92 191.287 57.84 189.767 57.2C189.26 56.9867 188.86 56.6933 188.567 56.32C187.954 55.0933 189.007 50.92 191.727 43.8C192.687 41.2933 193.314 39.8 193.607 39.32C194.274 38.3067 194.7 37.7333 194.887 37.6C195.1 37.4667 195.38 37.4933 195.727 37.68Z" fill="white"/>
</svg>
