<svg width="52" height="36" viewBox="0 0 52 36" fill="none" xmlns="http://www.w3.org/2000/svg">
<path d="M50.5649 8.2141L27.901 0.322523C26.6659 -0.107508 25.3334 -0.107508 24.0992 0.322523L1.43447 8.2141C-0.478158 8.87986 -0.478158 11.7464 1.43447 12.4122L5.38568 13.7879C4.51874 15.0025 3.98573 16.4841 3.93292 18.1067C3.15048 18.615 2.5996 19.5321 2.5996 20.627C2.5996 21.6196 3.06111 22.4548 3.72573 22.9889L1.65141 33.5675C1.47104 34.4874 2.08854 35.3604 2.91973 35.3604H7.47869C8.31069 35.3604 8.92819 34.4874 8.74782 33.5675L6.67349 22.9889C7.33812 22.4548 7.79962 21.6196 7.79962 20.627C7.79962 19.5616 7.27393 18.6702 6.52724 18.1527C6.58899 16.7696 7.213 15.5467 8.20831 14.7714L24.0984 20.3047C24.8346 20.5607 26.2467 20.8802 27.9001 20.3047L50.5649 12.4131C52.4784 11.7464 52.4784 8.88079 50.5649 8.2141ZM28.6639 23.1215C26.3458 23.9282 24.3706 23.4825 23.3347 23.1215L11.5518 19.0192L10.3996 29.467C10.3996 32.7222 17.3839 35.3604 25.9997 35.3604C34.6155 35.3604 41.5998 32.7222 41.5998 29.467L40.4476 19.0183L28.6639 23.1215Z" fill="#FFFFFF"/>
</svg>
