<svg width="254" height="268" viewBox="0 0 254 268" fill="none" xmlns="http://www.w3.org/2000/svg">
<path d="M186.392 17.5234L131.596 0.68805C128.61 -0.22935 125.388 -0.22935 122.404 0.68805L67.6059 17.5234C62.9816 18.9437 62.9816 25.059 67.6059 26.4793L77.1591 29.4142C75.063 32.0054 73.7743 35.1662 73.6466 38.6275C71.7549 39.7119 70.423 41.6685 70.423 44.0042C70.423 46.1219 71.5388 47.9037 73.1457 49.0431L68.1304 71.6107C67.6943 73.5732 69.1873 75.4355 71.197 75.4355H82.2195C84.2311 75.4355 85.7241 73.5732 85.288 71.6107L80.2727 49.0431C81.8797 47.9037 82.9955 46.1219 82.9955 44.0042C82.9955 41.7314 81.7245 39.8298 79.9191 38.7257C80.0684 35.7751 81.5771 33.1663 83.9836 31.5123L122.402 43.3167C124.182 43.8628 127.596 44.5445 131.594 43.3167L186.392 26.4813C191.019 25.0591 191.019 18.9457 186.392 17.5234ZM133.441 49.3259C127.836 51.0468 123.06 50.096 120.556 49.3259L92.0673 40.5743L89.2817 62.863C89.2817 69.8073 106.168 75.4355 126.999 75.4355C147.83 75.4355 164.717 69.8073 164.717 62.863L161.931 40.5723L133.441 49.3259Z" fill="#8750f7"/>
<path d="M32.88 142.355C32.32 142.515 31.7867 142.595 31.28 142.595C30.7733 142.622 30.2533 142.649 29.72 142.675C29.2133 142.702 28.5067 142.715 27.6 142.715C26.6933 142.715 25.3333 142.689 23.52 142.635C23.0933 142.662 22.6667 142.675 22.24 142.675C21.8133 142.675 21.4133 142.595 21.04 142.435C20.2133 142.089 19.6533 141.289 19.36 140.035C19.2267 139.449 19.08 139.035 18.92 138.795C18.7333 138.555 18.5867 138.329 18.48 138.115C18.2133 137.689 18.24 136.982 18.56 135.995C18.8533 135.009 19.24 133.795 19.72 132.355C20.2 130.889 20.7467 129.342 21.36 127.715C22.8 123.849 24.0933 120.782 25.24 118.515C25.6933 117.502 26.08 116.622 26.4 115.875C26.7467 115.129 27.0533 114.489 27.32 113.955C27.5867 113.395 27.72 113.102 27.72 113.075C27.9867 112.062 29.0133 111.209 30.8 110.515C32.5333 109.795 34.1067 109.609 35.52 109.955C37.0933 110.355 37.7867 111.395 37.6 113.075C37.2267 114.729 36.6667 116.382 35.92 118.035C35.2 119.689 34.3733 121.422 33.44 123.235C32.5067 125.049 31.4933 126.969 30.4 128.995C29.3067 131.022 28.2267 133.222 27.16 135.595C27.1333 135.702 27.1867 135.795 27.32 135.875C27.6667 135.849 28.1467 135.742 28.76 135.555C29.4 135.369 30.0533 135.209 30.72 135.075C31.4133 134.915 32.0933 134.835 32.76 134.835C33.4267 134.835 33.9867 135.009 34.44 135.355C34.4133 135.835 34.5333 136.222 34.8 136.515C35.0667 136.782 35.3333 137.049 35.6 137.315C36.2667 138.009 36.32 138.929 35.76 140.075C35.2267 141.195 34.2667 141.955 32.88 142.355ZM42.9519 123.115C43.2985 122.235 44.1252 121.635 45.4319 121.315C46.6585 120.995 47.8052 121.035 48.8719 121.435C49.9652 121.862 50.4585 122.555 50.3519 123.515C50.0585 124.449 49.6852 125.595 49.2319 126.955C48.8052 128.289 48.3919 129.662 47.9919 131.075C46.9252 134.702 46.3119 137.262 46.1519 138.755C45.7519 141.155 45.0852 142.449 44.1519 142.635C43.8852 142.689 43.6319 142.729 43.3919 142.755C42.8052 142.782 42.4319 142.942 42.2719 143.235C42.1119 143.529 41.8452 143.742 41.4719 143.875C41.0985 144.035 40.6852 144.102 40.2319 144.075C39.8052 144.075 39.3652 143.969 38.9119 143.755C38.4585 143.569 38.0719 143.289 37.7519 142.915C37.0052 142.009 36.8585 140.795 37.3119 139.275C37.7385 136.369 38.8185 132.675 40.5519 128.195C41.3785 125.982 42.1785 124.289 42.9519 123.115ZM50.5119 117.115C49.2052 117.382 48.1385 117.302 47.3119 116.875C46.5119 116.449 46.0452 115.942 45.9119 115.355C45.7785 114.742 45.9652 114.115 46.4719 113.475C47.0585 112.675 47.9385 112.155 49.1119 111.915C49.6452 111.862 50.0319 111.835 50.2719 111.835C50.5119 111.835 50.8052 111.889 51.1519 111.995C52.0319 112.075 52.6052 112.462 52.8719 113.155C53.2452 113.742 53.2719 114.409 52.9519 115.155C52.6585 115.902 51.8452 116.555 50.5119 117.115ZM57.2034 123.115C58.9901 122.395 60.1901 122.382 60.8034 123.075C61.1234 123.449 61.2834 123.969 61.2834 124.635V124.835C62.2701 123.689 63.9901 122.729 66.4434 121.955C69.0301 121.155 71.1634 120.929 72.8434 121.275C75.0301 121.729 76.2568 123.155 76.5234 125.555C76.7368 127.582 76.2701 130.155 75.1234 133.275C74.7501 134.075 74.4568 134.729 74.2434 135.235C74.0568 135.715 73.8834 136.155 73.7234 136.555C73.3768 137.302 72.8301 138.195 72.0834 139.235C71.6568 140.035 70.9901 140.649 70.0834 141.075C69.2034 141.502 68.3234 141.742 67.4434 141.795C66.5901 141.875 65.8834 141.742 65.3234 141.395C64.7634 141.075 64.6034 140.555 64.8434 139.835C65.4568 138.182 65.9634 136.675 66.3634 135.315C66.7634 133.955 67.1768 132.795 67.6034 131.835C68.0034 130.475 68.0568 129.622 67.7634 129.275C67.5234 129.009 67.1101 129.049 66.5234 129.395C66.0168 129.715 65.6568 130.089 65.4434 130.515C64.9634 130.862 64.0568 132.249 62.7234 134.675C62.3501 135.342 61.9768 136.009 61.6034 136.675C61.2568 137.315 60.9234 137.915 60.6034 138.475C60.3101 139.035 60.0434 139.502 59.8034 139.875C59.5901 140.249 59.3901 140.489 59.2034 140.595C59.0434 140.729 58.8968 140.809 58.7634 140.835C58.6568 140.889 58.5634 140.942 58.4834 140.995C58.4034 141.049 58.3368 141.222 58.2834 141.515C58.1768 142.129 57.5368 142.582 56.3634 142.875C54.4701 143.355 52.7634 143.275 51.2434 142.635C50.7368 142.422 50.3368 142.129 50.0434 141.755C49.4301 140.529 50.4834 136.355 53.2034 129.235C54.1634 126.729 54.7901 125.235 55.0834 124.755C55.7501 123.742 56.1768 123.169 56.3634 123.035C56.5768 122.902 56.8568 122.929 57.2034 123.115ZM93.4172 124.475C93.8705 123.649 94.4705 123.235 95.2172 123.235C96.3639 123.875 97.0839 124.915 97.3772 126.355C97.6705 127.795 97.3505 129.089 96.4172 130.235C96.3905 130.262 96.4039 130.489 96.4572 130.915C96.9372 133.582 96.7639 136.355 95.9372 139.235C95.6439 140.195 95.2972 141.089 94.8972 141.915C94.5239 142.742 94.0439 143.782 93.4572 145.035C92.8972 146.289 92.0972 147.529 91.0572 148.755C90.0172 149.982 88.8439 150.955 87.5372 151.675C84.7905 153.222 81.7239 153.555 78.3372 152.675C77.1105 152.195 76.2572 151.635 75.7772 150.995C75.1639 150.222 74.9505 149.395 75.1372 148.515C75.3239 147.422 75.9639 146.822 77.0572 146.715C77.5905 146.662 78.2572 146.862 79.0572 147.315C79.9639 147.502 80.6972 147.489 81.2572 147.275C81.8172 147.062 82.2572 146.862 82.5772 146.675C82.9239 146.515 83.3505 146.302 83.8572 146.035C84.7372 145.582 85.7372 144.542 86.8572 142.915C87.4705 142.062 88.0839 140.915 88.6972 139.475C87.7105 140.729 86.1372 141.342 83.9772 141.315C83.3639 141.289 82.6705 141.262 81.8972 141.235C81.1505 141.209 80.4705 140.955 79.8572 140.475C79.2439 139.995 78.7505 139.369 78.3772 138.595C78.0039 137.822 77.7505 136.942 77.6172 135.955C77.5105 134.942 77.5105 133.915 77.6172 132.875C78.0439 129.249 79.5639 126.382 82.1772 124.275C83.9639 122.809 85.8839 122.022 87.9372 121.915C88.9239 121.862 89.8572 121.969 90.7372 122.235C91.8039 122.635 92.6972 123.382 93.4172 124.475ZM88.5372 133.555C88.5372 133.475 88.5505 133.409 88.5772 133.355C88.4439 133.302 88.3105 133.262 88.1772 133.235C88.0439 133.182 87.8039 133.102 87.4572 132.995C87.1105 132.889 86.6439 132.955 86.0572 133.195C85.4705 133.409 84.9505 133.715 84.4972 134.115C84.0705 134.489 83.7239 134.889 83.4572 135.315C83.2172 135.742 83.1772 136.102 83.3372 136.395C83.5239 136.689 83.8439 136.809 84.2972 136.755C84.7505 136.675 85.2439 136.475 85.7772 136.155C86.9505 135.435 87.8705 134.569 88.5372 133.555ZM103.897 123.355C104.457 122.955 105.15 122.862 105.977 123.075C106.137 123.102 106.297 123.115 106.457 123.115C107.044 121.915 108.057 121.289 109.497 121.235C109.87 121.209 110.39 121.142 111.057 121.035C111.724 120.929 112.524 120.955 113.457 121.115C114.417 121.275 115.257 121.555 115.977 121.955C117.55 122.809 118.497 124.035 118.817 125.635C119.457 127.982 119.364 130.542 118.537 133.315C117.657 136.382 116.164 138.835 114.057 140.675C113.097 141.529 112.084 142.062 111.017 142.275C109.95 142.515 108.99 142.649 108.137 142.675C107.284 142.702 106.497 142.702 105.777 142.675C105.084 142.675 104.404 142.609 103.737 142.475C102.297 142.182 101.11 141.502 100.177 140.435C99.0835 139.235 98.6169 137.369 98.7769 134.835C98.8835 132.595 99.4435 130.342 100.457 128.075C101.497 125.782 102.644 124.209 103.897 123.355ZM110.937 131.395C110.27 131.609 109.644 131.702 109.057 131.675C108.764 131.969 108.497 132.289 108.257 132.635C108.044 132.955 107.75 133.262 107.377 133.555C107.004 133.822 106.817 133.929 106.817 133.875C106.364 134.515 105.99 135.182 105.697 135.875C105.404 136.542 105.404 137.222 105.697 137.915C106.764 138.022 107.55 137.995 108.057 137.835C108.564 137.675 109.03 137.369 109.457 136.915C109.91 136.462 110.257 135.929 110.497 135.315C110.977 134.169 111.124 132.862 110.937 131.395ZM145.614 142.355C145.054 142.515 144.521 142.595 144.014 142.595C143.508 142.622 142.988 142.649 142.454 142.675C141.948 142.702 141.241 142.715 140.334 142.715C139.428 142.715 138.068 142.689 136.254 142.635C135.828 142.662 135.401 142.675 134.974 142.675C134.548 142.675 134.148 142.595 133.774 142.435C132.948 142.089 132.388 141.289 132.094 140.035C131.961 139.449 131.814 139.035 131.654 138.795C131.468 138.555 131.321 138.329 131.214 138.115C130.948 137.689 130.974 136.982 131.294 135.995C131.588 135.009 131.974 133.795 132.454 132.355C132.934 130.889 133.481 129.342 134.094 127.715C135.534 123.849 136.828 120.782 137.974 118.515C138.428 117.502 138.814 116.622 139.134 115.875C139.481 115.129 139.788 114.489 140.054 113.955C140.321 113.395 140.454 113.102 140.454 113.075C140.721 112.062 141.748 111.209 143.534 110.515C145.268 109.795 146.841 109.609 148.254 109.955C149.828 110.355 150.521 111.395 150.334 113.075C149.961 114.729 149.401 116.382 148.654 118.035C147.934 119.689 147.108 121.422 146.174 123.235C145.241 125.049 144.228 126.969 143.134 128.995C142.041 131.022 140.961 133.222 139.894 135.595C139.868 135.702 139.921 135.795 140.054 135.875C140.401 135.849 140.881 135.742 141.494 135.555C142.134 135.369 142.788 135.209 143.454 135.075C144.148 134.915 144.828 134.835 145.494 134.835C146.161 134.835 146.721 135.009 147.174 135.355C147.148 135.835 147.268 136.222 147.534 136.515C147.801 136.782 148.068 137.049 148.334 137.315C149.001 138.009 149.054 138.929 148.494 140.075C147.961 141.195 147.001 141.955 145.614 142.355ZM164.366 134.515C163.86 134.755 163.366 134.942 162.886 135.075C162.406 135.209 161.846 135.342 161.206 135.475C159.526 135.822 158.313 136.022 157.566 136.075C157.646 136.342 158.046 136.662 158.766 137.035C159.246 137.115 159.766 137.049 160.326 136.835C160.913 136.595 161.513 136.382 162.126 136.195C162.766 135.982 163.38 135.862 163.966 135.835C164.58 135.809 165.153 136.035 165.686 136.515C165.9 136.995 166.073 137.275 166.206 137.355C166.34 137.435 166.46 137.475 166.566 137.475C166.673 137.475 166.793 137.515 166.926 137.595C167.06 137.675 167.246 137.982 167.486 138.515C167.753 139.049 167.686 139.555 167.286 140.035C166.913 140.515 166.326 140.929 165.526 141.275C164.726 141.622 163.793 141.902 162.726 142.115C161.66 142.329 160.593 142.475 159.526 142.555C157.126 142.742 155.3 142.555 154.046 141.995C152.233 141.382 151.06 140.169 150.526 138.355C149.833 135.955 150.22 133.155 151.686 129.955C152.353 128.462 153.406 126.862 154.846 125.155C156.1 123.662 157.5 122.582 159.046 121.915C160.833 121.142 162.7 120.782 164.646 120.835C166.726 120.889 168.166 121.795 168.966 123.555C169.366 124.489 169.446 125.795 169.206 127.475C168.78 129.662 168.22 131.209 167.526 132.115C166.833 132.995 165.78 133.795 164.366 134.515ZM162.046 128.195C160.633 127.902 159.526 128.702 158.726 130.595C158.486 131.102 158.3 131.635 158.166 132.195C159.073 132.302 160.033 131.795 161.046 130.675C161.42 130.222 161.7 129.769 161.886 129.315C162.073 128.835 162.126 128.462 162.046 128.195ZM188.023 123.275L188.183 123.315C188.236 123.315 188.263 123.329 188.263 123.355C188.956 123.089 189.53 123.289 189.983 123.955C190.276 124.409 190.503 125.102 190.663 126.035C190.716 127.315 190.583 129.089 190.263 131.355C189.65 135.942 189.316 138.675 189.263 139.555C189.316 140.489 188.743 141.129 187.543 141.475C186.503 141.795 185.463 141.782 184.423 141.435C183.33 141.062 182.876 140.489 183.063 139.715C182.85 140.115 182.636 140.395 182.423 140.555C182.21 140.742 181.783 140.982 181.143 141.275C180.53 141.595 179.65 141.849 178.503 142.035C177.356 142.249 176.21 142.302 175.063 142.195C173.916 142.115 172.863 141.835 171.903 141.355C170.97 140.902 170.343 140.182 170.023 139.195C169.41 137.275 169.49 134.835 170.263 131.875C170.796 129.929 171.756 128.209 173.143 126.715C174.743 125.009 176.556 123.595 178.583 122.475C180.103 121.649 181.57 121.155 182.983 120.995C183.463 120.942 183.876 120.955 184.223 121.035C184.596 121.115 184.983 121.195 185.383 121.275C185.81 121.355 186.21 121.475 186.583 121.635C187.543 122.035 188.023 122.582 188.023 123.275ZM180.623 133.875C180.81 133.502 180.956 133.035 181.063 132.475C181.196 131.915 181.37 131.302 181.583 130.635C179.423 131.515 177.77 132.595 176.623 133.875C175.37 135.289 175.45 136.262 176.863 136.795C178.09 137.115 178.983 136.915 179.543 136.195C179.783 135.875 179.996 135.475 180.183 134.995C180.37 134.515 180.596 134.022 180.863 133.515C180.783 133.649 180.703 133.769 180.623 133.875ZM195.308 123.875C195.682 122.915 196.202 122.195 196.868 121.715C197.562 121.209 198.215 120.902 198.828 120.795C199.468 120.662 199.988 120.729 200.388 120.995C200.815 121.262 200.962 121.675 200.828 122.235C201.335 121.729 202.068 121.262 203.028 120.835C203.988 120.409 204.748 120.115 205.308 119.955C205.868 119.795 206.348 119.715 206.748 119.715C207.628 119.769 207.882 120.249 207.508 121.155C207.962 121.235 208.295 121.529 208.508 122.035C208.722 122.542 208.748 123.102 208.588 123.715C208.428 124.329 208.068 124.929 207.508 125.515C206.948 126.102 206.188 126.502 205.228 126.715C204.295 126.929 203.508 127.422 202.868 128.195C202.255 128.942 201.708 129.875 201.228 130.995C200.428 132.889 199.708 135.569 199.068 139.035C198.855 140.289 197.988 141.342 196.468 142.195C195.028 143.022 193.708 143.262 192.508 142.915C191.148 142.542 190.548 141.542 190.708 139.915C190.762 138.769 191.108 137.249 191.748 135.355C192.388 133.435 192.882 131.995 193.228 131.035C193.575 130.049 193.815 129.302 193.948 128.795L195.308 123.875ZM213.727 123.115C215.514 122.395 216.714 122.382 217.327 123.075C217.647 123.449 217.807 123.969 217.807 124.635V124.835C218.794 123.689 220.514 122.729 222.967 121.955C225.554 121.155 227.687 120.929 229.367 121.275C231.554 121.729 232.78 123.155 233.047 125.555C233.26 127.582 232.794 130.155 231.647 133.275C231.274 134.075 230.98 134.729 230.767 135.235C230.58 135.715 230.407 136.155 230.247 136.555C229.9 137.302 229.354 138.195 228.607 139.235C228.18 140.035 227.514 140.649 226.607 141.075C225.727 141.502 224.847 141.742 223.967 141.795C223.114 141.875 222.407 141.742 221.847 141.395C221.287 141.075 221.127 140.555 221.367 139.835C221.98 138.182 222.487 136.675 222.887 135.315C223.287 133.955 223.7 132.795 224.127 131.835C224.527 130.475 224.58 129.622 224.287 129.275C224.047 129.009 223.634 129.049 223.047 129.395C222.54 129.715 222.18 130.089 221.967 130.515C221.487 130.862 220.58 132.249 219.247 134.675C218.874 135.342 218.5 136.009 218.127 136.675C217.78 137.315 217.447 137.915 217.127 138.475C216.834 139.035 216.567 139.502 216.327 139.875C216.114 140.249 215.914 140.489 215.727 140.595C215.567 140.729 215.42 140.809 215.287 140.835C215.18 140.889 215.087 140.942 215.007 140.995C214.927 141.049 214.86 141.222 214.807 141.515C214.7 142.129 214.06 142.582 212.887 142.875C210.994 143.355 209.287 143.275 207.767 142.635C207.26 142.422 206.86 142.129 206.567 141.755C205.954 140.529 207.007 136.355 209.727 129.235C210.687 126.729 211.314 125.235 211.607 124.755C212.274 123.742 212.7 123.169 212.887 123.035C213.1 122.902 213.38 122.929 213.727 123.115Z" fill="#0B0D1D"/>
</svg>
