<svg width="1954" height="1287" viewBox="0 0 1954 1287" fill="none" xmlns="http://www.w3.org/2000/svg">
<g clip-path="url(#clip0_2389_792)">
<path d="M1919.15 303.388L1888.45 452.091L1868.68 432.809L1835.06 456.807L1809.36 424.885L1751.74 466.785L1702.49 384.429L1647.57 416.607L1625.78 386.578L1556.04 425.879L1535.06 380.932L1583.95 144.13L1846.06 198.253L1919.15 303.388Z" fill="#EBEBEB"/>
<path d="M1846.06 198.253L1919.15 303.388L1828.23 284.62L1846.06 198.253Z" fill="#DBDBDB"/>
<path d="M1881.9 481.799L1836.89 699.961L1483.82 627.07L1528.51 410.672L1549.49 455.588L1619.27 416.287L1641.02 446.316L1695.98 414.169L1745.2 496.525L1802.85 454.626L1828.51 486.516L1862.17 462.55L1881.9 481.799Z" fill="#EBEBEB"/>
<path d="M1376.57 456.23L1016.76 478.495L988.175 16.6337L1255.36 0.0791016L1353.44 82.371L1376.57 456.23Z" fill="#EBEBEB"/>
<path d="M1255.36 0.0791016L1353.44 82.371L1260.78 88.1138L1255.36 0.0791016Z" fill="#DBDBDB"/>
<path d="M1155.74 310.863L1154.33 300.436C1150.71 278.845 1156.61 254.687 1175.38 229.438C1192.32 206.98 1201.49 190.939 1200.47 172.716C1199.31 152.183 1185.68 139.221 1160.3 140.248C1145.79 141.001 1131.86 146.148 1120.36 155.006L1109.29 130.206C1122.12 119.779 1144.58 112.079 1165.91 110.957C1212.21 108.39 1234.73 135.789 1236.49 166.363C1238.03 193.73 1223.85 214.295 1205.82 238.325C1189.27 260.237 1183.85 278.299 1186.19 298.736L1187.18 309.195L1155.74 310.863ZM1150.03 367.682C1149.2 352.795 1158.66 341.759 1172.75 340.989C1186.83 340.219 1197.1 350.1 1197.93 365.019C1198.7 379.103 1190.07 390.46 1175.18 391.294C1160.97 392.096 1150.71 381.766 1149.9 367.682H1150.03Z" fill="#DBDBDB"/>
<path d="M255.761 232.293L219.572 215.899L214.535 226.967C213.791 228.549 212.631 229.899 211.178 230.871C209.726 231.843 208.036 232.401 206.29 232.486C204.301 232.551 202.318 232.744 200.354 233.063C198.63 233.319 196.869 233.102 195.259 232.435C193.648 231.769 192.249 230.677 191.211 229.277L184.121 219.364L151.813 242.527L158.904 252.441C159.89 253.872 160.47 255.543 160.583 257.277C160.696 259.011 160.338 260.744 159.545 262.29C158.631 264.055 157.806 265.864 157.075 267.712C156.439 269.342 155.372 270.767 153.987 271.836C152.602 272.904 150.952 273.575 149.215 273.776L137.12 274.963L141.002 314.521L153.161 313.302C154.905 313.162 156.654 313.501 158.219 314.281C159.785 315.061 161.109 316.253 162.048 317.729C162.561 318.563 163.107 319.365 163.684 320.167C164.262 320.969 164.839 321.739 165.449 322.509C166.556 323.857 167.268 325.484 167.506 327.212C167.743 328.939 167.498 330.698 166.796 332.295L161.727 343.459L197.948 359.886L202.985 348.753C203.736 347.173 204.903 345.827 206.362 344.86C207.82 343.893 209.514 343.343 211.263 343.267C213.229 343.186 215.189 342.993 217.134 342.689C218.858 342.433 220.619 342.65 222.229 343.317C223.84 343.984 225.239 345.075 226.277 346.475L233.367 356.389L265.707 333.225L258.616 323.311C257.6 321.894 257.001 320.219 256.888 318.479C256.774 316.738 257.151 315 257.975 313.462C258.869 311.708 259.672 309.909 260.381 308.072C260.998 306.431 262.06 304.994 263.449 303.923C264.837 302.852 266.497 302.189 268.241 302.009L280.401 300.79L276.486 261.232L264.327 262.419C262.594 262.571 260.853 262.241 259.296 261.465C257.739 260.69 256.427 259.498 255.504 258.023C254.959 257.189 254.414 256.387 253.836 255.585C253.259 254.783 252.681 253.981 252.072 253.243C250.972 251.879 250.265 250.241 250.028 248.506C249.79 246.77 250.031 245.003 250.724 243.394L255.761 232.293ZM235.228 268.899C238.98 274.135 241.095 280.365 241.305 286.803C241.516 293.24 239.813 299.596 236.411 305.065C233.009 310.535 228.062 314.872 222.195 317.53C216.328 320.188 209.804 321.046 203.45 319.995C197.095 318.945 191.194 316.034 186.494 311.63C181.794 307.226 178.505 301.528 177.044 295.255C175.583 288.981 176.015 282.416 178.285 276.389C180.556 270.361 184.563 265.142 189.799 261.392C196.82 256.365 205.549 254.331 214.068 255.739C222.587 257.147 230.199 261.881 235.228 268.899Z" fill="#EBEBEB"/>
<path d="M1891.65 757.164L1867.53 771.088L1871.79 778.467C1872.43 779.526 1872.75 780.746 1872.71 781.981C1872.67 783.216 1872.27 784.413 1871.57 785.429C1870.83 786.584 1870.13 787.771 1869.48 789.022C1868.96 790.129 1868.12 791.061 1867.08 791.71C1866.04 792.358 1864.84 792.694 1863.61 792.68H1855.14V820.559H1863.68C1864.9 820.544 1866.11 820.881 1867.15 821.529C1868.19 822.177 1869.02 823.11 1869.55 824.217C1870.19 825.468 1870.9 826.655 1871.63 827.81C1872.34 828.826 1872.73 830.023 1872.77 831.258C1872.81 832.493 1872.5 833.713 1871.86 834.772L1867.59 842.151L1891.72 856.075L1896.02 848.664C1896.64 847.613 1897.54 846.756 1898.62 846.189C1899.71 845.622 1900.93 845.368 1902.14 845.455H1906.25C1907.47 845.372 1908.69 845.628 1909.77 846.194C1910.85 846.76 1911.75 847.615 1912.38 848.664L1916.68 856.107L1940.77 842.183L1936.5 834.772C1935.9 833.708 1935.6 832.495 1935.65 831.27C1935.69 830.046 1936.08 828.859 1936.76 827.842C1937.5 826.687 1938.21 825.468 1938.85 824.249C1939.37 823.142 1940.21 822.209 1941.25 821.561C1942.29 820.913 1943.49 820.577 1944.72 820.591H1953.25V792.712H1944.65C1943.43 792.727 1942.22 792.39 1941.18 791.742C1940.14 791.094 1939.31 790.161 1938.78 789.054C1938.14 787.835 1937.44 786.616 1936.7 785.461C1936.01 784.444 1935.63 783.257 1935.58 782.033C1935.54 780.808 1935.83 779.595 1936.44 778.531L1940.71 771.12L1916.61 757.196L1912.31 764.511C1911.69 765.562 1910.79 766.419 1909.71 766.986C1908.62 767.552 1907.41 767.806 1906.19 767.719H1904.13H1902.08C1900.86 767.801 1899.64 767.546 1898.55 766.98C1897.46 766.414 1896.55 765.56 1895.92 764.511L1891.65 757.164ZM1904.13 783.793C1908.65 783.786 1913.07 785.121 1916.84 787.629C1920.6 790.137 1923.53 793.704 1925.26 797.879C1927 802.054 1927.45 806.65 1926.57 811.084C1925.69 815.518 1923.51 819.591 1920.32 822.788C1917.12 825.984 1913.05 828.161 1908.61 829.041C1904.18 829.921 1899.58 829.466 1895.41 827.733C1891.23 826 1887.67 823.068 1885.16 819.306C1882.65 815.545 1881.32 811.124 1881.32 806.603C1881.32 803.605 1881.91 800.635 1883.05 797.864C1884.19 795.093 1885.87 792.575 1887.99 790.453C1890.11 788.331 1892.63 786.648 1895.4 785.5C1898.17 784.352 1901.14 783.761 1904.13 783.761V783.793Z" fill="#EBEBEB"/>
<path d="M328.974 113.748L306.869 130.687L311.97 137.457C312.731 138.421 313.199 139.584 313.318 140.807C313.438 142.029 313.204 143.261 312.644 144.354C312.03 145.603 311.494 146.889 311.04 148.204C310.644 149.363 309.933 150.388 308.987 151.165C308.04 151.941 306.895 152.438 305.682 152.6L297.212 153.69L300.805 181.314L309.275 180.223C310.508 180.051 311.764 180.231 312.899 180.742C314.035 181.252 315.002 182.073 315.692 183.11C316.464 184.226 317.3 185.297 318.194 186.318C319.02 187.227 319.569 188.354 319.773 189.566C319.978 190.777 319.831 192.022 319.349 193.152L316.141 201.044L341.807 211.728L345.015 203.835C345.492 202.703 346.277 201.728 347.281 201.019C348.285 200.31 349.467 199.896 350.694 199.825L352.747 199.601L354.768 199.28C355.955 199.056 357.181 199.162 358.313 199.586C359.444 200.01 360.437 200.737 361.185 201.686L366.414 208.52L388.519 191.58L383.354 184.811C382.608 183.833 382.149 182.666 382.03 181.442C381.911 180.217 382.136 178.984 382.68 177.881C383.288 176.64 383.824 175.365 384.284 174.063C384.68 172.904 385.391 171.879 386.337 171.102C387.284 170.326 388.428 169.829 389.642 169.668L398.112 168.577L394.518 140.954L386.049 142.044C384.819 142.22 383.565 142.045 382.43 141.54C381.295 141.035 380.325 140.22 379.632 139.189C378.83 138.034 377.996 136.943 377.098 135.981C376.35 135.052 375.867 133.94 375.697 132.76C375.528 131.58 375.679 130.377 376.135 129.276L379.343 121.383L353.677 110.7L350.469 118.592C349.985 119.72 349.199 120.692 348.196 121.4C347.194 122.107 346.015 122.524 344.79 122.602L342.737 122.795L340.844 122.859C339.657 123.083 338.431 122.977 337.3 122.553C336.169 122.128 335.175 121.402 334.428 120.453L328.974 113.748ZM344.79 138.547C349.259 137.973 353.799 138.735 357.835 140.737C361.872 142.739 365.225 145.892 367.471 149.798C369.718 153.704 370.758 158.187 370.459 162.683C370.161 167.179 368.538 171.486 365.794 175.06C363.051 178.635 359.31 181.317 355.045 182.768C350.779 184.219 346.179 184.374 341.825 183.213C337.471 182.053 333.558 179.63 330.58 176.248C327.602 172.867 325.693 168.679 325.092 164.213C324.691 161.233 324.883 158.204 325.657 155.298C326.432 152.393 327.773 149.669 329.603 147.284C331.434 144.898 333.718 142.899 336.325 141.399C338.931 139.9 341.808 138.931 344.79 138.547Z" fill="#EBEBEB"/>
<path d="M115.464 561.46C106.609 555.949 96.4936 552.791 86.0763 552.285C86.0252 552.285 85.9763 552.305 85.9402 552.341C85.9041 552.377 85.8838 552.426 85.8838 552.477C85.8838 552.528 85.9041 552.577 85.9402 552.613C85.9763 552.649 86.0252 552.67 86.0763 552.67C96.1479 554.58 105.922 557.816 115.143 562.294C115.528 562.391 115.817 561.717 115.464 561.46Z" fill="white"/>
<path d="M121.399 692.903C114.593 688.997 107.099 686.437 99.3263 685.363C99.0696 685.363 99.0375 685.716 99.3263 685.78C106.917 687.303 114.259 689.873 121.142 693.416C121.431 693.576 121.688 693.063 121.399 692.903Z" fill="white"/>
<path d="M273.471 680.808C269.415 680.204 265.303 680.064 261.215 680.391C260.734 680.391 260.766 681.225 261.215 681.257C265.258 681.257 269.332 681.064 273.375 681.257C273.421 681.245 273.463 681.221 273.496 681.186C273.529 681.152 273.552 681.109 273.562 681.062C273.572 681.016 273.568 680.967 273.552 680.922C273.536 680.877 273.508 680.838 273.471 680.808Z" fill="white"/>
<path d="M229.229 760.661C222.724 760.794 216.294 762.075 210.236 764.447C210.236 764.447 210.236 764.768 210.236 764.736C216.652 763.228 222.844 762.618 229.197 761.527C229.28 761.491 229.351 761.432 229.402 761.357C229.452 761.283 229.481 761.195 229.485 761.104C229.488 761.014 229.466 760.924 229.42 760.846C229.375 760.768 229.309 760.703 229.229 760.661Z" fill="white"/>
<path d="M215.947 733.07C213.246 733.049 210.55 733.285 207.894 733.776C207.845 733.794 207.802 733.827 207.772 733.87C207.743 733.913 207.727 733.964 207.727 734.017C207.727 734.069 207.743 734.12 207.772 734.163C207.802 734.206 207.845 734.239 207.894 734.257C210.583 734.413 213.281 734.294 215.947 733.904C216.057 733.904 216.163 733.86 216.242 733.782C216.32 733.704 216.364 733.598 216.364 733.487C216.364 733.377 216.32 733.27 216.242 733.192C216.163 733.114 216.057 733.07 215.947 733.07Z" fill="white"/>
<path d="M95.0271 800.829C89.1254 800.417 83.1997 801.147 77.5742 802.978C77.5742 802.978 77.5742 803.267 77.5742 803.235C83.3134 802.251 89.1118 801.651 94.9309 801.438C95.348 801.438 95.4442 800.861 95.0271 800.829Z" fill="white"/>
<path d="M42.6683 732.172C39.9762 731.952 37.2666 732.103 34.6156 732.621C34.3268 732.621 34.4231 733.134 34.6156 733.102C37.2784 732.814 39.8771 732.91 42.5079 732.846C42.5896 732.849 42.6699 732.824 42.7351 732.774C42.8003 732.725 42.8463 732.654 42.8652 732.575C42.8842 732.495 42.8749 732.412 42.839 732.338C42.803 732.265 42.7427 732.206 42.6683 732.172Z" fill="white"/>
<path d="M0.640137 1047.42L244.5 1046.65L488.36 1046.36L976.08 1045.81L1463.8 1046.36L1707.66 1046.65L1951.52 1047.42L1707.66 1048.22L1463.8 1048.47L976.08 1049.02L488.36 1048.47L244.5 1048.19L0.640137 1047.42Z" fill="#263238"/>
<path d="M982.496 1286.53C1490.56 1286.53 1902.43 1241.4 1902.43 1185.72C1902.43 1130.05 1490.56 1084.92 982.496 1084.92C474.429 1084.92 62.5596 1130.05 62.5596 1185.72C62.5596 1241.4 474.429 1286.53 982.496 1286.53Z" fill="#EBEBEB"/>
<path d="M768.345 1169.04C760.87 1171.58 546.526 1172.25 538.312 1167.18C535.104 1165.26 533.275 1134.04 531.896 1096.25C531.607 1088.1 531.383 1079.66 531.19 1071.12L514.09 956.782L657.403 955.852L670.91 1070.23L670.364 1095.38C670.364 1095.38 752.56 1131.79 760.966 1138.4C769.371 1145.01 775.82 1166.51 768.345 1169.04Z" fill="#EB9481"/>
<path d="M768.345 1169.04C760.869 1171.58 546.526 1172.25 538.312 1167.18C534.527 1164.81 532.473 1119.22 531.318 1071.12L670.749 1070.23L670.204 1095.38C670.204 1095.38 752.4 1131.79 760.805 1138.4C769.211 1145.01 775.82 1166.51 768.345 1169.04Z" fill="white"/>
<path d="M768.345 1169.04C760.87 1171.58 546.526 1172.25 538.313 1167.18C535.104 1165.26 533.276 1134.04 531.896 1096.25L670.076 1095.38C670.076 1095.38 752.271 1131.79 760.677 1138.4C769.083 1145.01 775.82 1166.51 768.345 1169.04Z" fill="#A6A6A6"/>
<path d="M765.233 1160.48C729.3 1159.71 584.287 1160.06 548.707 1162.05C548.419 1162.05 548.419 1162.24 548.707 1162.27C584.319 1163.78 729.332 1162.27 765.233 1161.05C766.003 1161.02 766.003 1160.48 765.233 1160.48Z" fill="#263238"/>
<path d="M746.978 1130.73C742.982 1130.64 739.011 1131.39 735.317 1132.91C731.622 1134.43 728.284 1136.71 725.515 1139.59C720.467 1144.73 717.614 1151.63 717.558 1158.84C717.558 1159.06 717.943 1159.06 717.975 1158.84C719.168 1151.74 722.625 1145.22 727.828 1140.25C733.032 1135.27 739.704 1132.12 746.849 1131.25C746.918 1131.26 746.99 1131.25 747.05 1131.22C747.11 1131.18 747.153 1131.12 747.17 1131.06C747.187 1130.99 747.177 1130.92 747.141 1130.85C747.104 1130.79 747.046 1130.75 746.978 1130.73Z" fill="#263238"/>
<path d="M684.128 1098.91C669.755 1098.75 653.104 1103.88 644.185 1115.69C643.864 1116.14 644.506 1116.62 644.923 1116.39C657.481 1109.77 670.709 1104.5 684.385 1100.67C684.596 1100.62 684.779 1100.48 684.899 1100.3C685.019 1100.12 685.068 1099.89 685.037 1099.68C685.005 1099.46 684.895 1099.26 684.728 1099.12C684.561 1098.98 684.347 1098.9 684.128 1098.91Z" fill="#263238"/>
<path d="M695.293 1103.18C680.888 1103.18 664.237 1108.18 655.35 1119.95C654.997 1120.44 655.639 1120.92 656.088 1120.69C668.627 1114.04 681.847 1108.76 695.517 1104.94C695.726 1104.88 695.907 1104.75 696.027 1104.57C696.147 1104.39 696.198 1104.17 696.171 1103.96C696.144 1103.75 696.04 1103.55 695.878 1103.4C695.717 1103.26 695.509 1103.18 695.293 1103.18Z" fill="#263238"/>
<path d="M706.393 1107.47C692.02 1107.47 675.37 1112.45 666.451 1124.25C666.13 1124.7 666.771 1125.18 667.188 1124.96C679.746 1118.33 692.975 1113.06 706.65 1109.24C706.861 1109.18 707.045 1109.05 707.165 1108.86C707.285 1108.68 707.333 1108.46 707.302 1108.24C707.27 1108.03 707.161 1107.83 706.993 1107.69C706.826 1107.55 706.613 1107.47 706.393 1107.47Z" fill="#263238"/>
<path d="M717.526 1111.77C703.121 1111.61 686.47 1116.75 677.583 1128.55C677.23 1129 677.904 1129.48 678.321 1129.26C690.876 1122.63 704.105 1117.35 717.782 1113.54C717.994 1113.48 718.177 1113.35 718.297 1113.16C718.417 1112.98 718.466 1112.76 718.434 1112.54C718.403 1112.33 718.293 1112.13 718.126 1111.99C717.958 1111.84 717.745 1111.77 717.526 1111.77Z" fill="#263238"/>
<path d="M557.755 1127.88C541.713 1127.88 541.713 1153.06 557.755 1152.97C573.796 1152.87 573.924 1127.78 557.755 1127.88Z" fill="#263238"/>
<path d="M699.56 1060.47C692.277 1054.44 683.101 1060.47 678.642 1066.67C671.219 1077.61 666.794 1090.31 665.809 1103.5C665.809 1103.78 666.033 1103.91 666.258 1103.91C666.315 1104.18 666.436 1104.44 666.612 1104.65C666.787 1104.87 667.012 1105.04 667.266 1105.15C667.521 1105.26 667.798 1105.31 668.075 1105.29C668.352 1105.27 668.62 1105.18 668.857 1105.04C679.059 1097.95 690.865 1091.59 698.597 1081.55C702.993 1075.71 706.586 1066.09 699.56 1060.47ZM682.043 1091.08C677.102 1094.71 672.001 1098.07 667.188 1101.89C669.755 1094.71 671.969 1087.45 675.241 1080.52C676.753 1077.2 678.489 1073.99 680.438 1070.9C683.647 1066.12 697.635 1054.06 699.111 1069.68C699.945 1078.25 687.914 1086.78 682.043 1091.08Z" fill="#263238"/>
<path d="M630.005 1108.95C642.517 1110.81 655.446 1107.22 667.734 1105.26C668.001 1105.19 668.247 1105.06 668.454 1104.88C668.661 1104.7 668.823 1104.47 668.926 1104.21C669.029 1103.96 669.07 1103.68 669.047 1103.41C669.024 1103.13 668.937 1102.87 668.793 1102.63C668.839 1102.59 668.877 1102.55 668.903 1102.5C668.929 1102.44 668.942 1102.38 668.942 1102.33C668.942 1102.27 668.929 1102.21 668.903 1102.16C668.877 1102.1 668.839 1102.06 668.793 1102.02C658.919 1093.22 646.903 1087.16 633.951 1084.47C626.379 1083.03 615.664 1085.11 614.701 1094.51C613.546 1103.37 622.69 1107.8 630.005 1108.95ZM621.278 1100.8C611.653 1088.48 630.037 1087.42 635.555 1088.71C639.135 1089.6 642.651 1090.74 646.078 1092.11C653.095 1095.02 659.959 1098.28 666.643 1101.89C660.547 1102.5 654.548 1103.59 648.484 1104.43C641.234 1105.39 626.668 1107.57 621.278 1100.8Z" fill="#263238"/>
<path d="M303.372 428.286C303.372 428.286 469.784 711.383 474.244 731.274C481.077 761.816 517.298 1063.42 517.298 1063.42L690.544 1060.22C690.544 1060.22 660.708 794.284 632.443 706.666C612.103 643.56 465.228 434.253 465.228 434.253L303.372 428.286Z" fill="#37474F"/>
<path d="M674.792 1033.78C649.928 1033.59 561.797 1032.59 528.688 1035.67C528.431 1035.67 528.463 1036.12 528.688 1036.16C540.077 1037.79 649.896 1035.26 674.76 1034.45C674.812 1034.47 674.867 1034.48 674.922 1034.47C674.977 1034.47 675.03 1034.45 675.076 1034.42C675.122 1034.39 675.16 1034.34 675.187 1034.3C675.214 1034.25 675.23 1034.19 675.232 1034.14C675.235 1034.08 675.224 1034.03 675.202 1033.98C675.179 1033.93 675.145 1033.88 675.103 1033.85C675.06 1033.81 675.009 1033.79 674.955 1033.78C674.901 1033.77 674.845 1033.77 674.792 1033.78Z" fill="#263238"/>
<path d="M331.765 454.273C342.673 471.373 354.223 488.12 365.323 505.092C376.424 522.063 387.588 539.035 398.593 555.975C420.537 590.196 441.926 624.642 462.758 659.313C472.925 675.384 481.622 692.338 488.745 709.971C495.246 727.608 500.132 745.798 503.342 764.319C506.743 782.895 508.989 801.663 511.074 820.431C513.213 840.387 515.448 860.353 517.78 880.33C522.335 921.203 526.902 962.076 531.479 1002.95C532.024 1007.95 532.57 1012.96 533.083 1018C533.083 1018.73 531.832 1018.86 531.736 1018C526.634 977.412 522.4 936.667 517.78 896.082C515.47 875.827 513.17 855.583 510.882 835.35C508.732 816.517 506.679 797.653 503.76 778.949C501.08 760.486 497.005 742.254 491.568 724.408C485.578 705.93 477.55 688.175 467.635 671.472C447.583 636.855 426.344 602.847 405.106 568.808C383.867 534.768 362.051 500.44 339.657 466.817C336.898 462.678 334.107 458.54 331.219 454.465C330.995 454.241 331.572 453.952 331.765 454.273Z" fill="#263238"/>
<path d="M357.912 1185.72C350.02 1185.24 146.167 1102.66 140.52 1094.83C140.269 1094.37 140.157 1093.85 140.199 1093.33C140.199 1086.3 154.348 1061.79 166.154 1029.58C166.892 1027.52 172.154 1017.96 179.436 1005.1C199.681 969.84 234.971 909.108 234.971 909.108L368.21 962.044L304.43 1057.49L294.517 1080.59C294.517 1080.59 357.046 1145.24 362.307 1154.38C367.569 1163.52 365.772 1186.17 357.912 1185.72Z" fill="#EB9481"/>
<path d="M357.912 1185.72C350.02 1185.24 146.167 1102.66 140.52 1094.83C140.269 1094.37 140.157 1093.85 140.199 1093.33C140.199 1086.3 154.348 1061.79 166.154 1029.58C166.892 1027.52 172.154 1017.96 179.436 1005.1L304.559 1057.49L294.645 1080.59C294.645 1080.59 357.174 1145.24 362.436 1154.38C367.697 1163.52 365.772 1186.17 357.912 1185.72Z" fill="white"/>
<path d="M357.912 1185.72C350.02 1185.24 146.167 1102.66 140.52 1094.83C138.339 1091.85 147.45 1064.03 166.186 1029.58L294.517 1080.62C294.517 1080.62 357.046 1145.2 362.339 1154.41C367.633 1163.62 365.772 1186.17 357.912 1185.72Z" fill="#A6A6A6"/>
<path d="M358.233 1176.61C325.22 1162.43 190.665 1108.34 156.947 1096.86C156.658 1096.86 156.594 1096.86 156.947 1097.05C189.382 1111.81 324.354 1164.81 358.105 1177.25C358.746 1177.41 358.939 1176.9 358.233 1176.61Z" fill="#263238"/>
<path d="M352.458 1142.19C348.797 1140.58 344.842 1139.75 340.844 1139.75C336.846 1139.75 332.891 1140.58 329.23 1142.19C322.648 1145.07 317.431 1150.38 314.665 1157.01C314.665 1157.2 314.953 1157.36 315.05 1157.17C318.832 1151.02 324.506 1146.26 331.221 1143.6C337.936 1140.95 345.331 1140.54 352.297 1142.44C352.351 1142.43 352.398 1142.39 352.427 1142.35C352.457 1142.3 352.468 1142.24 352.458 1142.19Z" fill="#263238"/>
<path d="M306.163 1089.12C292.913 1083.57 275.524 1082.1 262.851 1089.7C262.37 1089.99 262.851 1090.66 263.268 1090.63C277.395 1089.2 291.635 1089.27 305.746 1090.86C305.963 1090.88 306.181 1090.82 306.36 1090.7C306.538 1090.57 306.665 1090.39 306.716 1090.17C306.767 1089.96 306.739 1089.74 306.637 1089.54C306.535 1089.35 306.367 1089.2 306.163 1089.12Z" fill="#263238"/>
<path d="M314.857 1097.27C301.607 1091.72 284.218 1090.25 271.546 1097.85C271.064 1098.14 271.546 1098.81 271.963 1098.78C286.089 1097.33 300.33 1097.41 314.44 1099C314.657 1099.03 314.876 1098.97 315.054 1098.85C315.233 1098.72 315.36 1098.53 315.411 1098.32C315.462 1098.11 315.434 1097.89 315.332 1097.69C315.23 1097.5 315.061 1097.35 314.857 1097.27Z" fill="#263238"/>
<path d="M323.584 1105.42C310.301 1099.87 292.913 1098.4 280.272 1106C279.759 1106.29 280.272 1106.96 280.657 1106.93C294.783 1105.48 309.024 1105.56 323.134 1107.15C323.356 1107.19 323.583 1107.14 323.772 1107.02C323.96 1106.9 324.096 1106.71 324.153 1106.49C324.209 1106.28 324.182 1106.04 324.077 1105.85C323.971 1105.65 323.795 1105.5 323.584 1105.42Z" fill="#263238"/>
<path d="M332.278 1113.57C318.996 1108.02 301.639 1106.54 288.966 1114.12C288.453 1114.44 288.966 1115.11 289.351 1115.08C303.478 1113.63 317.719 1113.7 331.829 1115.3C332.05 1115.34 332.278 1115.29 332.466 1115.17C332.655 1115.05 332.791 1114.86 332.847 1114.64C332.903 1114.42 332.876 1114.19 332.771 1114C332.666 1113.8 332.49 1113.65 332.278 1113.57Z" fill="#263238"/>
<path d="M178.121 1068.56C163.139 1062.59 153.835 1085.91 168.881 1091.88C183.928 1097.85 193.264 1074.53 178.121 1068.56Z" fill="#263238"/>
<path d="M334.877 1059.29C330.353 1050.98 319.669 1053.03 313.157 1057.17C302.186 1064.52 293.336 1074.62 287.491 1086.46C287.465 1086.51 287.451 1086.57 287.451 1086.63C287.45 1086.69 287.463 1086.74 287.487 1086.79C287.512 1086.85 287.548 1086.89 287.593 1086.93C287.638 1086.97 287.691 1086.99 287.747 1087.01C287.747 1088.06 288.453 1089.32 289.704 1089.06C301.864 1086.27 315.178 1084.82 326.086 1078.41C332.342 1074.69 339.144 1067.15 334.877 1059.29ZM307.125 1081.07C301.19 1082.58 295.223 1083.8 289.351 1085.53C294.208 1079.68 299.358 1074.08 304.783 1068.75C307.454 1066.21 310.294 1063.85 313.285 1061.69C317.937 1058.48 335.518 1052.55 331.027 1067.6C328.556 1075.91 314.215 1079.27 307.125 1081.07Z" fill="#263238"/>
<path d="M252.2 1078.12C263.108 1084.54 276.422 1086.04 288.549 1088.87C289.801 1089.16 290.635 1087.9 290.539 1086.81C290.599 1086.81 290.656 1086.78 290.706 1086.75C290.755 1086.71 290.794 1086.67 290.82 1086.61C290.846 1086.56 290.857 1086.5 290.853 1086.44C290.848 1086.38 290.829 1086.32 290.795 1086.27C284.96 1074.4 276.109 1064.28 265.129 1056.91C258.713 1052.74 247.965 1050.66 243.409 1058.93C238.853 1067.21 245.815 1074.37 252.2 1078.12ZM247.195 1067.27C242.735 1052.23 260.285 1058.2 264.937 1061.44C267.924 1063.6 270.754 1065.97 273.406 1068.53C278.821 1073.87 283.961 1079.48 288.806 1085.34C282.935 1083.61 276.968 1082.35 271.032 1080.85C263.846 1078.92 249.633 1075.71 247.195 1067.27Z" fill="#263238"/>
<path d="M314.793 1052.16L165.641 991.945C165.641 991.945 350.565 720.045 351.912 699.801C353.132 681.899 271.898 525.913 268.722 480.452C265.257 431.366 288.87 393.412 314.857 369.831L468.693 435.247C468.693 435.247 452.459 461.202 426.986 475.672C426.986 475.672 505.877 655.976 501.385 711.415C496.894 766.853 314.793 1052.16 314.793 1052.16Z" fill="#37474F"/>
<path d="M321.402 1023.8C299.842 1014.53 306.163 1016.87 284.475 1007.76C273.888 1003.33 204.268 974.364 193.553 971.958C193.328 971.958 193.168 972.278 193.392 972.407C202.664 978.085 272.861 1005.84 283.544 1010.07C305.393 1018.67 299.201 1015.97 321.145 1024.32C321.178 1024.36 321.222 1024.39 321.272 1024.42C321.321 1024.44 321.376 1024.45 321.431 1024.44C321.485 1024.44 321.538 1024.42 321.583 1024.39C321.628 1024.36 321.665 1024.32 321.689 1024.27C321.713 1024.22 321.725 1024.16 321.722 1024.11C321.72 1024.05 321.704 1024 321.675 1023.96C321.646 1023.91 321.606 1023.87 321.558 1023.84C321.51 1023.82 321.457 1023.8 321.402 1023.8Z" fill="#263238"/>
<path d="M452.203 472.368C436.187 476.101 420.517 481.188 405.362 487.575C405.301 487.596 405.245 487.629 405.196 487.671C405.148 487.714 405.109 487.766 405.08 487.824C405.052 487.882 405.035 487.946 405.031 488.01C405.028 488.075 405.036 488.139 405.057 488.2C405.078 488.261 405.111 488.318 405.154 488.366C405.197 488.414 405.249 488.454 405.307 488.482C405.365 488.511 405.428 488.527 405.493 488.531C405.557 488.535 405.622 488.526 405.683 488.505C421.404 483.917 437.381 479.618 452.844 474.196C454.032 473.779 453.422 472.111 452.203 472.368Z" fill="#263238"/>
<path d="M433.884 466.143C432.389 468.802 431.07 471.556 429.937 474.388C428.83 476.538 428.144 478.879 427.916 481.286C427.916 481.767 428.558 481.864 428.847 481.575C430.456 479.65 431.755 477.485 432.697 475.158C434.012 472.624 435.359 470.121 436.611 467.523C437.477 465.63 434.878 464.411 433.884 466.143Z" fill="#263238"/>
<path d="M435.809 451.578C436.771 449.204 437.702 446.862 438.696 444.488C439.691 442.113 440.942 439.675 441.904 437.173C441.904 436.788 442.674 437.173 442.514 437.461C441.551 439.836 440.942 442.338 440.204 444.776C439.466 447.215 438.632 449.653 437.83 452.091C436.322 456.615 434.622 461.106 432.536 465.502C435.061 465.628 437.582 465.189 439.915 464.218C442.299 462.693 444.131 460.444 445.145 457.802C446.492 455.171 447.743 452.476 449.123 449.845C450.821 447.001 452.25 444.004 453.39 440.894C453.39 440.509 454.16 440.894 453.999 441.183C451.908 447.759 449.167 454.11 445.818 460.144C444.375 462.486 443.252 464.956 440.621 465.855C437.773 466.651 434.793 466.858 431.862 466.464C431.477 466.464 431.028 466.464 431.157 465.887C432.47 461.043 434.023 456.268 435.809 451.578Z" fill="#263238"/>
<path d="M429.264 481.543C434.75 493.125 439.562 504.674 444.663 516.224C449.764 527.774 454.288 538.939 458.876 550.424C468.051 573.588 476.265 597.201 483.483 621.006C487.044 632.812 490.349 644.715 493.3 656.714C496.551 668.675 498.932 680.855 500.423 693.16C501.71 705.444 500.621 717.861 497.215 729.734C493.676 741.47 489.136 752.88 483.644 763.838C480.275 770.768 479.152 769.837 480.756 766.34C485.344 756.395 497.375 726.269 496.509 700.956C495.807 688.837 493.937 676.815 490.926 665.055C488.124 652.928 484.97 640.897 481.462 628.962C474.628 605.414 466.512 582.346 458.17 559.311C453.486 546.478 448.545 533.645 443.733 520.812C438.92 507.979 434.108 496.172 428.718 481.992C428.558 481.414 429.103 481.19 429.264 481.543Z" fill="#263238"/>
<path d="M316.044 443.268C318.707 442.274 322.461 443.91 325.156 444.359C328.646 444.952 332.172 445.305 335.711 445.418C339.212 445.541 342.717 445.423 346.202 445.065C349.711 444.975 353.151 444.063 356.244 442.402C361.319 438.705 365.669 434.105 369.077 428.831C373.138 423.443 376.491 417.556 379.054 411.314C379.054 410.929 379.728 411.314 379.6 411.571C378.477 415.132 377.643 418.725 376.392 422.222C375.008 425.508 373.356 428.673 371.451 431.687C368.362 437.75 363.794 442.936 358.169 446.766C351.977 450.295 344.02 449.974 337.122 449.685C333.122 449.452 329.144 448.926 325.22 448.113C322.397 447.503 317.648 447.054 315.852 444.584C315.767 444.489 315.705 444.377 315.668 444.256C315.632 444.135 315.622 444.007 315.64 443.881C315.659 443.756 315.705 443.636 315.774 443.53C315.844 443.424 315.936 443.335 316.044 443.268Z" fill="#263238"/>
<path d="M208.215 963.424C232.726 926.293 256.788 888.864 280.4 851.134C304.013 813.405 327.305 775.387 350.276 737.081C355.762 727.937 362.083 718.826 365.612 708.688C369.462 697.683 367.28 687 363.815 676.22C357.272 656.555 349.625 637.274 340.908 618.471C332.31 599.511 323.038 580.871 313.927 562.166C304.815 543.462 295.287 524.983 288.261 505.476C281.844 486.836 279.245 467.523 284.25 448.209C289.255 428.895 300.035 411.827 311.296 395.754C314.248 391.519 317.295 387.316 320.279 382.921C320.504 382.6 320.985 382.921 320.76 383.306C308.344 400.053 296.249 417.795 288.966 437.461C285.244 447.155 283.162 457.401 282.807 467.779C282.746 478.314 284.382 488.789 287.651 498.803C293.683 518.309 303.211 536.757 312.098 555.108C320.985 573.459 330.481 592.452 339.24 611.349C348.276 630.368 356.307 649.847 363.302 669.707C366.286 678.53 369.718 687.77 369.462 697.234C369.237 707.597 364.296 716.933 359.163 725.659C336.705 763.677 313.702 801.246 290.282 838.59C266.862 875.934 242.768 913.278 218.385 950.238L209.145 964.193C208.664 964.771 207.83 964.097 208.215 963.424Z" fill="#263238"/>
<path d="M477.227 262.322C491.119 292.801 561.284 334.797 594.136 339.321C617.749 342.529 689.55 343.684 714.157 339.93C743.031 335.503 720.959 257.702 703.923 259.724C657.082 265.178 617.3 271.273 604.788 271.273C589.516 271.273 506.904 244.773 496.958 241.02C472.575 231.94 469.367 245.03 477.227 262.322Z" fill="#EB9481"/>
<path d="M477.676 270.439C495.257 296.458 553.68 339 553.68 339L561.797 321.034L588.65 261.617C588.65 261.617 534.976 244.773 499.653 237.073C495.496 236.127 491.268 235.526 487.012 235.277C464.458 234.058 462.501 247.981 477.676 270.439Z" fill="#8750F7"/>
<path d="M477.676 270.439C495.257 296.458 553.68 339 553.68 339L561.797 321.034C540.013 295.72 506.358 257.382 487.012 235.341C464.458 234.058 462.501 247.982 477.676 270.439Z" fill="#263238"/>
<path d="M543.157 326.937C547.616 315.996 567.443 271.947 572.384 262.771C572.705 262.13 573.218 262.194 572.93 262.771C564.329 284.677 554.54 306.097 543.606 326.937C543.478 327.322 542.964 327.193 543.157 326.937Z" fill="#263238"/>
<path d="M695.325 260.526C723.814 256.804 759.073 250.42 788.942 263.093C792.297 264.409 795.111 266.816 796.93 269.926C810.405 275.38 811.881 283.369 811.881 283.369C822.885 292.288 823.27 300.693 823.27 300.693C823.27 300.693 839.055 307.11 836.649 317.441C834.018 328.862 812.394 317.441 796.674 318.371C760.581 320.617 710.051 333.867 699.624 335.535L695.325 260.526Z" fill="#EB9481"/>
<path d="M757.212 294.149C767.766 293.427 778.356 293.427 788.91 294.149C800.403 295.591 811.771 297.896 822.917 301.046C822.99 301.072 823.069 301.068 823.138 301.035C823.208 301.001 823.261 300.942 823.286 300.87C823.312 300.798 823.308 300.718 823.274 300.649C823.241 300.58 823.182 300.526 823.11 300.501C802.169 292.285 779.375 289.977 757.212 293.828C756.699 293.764 756.699 294.181 757.212 294.149Z" fill="#263238"/>
<path d="M750.507 260.814C768.12 261.713 779.125 264.536 796.834 269.862V269.669C777.328 261.52 769.339 260.75 750.411 260.044C749.801 260.301 749.833 260.814 750.507 260.814Z" fill="#263238"/>
<path d="M753.362 323.825C748.774 325.974 749.897 328.38 758.656 330.402C767.414 332.423 803.828 333.032 802.545 345.737C801.262 358.442 749.897 356.838 735.556 352.346C721.215 347.855 699.624 335.535 699.624 335.535C709.794 333.834 733.663 327.386 753.362 323.825Z" fill="#EB9481"/>
<path d="M515.373 310.895C515.149 316.382 514.635 321.964 513.865 327.514C513.865 327.29 513.865 327.097 514.09 326.905C515.149 324.017 516.208 321.066 517.491 318.274C517.491 318.274 517.812 318.274 517.78 318.274C517.163 321.333 516.239 324.321 515.02 327.193C514.443 328.573 513.898 329.92 513.288 331.268C512.903 333.738 512.454 336.176 511.973 338.615C511.01 343.203 506.679 362.709 505.556 366.013C505.364 366.687 504.529 366.527 504.594 365.757C504.818 362.163 508.444 341.855 509.181 337.235C510.615 328.315 512.532 319.479 514.924 310.767C515.085 310.607 515.405 310.735 515.373 310.895Z" fill="#263238"/>
<path d="M482.007 456.775C473.441 461.171 462.405 468.004 412.677 458.219C409.469 457.577 406.453 456.807 403.309 455.877C356.693 441.889 300.645 387.06 297.597 383.178C297.597 383.178 371.675 263.093 466.415 225.331C478.125 220.679 497.503 229.662 508.123 240.859C511.941 244.87 520.25 274.354 517.074 298.223C513.898 322.092 490.541 452.38 482.007 456.775Z" fill="#8750F7"/>
<path d="M475.334 297.132C475.692 302.207 474.982 307.3 473.249 312.083C472.842 307.007 473.554 301.903 475.334 297.132Z" fill="white"/>
<path d="M443.027 378.911C443.231 381.436 443.145 383.976 442.771 386.482C442.462 389.007 441.848 391.485 440.942 393.861C440.721 391.326 440.807 388.773 441.198 386.258C441.527 383.747 442.14 381.282 443.027 378.911Z" fill="white"/>
<path d="M388.134 317.087C388.495 322.173 387.785 327.277 386.048 332.07C385.645 326.984 386.357 321.87 388.134 317.087Z" fill="white"/>
<path d="M496.477 374.74C496.682 377.276 496.595 379.827 496.22 382.343C495.911 384.868 495.297 387.346 494.391 389.722C494.17 387.187 494.257 384.634 494.648 382.119C494.972 379.597 495.586 377.121 496.477 374.74Z" fill="white"/>
<path d="M425.991 306.5C428.515 306.285 431.056 306.361 433.563 306.725C436.088 307.045 438.566 307.67 440.942 308.586C435.867 308.95 430.772 308.239 425.991 306.5Z" fill="white"/>
<path d="M363.687 365.564C368.761 365.206 373.854 365.917 378.637 367.65C373.561 368.056 368.458 367.345 363.687 365.564Z" fill="white"/>
<path d="M437.092 429.505C442.167 429.141 447.261 429.851 452.042 431.59C446.966 431.991 441.864 431.279 437.092 429.505Z" fill="white"/>
<path d="M344.469 406.277C349.544 405.919 354.637 406.63 359.42 408.362C354.344 408.763 349.242 408.051 344.469 406.277Z" fill="white"/>
<path d="M474.853 239.64C479.928 239.282 485.021 239.993 489.803 241.725C484.729 242.083 479.636 241.373 474.853 239.64Z" fill="white"/>
<path d="M456.726 260.109C455.105 262.059 453.252 263.804 451.208 265.306C449.22 266.844 447.068 268.156 444.792 269.22C446.403 267.283 448.233 265.539 450.246 264.023C452.253 262.48 454.427 261.167 456.726 260.109Z" fill="white"/>
<path d="M357.944 318.274C356.302 320.207 354.439 321.941 352.394 323.44C350.426 325.006 348.271 326.321 345.977 327.354C347.628 325.429 349.49 323.697 351.528 322.188C353.5 320.629 355.655 319.315 357.944 318.274Z" fill="white"/>
<path d="M481.302 344.518C479.661 346.461 477.798 348.205 475.751 349.715C473.779 351.275 471.624 352.589 469.335 353.63C470.976 351.687 472.839 349.942 474.885 348.432C476.869 346.888 479.021 345.575 481.302 344.518Z" fill="white"/>
<path d="M401.416 394.824C399.775 396.767 397.912 398.511 395.866 400.021C393.89 401.576 391.736 402.89 389.449 403.935C391.09 401.992 392.953 400.248 395 398.738C396.983 397.194 399.136 395.881 401.416 394.824Z" fill="white"/>
<path d="M511.908 275.797C510.267 277.74 508.405 279.485 506.358 280.995C504.37 282.532 502.218 283.845 499.942 284.909C501.583 282.966 503.446 281.222 505.492 279.711C507.468 278.156 509.622 276.842 511.908 275.797Z" fill="white"/>
<path d="M510.24 334.091C508.297 332.45 506.553 330.587 505.043 328.541C503.481 326.57 502.167 324.415 501.129 322.125C503.078 323.746 504.824 325.599 506.326 327.643C507.859 329.645 509.171 331.807 510.24 334.091Z" fill="white"/>
<path d="M332.182 374.259C330.239 372.618 328.495 370.755 326.984 368.709C325.44 366.725 324.127 364.572 323.07 362.292C325.013 363.933 326.757 365.796 328.268 367.842C329.823 369.818 331.137 371.972 332.182 374.259Z" fill="white"/>
<path d="M488.584 422.029C486.635 420.408 484.889 418.555 483.387 416.511C481.85 414.523 480.537 412.371 479.473 410.095C481.416 411.736 483.16 413.599 484.67 415.645C486.219 417.614 487.532 419.757 488.584 422.029Z" fill="white"/>
<path d="M410.207 285.839C408.264 284.209 406.52 282.357 405.009 280.321C403.478 278.328 402.166 276.177 401.095 273.904C403.045 275.526 404.79 277.379 406.293 279.423C407.823 281.415 409.136 283.566 410.207 285.839Z" fill="white"/>
<path d="M411.586 449.236C409.643 447.595 407.899 445.732 406.389 443.686C404.85 441.699 403.537 439.547 402.475 437.269C404.424 438.891 406.17 440.744 407.672 442.787C409.216 444.782 410.529 446.946 411.586 449.236Z" fill="white"/>
<path d="M424.9 352.859C422.976 351.209 421.243 349.347 419.735 347.309C418.169 345.341 416.854 343.186 415.821 340.893C417.754 342.534 419.487 344.397 420.986 346.443C422.546 348.415 423.86 350.57 424.9 352.859Z" fill="white"/>
<path d="M490.766 272.845C478.671 270.6 467.314 245.607 465.87 228.796C465.87 227.641 471.516 218.498 477.965 207.044C481.879 200.082 486.018 192.222 489.322 184.779C489.996 183.271 493.942 188.372 493.942 188.372L502.54 194.789L530.933 216.573C524.172 224.686 518.429 233.596 513.833 243.105C513.38 244.135 513.035 245.211 512.807 246.313C512.794 246.495 512.794 246.677 512.807 246.859C511.042 253.211 502.412 274.995 490.766 272.845Z" fill="#EB9481"/>
<path d="M512.807 246.474C512.794 246.655 512.794 246.837 512.807 247.019C511.121 246.525 509.479 245.892 507.898 245.126C476.81 230.561 490.509 188.917 490.509 188.917L502.701 194.949L531.094 216.733C524.333 224.846 518.59 233.757 513.994 243.265C513.485 244.289 513.087 245.365 512.807 246.474Z" fill="#263238"/>
<path d="M563.562 127.928C563.562 127.928 577.774 136.943 577.838 152.985C577.902 169.026 571.422 184.714 570.074 185.292C568.727 185.869 563.562 127.928 563.562 127.928Z" fill="#263238"/>
<path d="M493.044 136.27C484.51 153.113 484.959 206.21 495.61 219.877C511.074 239.704 540.847 246.538 558.845 226.935C576.266 207.942 574.47 138.772 562.054 125.875C543.991 106.818 505.684 111.342 493.044 136.27Z" fill="#EB9481"/>
<path d="M538.345 178.779C538.345 178.779 538.056 178.972 538.088 179.1C538.28 182.725 537.895 186.896 534.655 188.18C534.655 188.18 534.655 188.404 534.655 188.372C538.665 187.73 539.114 182.18 538.345 178.779Z" fill="#263238"/>
<path d="M535.04 175.09C529.201 174.769 529.009 186.447 534.431 186.736C539.852 187.025 539.917 175.347 535.04 175.09Z" fill="#263238"/>
<path d="M558.139 178.651C558.139 178.651 558.428 178.651 558.428 178.972C558.236 182.597 558.653 186.768 561.925 188.019C561.925 188.019 561.925 188.244 561.925 188.212C557.883 187.602 557.402 182.052 558.139 178.651Z" fill="#263238"/>
<path d="M561.444 174.93C567.251 174.577 567.54 186.255 562.15 186.576C556.76 186.897 556.568 175.218 561.444 174.93Z" fill="#263238"/>
<path d="M531.383 166.203C532.916 165.767 534.425 165.253 535.906 164.663C537.591 164.358 539.127 163.5 540.27 162.225C540.547 161.758 540.663 161.213 540.599 160.673C540.535 160.134 540.295 159.631 539.917 159.241C539.048 158.581 538.02 158.165 536.937 158.035C535.854 157.905 534.756 158.067 533.757 158.503C531.592 159.083 529.718 160.443 528.495 162.321C528.251 162.768 528.14 163.276 528.176 163.783C528.211 164.291 528.392 164.779 528.695 165.187C528.999 165.596 529.414 165.909 529.89 166.089C530.367 166.269 530.884 166.309 531.383 166.203Z" fill="#263238"/>
<path d="M565.422 171.368C563.862 171.019 562.32 170.591 560.802 170.085C559.112 169.861 557.543 169.082 556.343 167.871C556.034 167.425 555.885 166.887 555.92 166.346C555.954 165.804 556.172 165.29 556.535 164.887C557.363 164.18 558.366 163.708 559.438 163.522C560.511 163.336 561.614 163.442 562.631 163.829C564.826 164.283 566.771 165.542 568.085 167.358C568.36 167.787 568.504 168.288 568.5 168.798C568.496 169.308 568.343 169.806 568.061 170.231C567.779 170.656 567.379 170.989 566.911 171.191C566.442 171.393 565.925 171.455 565.422 171.368Z" fill="#263238"/>
<path d="M530.131 213.076C530.998 213.942 531.832 215.097 533.147 215.225C534.496 215.225 535.829 214.94 537.061 214.391C537.061 214.391 537.286 214.391 537.061 214.584C536.536 215.289 535.828 215.838 535.014 216.171C534.2 216.505 533.311 216.61 532.441 216.477C531.708 216.277 531.05 215.866 530.548 215.296C530.047 214.726 529.723 214.021 529.618 213.268C529.592 213.2 529.595 213.125 529.625 213.059C529.655 212.992 529.71 212.941 529.778 212.915C529.847 212.89 529.922 212.892 529.988 212.923C530.054 212.953 530.106 213.008 530.131 213.076Z" fill="#263238"/>
<path d="M551.113 197.612C551.113 197.612 551.274 203.002 551.113 205.536C546.184 205.013 541.205 205.186 536.323 206.05C535.168 206.306 535.297 205.376 536.612 204.766C540.544 202.969 544.924 202.388 549.188 203.098C549.445 202.424 548.771 194.757 549.188 194.789C551.129 195.17 553.008 195.817 554.771 196.714C554.771 185.42 552.974 174.256 553.135 162.963C553.135 162.578 553.744 162.514 553.808 162.963C556.088 174.909 557.163 187.055 557.017 199.216C557.049 200.596 552.076 198.125 551.113 197.612Z" fill="#263238"/>
<path d="M543.895 203.611C542.616 206.975 540.243 209.811 537.158 211.664C532.313 213.621 530.741 209.226 535.618 205.247C538.175 203.955 541.038 203.389 543.895 203.611Z" fill="#263238"/>
<path d="M538.858 210.669C538.346 211.086 537.772 211.422 537.158 211.664C532.698 213.461 530.933 209.899 534.527 206.306C536.965 206.499 539.756 207.397 538.858 210.669Z" fill="#FF99BA"/>
<path d="M490.606 181.667C496.477 183.463 503.214 165.818 505.139 159.209C506.807 153.242 508.732 134.281 509.021 132.965C509.31 131.65 534.687 149.745 549.381 145.446C564.075 141.146 574.052 127.832 574.277 121.64C574.502 115.448 556.118 99.7278 540.237 98.9258C524.356 98.1237 502.829 118.175 502.829 118.175C505.429 115.224 507.79 112.07 509.887 108.743C509.631 108.037 499.364 112.144 497.471 119.459C497.471 119.459 499.525 110.251 498.755 110.091C497.985 109.93 489.996 117.79 491.793 123.758C491.793 123.758 482.553 131.746 481.719 140.505C480.885 149.263 483.708 179.549 490.606 181.667Z" fill="#263238"/>
<path d="M559.904 142.109C555.534 144.478 550.828 146.166 545.948 147.114C540.471 147.602 534.958 146.72 529.907 144.547C524.818 142.581 520.091 139.784 515.919 136.27C512.229 133.254 508.925 129.565 504.979 126.87C503.984 126.164 502.861 127.608 503.471 128.506C510.055 137.805 519.46 144.735 530.292 148.269C535.323 149.909 540.693 150.216 545.878 149.158C551.063 148.101 555.885 145.716 559.872 142.237C559.872 142.237 559.968 142.109 559.904 142.109Z" fill="#263238"/>
<path d="M496.733 180.095C496.733 180.095 487.622 161.615 479.409 164.599C471.196 167.583 476.201 193.152 484.638 197.837C485.672 198.505 486.83 198.958 488.043 199.169C489.256 199.379 490.498 199.342 491.697 199.061C492.895 198.779 494.024 198.258 495.017 197.53C496.009 196.801 496.844 195.88 497.471 194.821L496.733 180.095Z" fill="#EB9481"/>
<path d="M481.045 171.882C481.045 171.882 480.853 171.882 481.045 172.139C486.884 175.603 489.258 181.763 490.67 188.18C490.404 187.501 489.994 186.887 489.468 186.382C488.942 185.877 488.312 185.492 487.622 185.254C486.933 185.016 486.2 184.931 485.474 185.004C484.749 185.077 484.047 185.307 483.419 185.677C483.227 185.677 483.419 186.03 483.419 186.03C484.567 185.852 485.742 186.034 486.782 186.551C487.822 187.068 488.676 187.895 489.226 188.918C490.144 190.631 490.876 192.438 491.408 194.308C491.6 194.917 492.659 194.757 492.563 194.083C493.942 186.094 489.451 173.999 481.045 171.882Z" fill="#263238"/>
<path d="M436.578 262.611C430.162 298.961 469.559 421.42 494.808 444.295C532.377 478.303 601.836 500.664 627.021 507.947C637.993 511.155 668.343 433.932 657.243 428.831C633.469 418.02 559.615 394.92 552.589 389.145C545.563 383.37 503.214 322.189 484.349 286.962C459.1 239.544 439.755 244.228 436.578 262.611Z" fill="#EB9481"/>
<path d="M638.539 422.03C638.539 422.03 671.327 430.403 692.469 436.852C704.276 440.477 723.974 448.466 731.45 455.075C742.614 464.988 782.974 513.497 771.425 523.539C760.966 532.651 731.578 486.548 731.578 486.548C731.578 486.548 765.329 530.437 750.828 539.067C736.326 547.697 709.794 491.2 709.794 491.2C709.794 491.2 743.449 537.078 726.99 543.591C714.542 548.499 687.849 498.675 687.849 498.675C687.849 498.675 716.531 538.297 703.891 543.912C689.967 550.136 662.472 505.669 662.472 505.669C628.08 514.556 607.932 504.707 594.682 496.044C591.57 493.927 638.539 422.03 638.539 422.03Z" fill="#EB9481"/>
<path d="M720.863 470.603C725.033 475.608 729.268 480.677 732.958 486.035C736.647 491.392 740.144 496.911 743.32 502.589C747.624 509.934 751.068 517.75 753.587 525.881C748.069 511.765 735.139 492.355 731.45 486.997C727.76 481.639 724.327 476.089 720.67 470.731C720.574 470.603 720.766 470.475 720.863 470.603Z" fill="#263238"/>
<path d="M701.26 483.596C708.382 489.243 723.301 510.225 729.044 524.309C729.3 524.886 729.044 524.854 728.627 524.309C724.135 517.347 705.912 490.398 701.1 483.692C701.004 483.596 701.164 483.5 701.26 483.596Z" fill="#263238"/>
<path d="M682.427 491.81C691.277 501.092 698.268 511.982 703.025 523.892C703.249 524.47 702.8 524.373 702.447 523.892C695.806 513.08 690.673 504.643 682.075 492.098C681.946 491.81 682.235 491.521 682.427 491.81Z" fill="#263238"/>
<path d="M472.383 265.274C443.091 223.855 425.574 239.191 431.445 284.171C436.964 326.231 451.69 376.344 451.69 376.344L525.48 340.54C525.48 340.54 491.023 291.806 472.383 265.274Z" fill="#8750F7"/>
<path d="M490.189 281.572C491.161 283.912 491.861 286.355 492.274 288.855C492.725 291.363 492.886 293.914 492.755 296.459C491.793 294.107 491.104 291.653 490.702 289.144C490.225 286.65 490.052 284.108 490.189 281.572Z" fill="white"/>
<path d="M446.46 306.757C451.169 304.841 456.236 303.966 461.314 304.19C458.974 305.152 456.53 305.841 454.031 306.243C451.538 306.72 448.995 306.892 446.46 306.757Z" fill="white"/>
<path d="M448.353 242.335C446.366 247.024 443.402 251.235 439.658 254.687C441.645 249.998 444.609 245.787 448.353 242.335Z" fill="white"/>
<path d="M510.882 326.103C509.908 328.449 508.67 330.677 507.192 332.744C505.753 334.837 504.074 336.753 502.188 338.454C504.174 333.766 507.138 329.555 510.882 326.103Z" fill="white"/>
<path d="M459.55 351.223C457.198 350.261 454.968 349.022 452.908 347.534C450.815 346.096 448.898 344.416 447.198 342.529C451.886 344.516 456.097 347.48 459.55 351.223Z" fill="white"/>
<path d="M482.008 277.754C485.954 283.176 490.028 288.47 494.071 293.796C493.044 291.101 492.146 288.374 491.376 285.615H491.568C492.37 287.732 493.301 289.817 494.071 292.031L495.226 295.239C495.325 295.458 495.411 295.683 495.482 295.913C498.691 300.052 501.899 304.19 504.85 308.425C508.476 313.494 511.973 318.628 515.502 323.761C519.031 328.894 522.592 335.279 526.41 340.444C526.763 340.893 519.993 343.652 519.255 344.005C518.518 344.358 518.133 343.748 518.838 343.524C519.544 343.299 524.934 339.995 524.998 339.93C521.469 334.733 517.395 329.953 513.705 324.916C510.016 319.879 506.358 314.842 502.797 309.741C495.578 299.346 488.969 288.566 481.783 278.139L482.008 277.754Z" fill="#263238"/>
<path d="M433.178 313.943C434.301 316.125 435.52 318.275 436.386 320.52L437.605 323.312C435.905 315.323 434.397 307.27 432.632 299.282C436.033 312.115 439.466 325.237 442.61 338.262C445.594 350.71 449.219 363.286 450.952 375.991C453.189 375.01 455.507 374.226 457.881 373.649C455.499 375.191 452.934 376.43 450.246 377.339C446.378 364.419 443.166 351.313 440.621 338.07C439.819 334.476 439.081 330.883 438.311 327.29C437.477 325.108 436.482 323.023 435.488 320.873C434.493 318.724 433.595 316.318 432.697 314.04C432.889 313.911 433.114 313.783 433.178 313.943Z" fill="#263238"/>
<path d="M452.78 363.96C463.047 358.185 505.941 335.984 515.534 331.878C516.207 331.589 516.56 331.878 515.887 332.327C495.526 344.158 474.534 354.868 453.005 364.409C452.748 364.474 452.491 364.121 452.78 363.96Z" fill="#263238"/>
<path d="M1628.38 1207.41H650.891L792.214 405.828H1769.71L1628.38 1207.41Z" fill="#8750F7"/>
<path d="M1126.77 322.798H806.876L792.214 405.828H1134.57L1126.77 322.798Z" fill="#8750F7"/>
<g opacity="0.1">
<path d="M1628.38 1207.41H650.891L792.214 405.828H1769.71L1628.38 1207.41Z" fill="black"/>
<path d="M1126.77 322.798H806.876L792.214 405.828H1134.57L1126.77 322.798Z" fill="black"/>
</g>
<path d="M772.355 356.677C770.216 347.496 770.216 337.946 772.355 328.765C774.494 337.946 774.494 347.496 772.355 356.677Z" fill="#263238"/>
<path d="M743.93 364.89C740.664 361.503 737.849 357.707 735.557 353.597C733.152 349.573 731.266 345.261 729.942 340.764C733.218 344.132 736.034 347.918 738.316 352.025C740.715 356.063 742.601 360.385 743.93 364.89Z" fill="#263238"/>
<path d="M723.397 386.225C714.382 383.484 706.117 378.709 699.239 372.269C703.737 373.576 708.049 375.452 712.072 377.851C716.182 380.158 719.987 382.972 723.397 386.225Z" fill="#263238"/>
<path d="M716.211 414.971C707.03 417.11 697.48 417.11 688.299 414.971C697.48 412.832 707.03 412.832 716.211 414.971Z" fill="#263238"/>
<path d="M724.552 443.396C721.151 446.646 717.357 449.459 713.259 451.77C709.236 454.169 704.924 456.045 700.426 457.352C703.813 454.086 707.609 451.271 711.719 448.979C715.736 446.568 720.05 444.692 724.552 443.396Z" fill="#263238"/>
<path d="M745.855 463.897C743.124 472.926 738.348 481.203 731.899 488.087C733.206 483.584 735.093 479.27 737.514 475.254C739.801 471.13 742.604 467.313 745.855 463.897Z" fill="#263238"/>
<path d="M774.601 470.987C775.72 475.553 776.259 480.242 776.205 484.943C776.274 489.645 775.735 494.336 774.601 498.899C773.451 494.339 772.912 489.646 772.997 484.943C772.944 480.242 773.483 475.553 774.601 470.987Z" fill="#263238"/>
<path d="M803.026 462.935C806.293 466.322 809.108 470.118 811.4 474.228C813.811 478.245 815.687 482.559 816.982 487.061C810.533 480.177 805.758 471.899 803.026 462.871V462.935Z" fill="#263238"/>
<path d="M823.527 441.439C828.029 442.735 832.343 444.611 836.36 447.022C840.47 449.314 844.266 452.129 847.653 455.395C843.151 454.1 838.837 452.224 834.82 449.813C830.71 447.521 826.914 444.706 823.527 441.439Z" fill="#263238"/>
<path d="M830.617 412.693C839.809 410.555 849.369 410.555 858.561 412.693C849.369 414.832 839.809 414.832 830.617 412.693Z" fill="#263238"/>
<path d="M822.404 384.268C825.8 381.021 829.595 378.218 833.697 375.926C837.706 373.493 842.022 371.605 846.53 370.312C839.646 376.761 831.369 381.537 822.34 384.268H822.404Z" fill="#263238"/>
<path d="M801.069 363.767C802.39 359.274 804.265 354.963 806.652 350.934C808.944 346.824 811.758 343.028 815.025 339.641C813.73 344.143 811.853 348.457 809.443 352.474C807.151 356.584 804.336 360.38 801.069 363.767Z" fill="#263238"/>
<path d="M1626.94 1207.41H647.361L508.251 434.927H1487.86L1626.94 1207.41Z" fill="#8750F7"/>
<path d="M847.717 907.15C870.202 907.15 888.43 888.923 888.43 866.437C888.43 843.952 870.202 825.725 847.717 825.725C825.232 825.725 807.004 843.952 807.004 866.437C807.004 888.923 825.232 907.15 847.717 907.15Z" fill="#263238"/>
<path d="M1169.57 907.15C1192.06 907.15 1210.28 888.923 1210.28 866.437C1210.28 843.952 1192.06 825.725 1169.57 825.725C1147.08 825.725 1128.86 843.952 1128.86 866.437C1128.86 888.923 1147.08 907.15 1169.57 907.15Z" fill="#263238"/>
<path d="M1067.13 913.663L1064.88 909.396C1064.69 909.011 1043.65 870.127 1001.33 870.127C962.83 870.127 953.205 906.733 952.948 908.306L951.793 912.957L942.457 910.712L943.58 906.028C943.58 905.578 955.066 860.502 1001.33 860.502C1049.45 860.502 1072.46 903.108 1073.42 904.937L1075.66 909.172L1067.13 913.663Z" fill="#263238"/>
<path d="M1562.26 863.326L1561.59 860.117C1563.67 859.668 1565.73 859.187 1567.78 858.642L1568.58 861.85C1566.4 862.395 1564.38 862.876 1562.26 863.326Z" fill="#263238"/>
<path d="M1581 858.16L1579.97 855.145C1583.98 853.765 1587.99 852.257 1591.87 850.621L1593.12 853.573C1589.18 855.241 1585.1 856.781 1581 858.16ZM1604.9 847.926L1603.46 845.103C1607.21 843.146 1610.96 841.028 1614.52 838.686L1616.19 841.413C1612.53 843.948 1608.72 846.097 1604.9 847.926ZM1626.97 834.355L1625.08 831.756C1628.54 829.222 1631.88 826.559 1635.02 823.832L1637.14 826.238C1633.77 829.158 1630.57 831.885 1626.94 834.483L1626.97 834.355ZM1646.54 817.287L1644.2 815.074C1647.15 811.865 1649.94 808.657 1652.51 805.449L1655.04 807.406C1652.38 810.935 1649.53 814.239 1646.61 817.415L1646.54 817.287ZM1662.42 796.754L1659.7 795.054C1661.91 791.47 1663.89 787.74 1665.6 783.889L1668.55 785.205C1666.74 789.219 1664.68 793.119 1662.39 796.883L1662.42 796.754ZM1673.04 772.949L1669.83 772.051C1671.01 768.026 1671.87 763.918 1672.43 759.763L1675.64 760.18C1675.11 764.543 1674.23 768.855 1673.01 773.077L1673.04 772.949ZM1676.6 747.283H1673.4V746.353C1673.4 742.471 1673.17 738.524 1672.79 734.642L1675.99 734.322C1676.42 738.318 1676.63 742.334 1676.64 746.353L1676.6 747.283ZM1670.83 722.162C1669.97 718.026 1668.89 713.936 1667.62 709.907L1670.83 708.944C1672.14 713.115 1673.27 717.35 1674.04 721.489L1670.83 722.162ZM1663.23 698.004C1661.69 694.218 1660.02 690.336 1657.96 686.422L1660.85 684.978C1662.81 688.957 1664.6 692.935 1666.18 696.785L1663.23 698.004ZM1652 675.129C1650.01 671.632 1647.83 667.943 1645.58 664.157L1648.31 662.457C1650.65 666.274 1652.86 669.996 1654.72 673.557L1652 675.129ZM1638.59 653.345C1636.24 649.816 1633.87 646.255 1631.43 642.694L1634.09 640.897C1636.53 644.458 1638.91 648.019 1641.25 651.613L1638.59 653.345ZM1624.15 632.106C1621.74 628.577 1619.3 625.016 1616.93 621.487L1619.59 619.69C1621.97 623.22 1624.37 626.781 1626.78 630.278L1624.15 632.106ZM1609.81 610.739C1607.47 607.146 1605.19 603.489 1602.94 599.831L1605.67 598.163C1607.91 601.82 1610.19 605.414 1612.5 609.007L1609.81 610.739ZM1596.43 588.699C1594.25 584.817 1592.23 580.967 1590.4 577.277L1593.29 575.834C1595.08 579.491 1597.1 583.277 1599.22 587.127L1596.43 588.699ZM1585.04 565.599C1583.34 561.589 1581.83 557.514 1580.42 553.536L1583.63 552.509C1584.98 556.391 1586.48 560.402 1588.15 564.348L1585.04 565.599ZM1576.7 541.12C1575.64 536.949 1574.71 532.682 1574 528.287L1577.21 527.774C1577.92 531.88 1578.78 536.051 1579.84 540.158L1576.7 541.12ZM1572.4 515.454C1572.08 511.508 1571.92 507.53 1571.92 503.551V502.493H1575.13V503.519C1575.13 507.401 1575.13 511.315 1575.61 515.165L1572.4 515.454ZM1575.61 489.788L1572.4 489.467C1572.4 488.601 1572.56 487.703 1572.66 486.772C1573.04 483.339 1573.52 479.907 1574.1 476.634L1577.31 477.18C1576.76 480.388 1576.28 483.756 1575.9 487.125C1576.02 488.12 1576.02 488.986 1575.77 489.884L1575.61 489.788ZM1580.07 464.828L1576.86 463.961C1578.05 459.727 1579.43 455.588 1580.97 451.642L1583.95 452.797C1582.49 456.769 1581.25 460.817 1580.23 464.924L1580.07 464.828ZM1739.93 446.124C1738.14 446.124 1736.28 445.867 1734.45 445.61C1731.95 445.257 1729.44 444.84 1726.97 444.359L1727.61 441.151C1729.99 441.6 1732.46 442.017 1734.9 442.37C1736.63 442.594 1738.39 442.755 1740.1 442.851L1739.93 446.124ZM1753.12 445.129L1752.45 441.921C1756.47 441.089 1760.33 439.593 1763.87 437.493L1765.54 440.22C1761.76 442.559 1757.62 444.25 1753.28 445.225L1753.12 445.129ZM1589.31 441.311L1586.45 439.803C1588.49 435.977 1590.75 432.271 1593.22 428.703L1595.85 430.531C1593.51 434.025 1591.38 437.657 1589.47 441.407L1589.31 441.311ZM1714.43 441.119C1710.29 439.805 1706.22 438.273 1702.24 436.531L1703.55 433.579C1707.41 435.293 1711.36 436.782 1715.39 438.039L1714.43 441.119ZM1775.39 431.109L1772.72 429.312C1775.01 425.998 1776.36 422.131 1776.64 418.115L1779.85 418.34C1779.57 422.942 1778.07 427.386 1775.48 431.205L1775.39 431.109ZM1690.69 430.628C1686.93 428.445 1683.3 426.057 1679.81 423.473L1681.7 420.907C1685.1 423.412 1688.64 425.726 1692.29 427.836L1690.69 430.628ZM1603.74 420.618L1601.37 418.468C1604.27 415.238 1607.37 412.184 1610.64 409.325L1612.76 411.731C1609.61 414.547 1606.63 417.547 1603.84 420.714L1603.74 420.618ZM1669.8 415.196C1666.61 412.252 1663.58 409.136 1660.72 405.86L1663.13 403.742C1665.91 406.924 1668.85 409.955 1671.95 412.822L1669.8 415.196ZM1774.23 406.502C1772.39 402.835 1769.85 399.565 1766.76 396.877L1768.87 394.471C1772.28 397.419 1775.08 401.005 1777.12 405.026L1774.23 406.502ZM1622.74 403.967L1620.91 401.336C1624.5 398.886 1628.21 396.626 1632.04 394.567L1633.55 397.39C1629.86 399.427 1626.29 401.654 1622.83 404.063L1622.74 403.967ZM1652.7 395.626C1651.48 393.893 1650.3 392.129 1649.17 390.3L1645 391.936L1643.78 388.984L1647.47 387.509C1646.9 386.546 1646.32 385.584 1645.77 384.621L1648.56 383.049C1649.21 384.172 1649.85 385.295 1650.52 386.257C1652.32 385.616 1654.15 385.006 1656.01 384.429L1656.94 387.637C1655.36 388.118 1653.73 388.632 1652.25 389.177C1653.25 390.749 1654.27 392.385 1655.46 393.765L1652.7 395.626ZM1756.43 390.107C1753.32 388.56 1750.1 387.252 1746.8 386.193L1744.68 385.519L1745.61 382.311L1747.79 383.017C1751.23 384.113 1754.58 385.475 1757.8 387.092L1756.43 390.107ZM1669.22 384.365L1668.55 381.156C1672.69 380.226 1676.99 379.456 1681.38 378.846L1681.87 382.055C1677.63 382.728 1673.43 383.53 1669.32 384.461L1669.22 384.365ZM1732.43 382.632C1728.42 381.926 1724.18 381.381 1719.85 380.996L1720.11 377.788C1724.57 378.173 1728.9 378.718 1732.94 379.456L1732.43 382.632ZM1694.41 380.771L1694.18 377.563C1698 377.338 1701.82 377.21 1705.61 377.21H1707.18V380.418H1705.64C1702.01 380.515 1698.23 380.611 1694.51 380.868L1694.41 380.771ZM1640.19 373.104C1638.46 369.189 1636.98 365.115 1635.54 360.976L1638.75 359.982C1640.09 364.024 1641.6 368.002 1643.27 371.82L1640.19 373.104ZM1632.07 348.464C1631.11 344.325 1630.31 340.026 1629.7 335.631L1632.91 335.182C1633.52 339.417 1634.29 343.62 1635.22 347.694L1632.07 348.464ZM1628.48 322.798C1628.32 319.911 1628.22 316.959 1628.22 314.007C1628.22 312.628 1628.22 311.216 1628.22 309.837H1631.43C1631.43 311.216 1631.43 312.564 1631.43 313.943C1631.43 316.831 1631.43 319.75 1631.66 322.541L1628.48 322.798ZM1632.3 297.132L1629.09 296.811C1629.54 292.576 1630.15 288.245 1630.89 283.978L1634.09 284.523C1633.23 288.79 1632.62 292.897 1632.2 297.196L1632.3 297.132ZM1636.69 272.075L1633.48 271.305C1634.51 267.167 1635.7 262.996 1637.01 258.825L1640.22 259.82C1638.78 264.023 1637.59 268.097 1636.6 272.14L1636.69 272.075ZM1644.39 247.789L1641.41 246.634C1642.98 242.624 1644.62 238.613 1646.57 234.731L1649.46 236.143C1647.54 239.993 1645.84 243.907 1644.3 247.981L1644.39 247.789ZM1655.43 224.914L1652.64 223.278C1654.82 219.588 1657.16 215.899 1659.6 212.37L1662.23 214.198C1659.73 217.727 1657.45 221.321 1655.33 224.978L1655.43 224.914ZM1669.9 204.028L1667.4 202.007C1670.09 198.799 1672.98 195.398 1675.96 192.382L1678.27 194.596C1675.26 197.612 1672.43 200.82 1669.8 204.092L1669.9 204.028ZM1687.35 185.549L1685.2 183.175C1688.41 180.319 1691.62 177.496 1695.05 174.769L1697.04 177.303C1693.61 180.03 1690.33 182.822 1687.25 185.613L1687.35 185.549ZM1707.27 169.7L1705.45 167.037C1708.94 164.631 1712.6 162.257 1716.32 160.011L1717.96 162.738C1714.24 165.016 1710.77 167.358 1707.18 169.764L1707.27 169.7ZM1729.06 156.45L1727.55 153.626C1731.34 151.605 1735.25 149.68 1739.16 147.884L1740.51 150.803C1736.44 152.632 1732.68 154.557 1728.96 156.514L1729.06 156.45ZM1752.25 145.798L1751.07 142.783C1755.11 141.21 1759.18 139.574 1763.23 138.387L1764.25 141.595C1760.18 142.815 1756.14 144.29 1752.16 145.862L1752.25 145.798Z" fill="#263238"/>
<path d="M787.787 127.094C786.25 141.83 780.648 155.849 771.607 167.587C762.565 179.324 750.44 188.319 736.585 193.566C722.729 198.813 707.688 200.108 693.14 197.304C678.591 194.5 665.108 187.709 654.195 177.688L614.188 183.559L634.208 148.974C629.629 137.721 627.676 125.572 628.496 113.451C629.316 101.33 632.888 89.5549 638.939 79.0206C644.991 68.4863 653.364 59.4697 663.423 52.6558C673.481 45.8418 684.96 41.4098 696.987 39.6962C709.015 37.9827 721.274 39.0327 732.835 42.7666C744.396 46.5004 754.954 52.8199 763.707 61.245C772.46 69.6701 779.178 79.9791 783.351 91.3891C787.523 102.799 789.04 115.01 787.787 127.094Z" fill="white"/>
<path d="M787.787 127.094C786.282 141.823 780.73 155.847 771.746 167.615C767.356 173.566 762.063 178.795 756.057 183.111C750.183 187.588 743.702 191.207 736.808 193.858C729.91 196.575 722.662 198.303 715.28 198.991C711.59 199.323 707.881 199.398 704.18 199.216C700.466 199.121 696.765 198.734 693.111 198.061C678.367 195.348 664.669 188.583 653.553 178.523L654.484 178.811L614.541 184.939L611.621 185.388L613.097 182.822L632.988 148.173V149.552C628.295 138.091 626.299 125.704 627.156 113.349C628.012 100.993 631.699 89.0004 637.929 78.2967C644.152 67.6267 652.707 58.5016 662.954 51.604C673.184 44.7979 684.822 40.3964 696.996 38.7295C709.17 37.0626 721.563 38.1736 733.247 41.9792C744.806 45.9118 755.34 52.3791 764.078 60.9079C772.797 69.4154 779.463 79.797 783.571 91.265C787.679 102.733 789.121 114.986 787.787 127.094ZM787.787 127.094C789.083 115.046 787.594 102.86 783.433 91.4787C779.272 80.0972 772.551 69.8243 763.789 61.4529C755.027 53.0816 744.458 46.8358 732.899 43.1979C721.339 39.5599 709.099 38.627 697.121 40.4713C685.264 42.2263 673.969 46.6828 664.109 53.4968C654.332 60.3643 646.166 69.2752 640.175 79.6121C634.276 89.9719 630.8 101.532 630.005 113.427C629.223 125.402 631.154 137.4 635.651 148.526L635.94 149.231L635.555 149.905L615.407 184.426L613.996 182.308L654.035 176.694H654.58L654.965 177.047C665.668 187.009 678.931 193.796 693.272 196.649C696.845 197.377 700.472 197.817 704.116 197.965C707.758 198.221 711.414 198.221 715.056 197.965C722.36 197.376 729.549 195.789 736.423 193.249C743.312 190.741 749.797 187.239 755.672 182.854C761.653 178.573 766.952 173.414 771.393 167.55C780.493 155.84 786.168 141.836 787.787 127.094Z" fill="#263238"/>
<path d="M669.178 156.065C669.116 155.003 669.273 153.939 669.64 152.94C670.006 151.942 670.574 151.029 671.308 150.259C672.043 149.488 672.927 148.877 673.907 148.463C674.887 148.049 675.942 147.841 677.006 147.852C679.184 147.852 681.273 148.717 682.813 150.257C684.354 151.798 685.219 153.887 685.219 156.065C685.219 158.243 684.354 160.332 682.813 161.872C681.273 163.413 679.184 164.278 677.006 164.278C675.942 164.289 674.887 164.08 673.907 163.666C672.927 163.252 672.043 162.641 671.308 161.871C670.574 161.101 670.006 160.188 669.64 159.189C669.273 158.19 669.116 157.127 669.178 156.065ZM672.386 137.104L670.525 73.4521H683.358L681.497 137.104H672.386Z" fill="#8750F7"/>
<path d="M699.688 156.065C699.627 155.005 699.783 153.945 700.148 152.948C700.512 151.951 701.077 151.04 701.808 150.27C702.539 149.501 703.419 148.889 704.395 148.473C705.372 148.057 706.423 147.846 707.484 147.852C709.662 147.852 711.751 148.717 713.292 150.257C714.832 151.798 715.697 153.887 715.697 156.065C715.697 158.243 714.832 160.332 713.292 161.872C711.751 163.413 709.662 164.278 707.484 164.278C706.423 164.284 705.372 164.073 704.395 163.657C703.419 163.241 702.539 162.629 701.808 161.859C701.077 161.09 700.512 160.178 700.148 159.182C699.783 158.185 699.627 157.124 699.688 156.065ZM702.896 137.104L701.132 73.4521H713.965L712.104 137.104H702.896Z" fill="#8750F7"/>
<path d="M730.167 156.065C730.105 155.003 730.262 153.939 730.629 152.94C730.995 151.942 731.563 151.029 732.297 150.259C733.032 149.488 733.916 148.877 734.896 148.463C735.876 148.049 736.931 147.841 737.995 147.852C740.173 147.852 742.262 148.717 743.802 150.257C745.343 151.798 746.208 153.887 746.208 156.065C746.208 158.243 745.343 160.332 743.802 161.872C742.262 163.413 740.173 164.278 737.995 164.278C736.931 164.289 735.876 164.08 734.896 163.666C733.916 163.252 733.032 162.641 732.297 161.871C731.563 161.101 730.995 160.188 730.629 159.189C730.262 158.19 730.105 157.127 730.167 156.065ZM733.375 137.104L731.514 73.4521H744.347L742.518 137.104H733.375Z" fill="#8750F7"/>
</g>
<defs>
<clipPath id="clip0_2389_792">
<rect width="1954" height="1287" fill="white"/>
</clipPath>
</defs>
</svg>
