<svg width="270" height="190" viewBox="0 0 270 190" fill="none" xmlns="http://www.w3.org/2000/svg">
<rect width="270" height="190" rx="3" fill="#D3C7ED"/>
<path d="M126.833 98.3125L132.667 103.938L140.833 95.5L151.333 106.75H118.667M156 108.625V82.375C156 80.2937 153.9 78.625 151.333 78.625H118.667C117.429 78.625 116.242 79.0201 115.367 79.7233C114.492 80.4266 114 81.3804 114 82.375V108.625C114 109.62 114.492 110.573 115.367 111.277C116.242 111.98 117.429 112.375 118.667 112.375H151.333C152.571 112.375 153.758 111.98 154.633 111.277C155.508 110.573 156 109.62 156 108.625Z" fill="#8750F7"/>
</svg>
