<svg width="779" height="747" viewBox="0 0 779 747" fill="none" xmlns="http://www.w3.org/2000/svg">
<g clip-path="url(#clip0_2389_936)">
<path d="M391.582 746.925C605.389 746.925 778.714 656.674 778.714 545.343C778.714 434.013 605.389 343.762 391.582 343.762C177.775 343.762 4.45044 434.013 4.45044 545.343C4.45044 656.674 177.775 746.925 391.582 746.925Z" fill="#F5F5F5"/>
<path d="M639.598 571.679C696.625 571.679 742.855 544.987 742.855 512.06C742.855 479.134 696.625 452.441 639.598 452.441C582.571 452.441 536.342 479.134 536.342 512.06C536.342 544.987 582.571 571.679 639.598 571.679Z" fill="#E6E6E6"/>
<path d="M223.759 476.675C263.261 499.485 264.871 537.141 225.352 559.952C185.832 582.762 120.197 582.084 80.677 559.274C41.1571 536.463 41.1741 499.485 80.677 476.675C120.18 453.865 184.222 453.865 223.759 476.675Z" fill="#E6E6E6"/>
<path d="M545.984 599.59L416.308 524.719C414.034 523.566 411.52 522.964 408.97 522.964C406.42 522.964 403.906 523.566 401.632 524.719L271.955 599.59C267.905 601.929 267.905 605.725 271.955 608.064L331.015 642.16L275.853 674.003C264.651 680.46 246.416 680.46 235.181 674.003L148.413 623.909C143.634 621.146 140.991 617.672 140.991 614.147C140.991 610.623 143.634 607.131 148.413 604.369L225.301 559.969C225.706 559.757 226.064 559.465 226.353 559.111C226.643 558.757 226.857 558.349 226.985 557.91C227.112 557.471 227.149 557.01 227.094 556.557C227.039 556.103 226.893 555.665 226.664 555.269C226.435 554.873 226.129 554.528 225.763 554.254C225.397 553.98 224.98 553.782 224.536 553.673C224.092 553.565 223.631 553.547 223.18 553.621C222.728 553.695 222.297 553.86 221.911 554.105L145.058 598.472C138.093 602.505 134.246 608.064 134.246 614.13C134.246 620.197 138.093 625.739 145.058 629.772L231.825 679.867C239.162 683.648 247.297 685.621 255.551 685.621C263.805 685.621 271.939 683.648 279.276 679.867L337.827 646.075L401.7 682.934C403.974 684.088 406.488 684.689 409.037 684.689C411.587 684.689 414.101 684.088 416.375 682.934L546.052 608.064C550.035 605.725 550.035 601.929 545.984 599.59Z" fill="#E6E6E6"/>
<path d="M694.167 484.064C694.167 484.064 698.878 414.277 697.556 388.552C696.455 368.216 693.692 359.743 693.116 355.15C693.116 355.15 688.117 307.699 687.71 267.213C687.507 247.758 685.71 233.93 675.051 210.814L606.535 227.202C605.145 237.472 600.434 305.767 599.316 366.487C598.35 419.649 599.858 466.185 599.858 466.185V468.981C599.858 472.1 599.18 474.269 597.18 479.251C594.681 485.67 591.092 491.61 586.572 496.808C585.165 498.333 575.387 506.874 574.099 508.671C569.896 513.568 578.607 516.331 585.063 515.449C591.842 514.534 602.451 511.942 605.4 507.806C607.399 505.027 608.908 495.351 610.958 492.554C617.889 483.098 620.736 478.997 620.787 476.014C620.889 470.557 619.008 468.405 618.33 465.321C618.889 458.881 632.803 405.923 633.04 387.162C633.158 378.232 632.548 365.928 632.548 365.928L643.326 304.039C647.495 319.494 654.816 357.862 657.291 372.588C660.29 390.586 668.136 436.783 672.78 464.338C674.559 474.964 675.39 480.336 676.169 485.267L676.356 487.369C676.508 490.046 678.457 518.686 679.508 524.652C681.711 537.175 692.845 535.599 694.624 525.465C696.15 516.856 694.251 490.148 694.201 486.877L694.167 484.064Z" fill="#FFA8A7"/>
<path d="M694.167 484.064C697.319 484.064 695.251 496.283 696.065 504.095C696.929 512.484 699.674 518.618 700.471 525.482C701.539 531.48 700.617 537.664 697.844 543.09C695.658 548.174 684.643 554.952 680.457 547.818C676.271 540.683 675.373 532.43 675.864 524.601C676.356 516.771 675.864 511.518 676.017 505.366C676.169 499.943 672.187 486.098 676.271 485.318L676.457 487.419C677.932 490.351 692.811 490.927 694.302 486.962L694.167 484.064Z" fill="#37474F"/>
<path d="M621.499 482.674C622.465 486.589 621.499 497.333 621.499 497.333C621.499 497.333 619.804 501.045 613.754 503.502L611.043 488.555L621.499 482.674Z" fill="#263238"/>
<path d="M613.72 503.502L600.4 499.13L597.18 487.301L612.161 494.876L613.72 503.502Z" fill="black"/>
<path d="M599.858 468.981V466.185C598.045 467.066 594.062 481.658 588.673 491.605C583.759 500.74 574.014 505.824 570.845 509.806C566.608 515.111 574.845 521.974 588.046 519.144C594.604 517.737 604.535 513.551 607.23 509.128C609.924 504.705 610.823 496.571 613.026 493.317C615.229 490.063 620.465 486.318 621.499 482.624C622.36 479.289 622.36 475.79 621.499 472.455C620.465 469.066 619.55 465.016 618.398 465.389V467.948C617.516 469.744 614.314 471.845 607.653 472.218C604.4 472.371 601.315 471.879 599.858 468.981Z" fill="#37474F"/>
<path d="M605.145 226.321C605.145 226.321 600.621 276.602 599.163 321.121C597.706 365.64 599.011 423.09 599.011 423.09C599.011 423.09 603.603 426.377 613.72 426.835C623.838 427.292 627.278 423.92 627.278 423.92C627.278 423.92 633.463 403.736 634.429 389.535C635.043 381.848 635.043 374.124 634.429 366.437L643.462 307.021C643.462 307.021 654.918 365.521 656.223 372.588C657.528 379.655 668.492 442.172 668.492 442.172C668.492 442.172 672.797 446.137 683.846 445.934C693.624 445.747 696.454 442.239 696.454 442.239C696.454 442.239 698.81 403.906 698.268 387.535C697.81 373.097 694.506 361.607 693.845 352.235C693.184 342.864 692.811 289.532 692.15 269.196C691.489 248.86 689.794 231.405 672.39 206.934L605.145 226.321Z" fill="#455A64"/>
<path d="M643.53 307.072L636.005 269.789C636.005 269.789 622.906 266.4 616.788 258.367C616.788 258.367 618.482 267.247 632.04 272.924L640.039 310.004L637.259 348.338L643.53 307.072Z" fill="#37474F"/>
<path d="M509.413 217.051C514.239 217.787 519.17 217.422 523.835 215.983C521.785 214.959 519.868 213.69 518.124 212.204C517.324 211.561 516.805 210.632 516.679 209.613C516.552 208.595 516.827 207.567 517.446 206.747C518.073 206.07 519.632 207.646 523.157 208.645C527.665 209.916 530.935 210.188 535.274 212.696C536.911 213.648 538.834 213.985 540.697 213.645C551.272 211.662 575.929 200.087 587.233 194.054C589.537 184.649 593.537 170.82 598.468 153.568C603.027 137.672 610.331 130.724 621.99 130.978L620.313 165.499C620.313 165.499 614.754 189.343 607.874 208.815C606.671 212.204 601.841 216.153 592.995 219.441C581.539 223.694 567.71 227.711 550.814 232.337C543.968 234.287 536.974 235.676 529.902 236.489C512.04 238.014 505.193 233.1 502.787 229.575C495.94 219.847 499.991 215.17 509.413 217.051Z" fill="#FFA8A7"/>
<path d="M652.037 130.724L668.34 131.978C666.936 138.604 667.334 145.485 669.492 151.905C671.65 158.324 675.489 164.049 680.609 168.481L673.339 197.765C673.576 201.392 679.576 213.594 685.388 226.71C674.458 241.352 620.838 246.352 603.349 233.489C606.044 219.694 608.06 209.221 608.603 203.985L607.721 185.055C585.792 167.075 612.246 139.672 621.99 130.961L634.226 130.419L652.037 130.724Z" fill="#8750F7"/>
<path d="M720.688 276.619C719.505 275.696 718.568 274.495 717.959 273.124C717.35 271.752 717.089 270.252 717.197 268.756C717.486 266.027 718.113 262.604 719.248 261.282C720.383 259.96 727.501 250.284 730.653 255.91C734.042 262.045 733.348 264.536 733.348 264.536L720.688 276.619Z" fill="#F28F8F"/>
<path d="M698.725 405.957C691.075 405.702 683.625 403.447 677.118 399.415L592.503 350.541C579.437 342.999 568.778 324.578 568.778 309.479V238.489C568.769 236.113 568.137 233.781 566.943 231.727C565.75 229.672 564.038 227.968 561.978 226.783C559.919 225.599 557.584 224.977 555.208 224.979C552.833 224.981 550.499 225.608 548.442 226.795L518.819 243.946C518.433 244.191 518.001 244.356 517.55 244.43C517.099 244.504 516.638 244.486 516.194 244.377C515.75 244.269 515.332 244.071 514.967 243.797C514.601 243.523 514.295 243.177 514.066 242.781C513.837 242.386 513.691 241.948 513.636 241.494C513.581 241.04 513.618 240.58 513.745 240.141C513.872 239.702 514.087 239.293 514.377 238.939C514.666 238.586 515.024 238.294 515.429 238.082L545.137 220.915C548.226 219.132 551.729 218.192 555.296 218.19C558.862 218.189 562.366 219.125 565.457 220.905C568.547 222.686 571.115 225.248 572.902 228.334C574.69 231.42 575.634 234.922 575.641 238.489V309.479C575.641 322.189 584.962 338.288 595.977 344.677L680.592 393.518C691.421 399.771 701.471 400.856 708.86 396.602C716.248 392.348 720.333 383.045 720.333 370.589V279.957C720.333 264.604 730.145 246.911 742.668 239.675L763.326 227.812C763.712 227.567 764.144 227.402 764.595 227.328C765.046 227.254 765.507 227.272 765.951 227.381C766.395 227.489 766.813 227.687 767.178 227.961C767.544 228.235 767.85 228.581 768.079 228.976C768.308 229.372 768.454 229.81 768.509 230.264C768.565 230.718 768.527 231.178 768.4 231.617C768.273 232.056 768.058 232.465 767.768 232.819C767.479 233.172 767.121 233.464 766.716 233.676L746.058 245.539C735.788 251.47 727.111 267.214 727.111 279.941V370.572C727.111 385.587 721.824 396.907 712.249 402.449C708.135 404.803 703.465 406.015 698.725 405.957Z" fill="#37474F"/>
<path d="M552.526 248.843V254.385C552.526 263.248 546.306 274.043 538.612 278.466L487.298 308.106L435.118 277.975V232.795L485.721 209.374C493.771 205.663 506.515 206.239 514.209 210.662L538.578 224.745C546.255 229.185 552.526 239.98 552.526 248.843Z" fill="#37474F"/>
<path d="M485.721 209.374C493.771 205.663 506.515 206.239 514.209 210.662L538.578 224.745C546.255 229.168 545.95 235.777 537.901 239.505L487.247 262.892L435.051 232.778L485.721 209.374Z" fill="#455A64"/>
<path opacity="0.15" d="M492.178 252.046C494.2 253.365 495.882 255.142 497.089 257.232C498.297 259.323 498.994 261.668 499.126 264.078V301.243L487.264 308.021L435.085 277.89V232.795L448.303 226.694L492.178 252.046Z" fill="black"/>
<path d="M430.628 225.016C431.409 224.652 432.274 224.504 433.133 224.588C433.991 224.671 434.811 224.983 435.508 225.49L486.823 255.13C488.848 256.45 490.532 258.229 491.74 260.323C492.947 262.417 493.643 264.766 493.771 267.179V311.377C493.864 312.236 493.724 313.105 493.366 313.892C493.008 314.678 492.446 315.355 491.738 315.85C490.551 316.511 486.365 318.935 485.196 319.63C484.411 319.993 483.544 320.141 482.683 320.057C481.822 319.974 480.999 319.663 480.299 319.155L428.967 289.515C426.945 288.196 425.263 286.419 424.056 284.329C422.848 282.239 422.151 279.893 422.019 277.483V233.286C421.928 232.426 422.067 231.557 422.422 230.769C422.776 229.98 423.333 229.299 424.035 228.795L430.628 225.016Z" fill="#37474F"/>
<path d="M480.299 258.892L428.967 229.269C425.137 227.049 422.019 228.846 422.019 233.286V277.483C422.151 279.893 422.848 282.239 424.056 284.329C425.263 286.419 426.945 288.196 428.967 289.515L480.299 319.155C484.129 321.375 487.247 319.579 487.247 315.139V270.942C487.115 268.529 486.417 266.181 485.21 264.088C484.003 261.995 482.321 260.215 480.299 258.892Z" fill="#455A64"/>
<path d="M419.51 310.343V317.986C419.51 321.087 420.578 323.24 422.341 324.256L426.95 326.917C428.055 327.455 429.285 327.682 430.509 327.574C431.732 327.467 432.904 327.029 433.898 326.307L476.265 301.802V271.637L471.656 268.976L429.204 293.481C426.377 295.332 424.026 297.824 422.342 300.754C420.658 303.683 419.688 306.969 419.51 310.343ZM438.711 300.887C438.873 301.438 438.964 302.007 438.982 302.582C438.861 304.846 438.207 307.05 437.074 309.015C435.94 310.979 434.358 312.648 432.458 313.885C431.93 314.194 431.359 314.423 430.763 314.563C430.615 314.01 430.535 313.441 430.526 312.868C430.648 310.604 431.303 308.4 432.436 306.436C433.57 304.472 435.151 302.803 437.05 301.565C437.577 301.277 438.134 301.05 438.711 300.887Z" fill="#8750F7"/>
<path opacity="0.2" d="M426.713 326.747C426.802 326.825 426.898 326.893 427.001 326.951L426.831 326.849L422.375 324.256C420.595 323.273 419.544 321.121 419.544 318.003V310.36C419.656 306.964 420.642 303.654 422.408 300.751L427.018 303.412C425.269 306.321 424.289 309.628 424.171 313.02V320.663C424.047 322.643 424.683 324.595 425.95 326.12C426.179 326.359 426.435 326.569 426.713 326.747Z" fill="black"/>
<path opacity="0.5" d="M476.265 271.637L433.898 296.142C431.024 297.933 428.655 300.43 427.018 303.395L422.408 300.734C424.045 297.774 426.406 295.278 429.272 293.481L471.723 268.976L476.265 271.637Z" fill="white"/>
<path opacity="0.2" d="M438.982 302.581C438.98 301.969 438.9 301.36 438.745 300.768C441.541 300.005 443.592 301.751 443.592 305.242C443.47 307.505 442.818 309.707 441.687 311.67C440.557 313.634 438.98 315.304 437.084 316.545C434.068 318.24 431.492 317.376 430.78 314.563C431.379 314.432 431.951 314.203 432.475 313.885C434.369 312.642 435.945 310.972 437.076 309.009C438.206 307.045 438.859 304.844 438.982 302.581Z" fill="black"/>
<path d="M380.38 287.736V295.396C380.38 298.48 381.448 300.65 383.211 301.649L387.82 304.327C388.924 304.853 390.149 305.071 391.366 304.958C392.583 304.844 393.747 304.404 394.734 303.683L437.101 279.161V249.047L432.492 246.369L390.125 270.874C387.291 272.723 384.933 275.213 383.24 278.142C381.547 281.071 380.567 284.358 380.38 287.736ZM399.581 278.229C399.736 278.821 399.815 279.43 399.818 280.042C399.696 282.307 399.042 284.51 397.908 286.474C396.774 288.438 395.193 290.107 393.294 291.346C392.757 291.637 392.189 291.865 391.599 292.024C391.438 291.445 391.358 290.846 391.362 290.244C391.484 287.982 392.136 285.78 393.267 283.816C394.397 281.852 395.974 280.182 397.87 278.941C398.404 278.625 398.98 278.385 399.581 278.229Z" fill="#8750F7"/>
<path opacity="0.2" d="M388.023 304.445H387.939H387.82L383.211 301.751C381.431 300.751 380.38 298.599 380.38 295.48V287.837C380.399 286.205 380.655 284.583 381.143 283.025C381.653 281.357 382.353 279.754 383.228 278.246L387.837 280.889C387.4 281.644 387.01 282.425 386.668 283.228C385.616 285.505 385.039 287.973 384.973 290.481V298.124C384.829 300.092 385.434 302.041 386.668 303.581C387.067 303.944 387.526 304.236 388.023 304.445Z" fill="black"/>
<path opacity="0.5" d="M437.152 249.047L394.785 273.552C391.907 275.339 389.537 277.837 387.905 280.805L383.295 278.161C384.903 275.198 387.235 272.691 390.074 270.874L432.441 246.369L437.152 249.047Z" fill="white"/>
<path opacity="0.2" d="M399.801 280.025C399.805 279.419 399.731 278.816 399.581 278.229C402.36 277.449 404.428 279.212 404.428 282.703C404.306 284.965 403.654 287.167 402.523 289.131C401.393 291.095 399.816 292.765 397.92 294.006C394.887 295.701 392.328 294.837 391.616 292.006C392.216 291.88 392.79 291.651 393.311 291.329C395.205 290.087 396.78 288.417 397.908 286.453C399.036 284.489 399.684 282.287 399.801 280.025Z" fill="black"/>
<path d="M393.226 259.452C392.661 259.453 392.112 259.265 391.667 258.918C391.222 258.571 390.905 258.085 390.769 257.537L383.99 230.964C383.822 230.31 383.92 229.616 384.263 229.034C384.606 228.453 385.166 228.031 385.82 227.863C386.474 227.694 387.168 227.792 387.75 228.136C388.332 228.479 388.753 229.039 388.922 229.693L395.7 256.283C395.787 256.605 395.807 256.942 395.762 257.273C395.716 257.604 395.605 257.922 395.434 258.21C395.264 258.497 395.037 258.747 394.769 258.946C394.5 259.145 394.195 259.288 393.87 259.367C393.66 259.421 393.443 259.45 393.226 259.452Z" fill="#E0E0E0"/>
<path d="M374.144 270.535C373.573 270.537 373.017 270.346 372.568 269.993L347.334 250.046C347.056 249.846 346.821 249.59 346.644 249.296C346.467 249.002 346.351 248.675 346.304 248.335C346.256 247.995 346.278 247.649 346.369 247.317C346.459 246.986 346.615 246.677 346.828 246.407C347.041 246.138 347.307 245.915 347.609 245.751C347.91 245.587 348.242 245.486 348.584 245.454C348.926 245.422 349.271 245.459 349.598 245.564C349.925 245.669 350.227 245.839 350.486 246.064L375.72 265.993C376.248 266.413 376.588 267.025 376.667 267.694C376.747 268.364 376.558 269.038 376.144 269.569C375.907 269.873 375.603 270.118 375.257 270.286C374.91 270.453 374.529 270.538 374.144 270.535Z" fill="#E0E0E0"/>
<path d="M339.369 294.871C338.695 294.895 338.039 294.651 337.545 294.192C337.05 293.733 336.759 293.096 336.734 292.422C336.709 291.748 336.953 291.091 337.413 290.597C337.872 290.103 338.509 289.811 339.183 289.787L368.687 287.499C369.02 287.471 369.356 287.51 369.674 287.613C369.992 287.716 370.286 287.881 370.54 288.098C370.794 288.316 371.002 288.581 371.152 288.88C371.303 289.179 371.392 289.504 371.416 289.838C371.463 290.508 371.243 291.171 370.806 291.681C370.368 292.192 369.747 292.51 369.077 292.566L339.573 294.854L339.369 294.871Z" fill="#E0E0E0"/>
<path d="M743.753 248.962C743.178 242.701 742.25 236.477 740.974 230.32C737.118 215.876 731.98 201.805 725.62 188.275C722.79 182.869 716.401 174.989 711.876 168.329C705.47 158.924 700.962 153.653 696.099 147.264C685.388 133.249 680.847 132.436 668.34 132.012C666.645 136.469 662.781 154.738 675.305 169.498L702.149 197.8C703.674 200.257 720.078 228.304 722.807 238.658C723.279 240.499 723.049 242.45 722.163 244.132C720.019 248.878 718.443 253.861 717.468 258.977C716.672 262.57 714.537 265.417 715.265 265.976C716.166 266.578 717.243 266.858 718.322 266.772C719.401 266.686 720.42 266.239 721.214 265.502C723.13 263.445 724.693 261.086 725.84 258.52C726.344 258.487 726.849 258.559 727.324 258.731C727.798 258.904 728.232 259.173 728.596 259.522C728.961 259.871 729.25 260.292 729.443 260.759C729.637 261.225 729.731 261.726 729.721 262.231C729.874 264.316 728.924 267.213 728.196 270.823C728.06 271.535 727.891 272.348 727.569 274.314C727.291 275.642 727.132 276.992 727.094 278.348C730.484 278.975 734.025 276.907 739.72 271.569C744.854 266.586 745.193 260.045 743.753 248.962Z" fill="#FFA8A7"/>
<path d="M654.952 122.488C655.054 119.099 666.069 111.168 671.644 102.728C676.728 94.8987 684.033 73.3764 666.916 66.496C666.916 66.496 670.611 56.1754 663.9 50.0915C657.189 44.0076 648.156 47.7698 646.733 50.3118C645.873 47.1428 644.013 44.3359 641.43 42.3085C638.847 40.2811 635.678 39.1415 632.396 39.0592C629.189 38.8177 626.004 39.7428 623.425 41.6642C620.847 43.5855 619.049 46.3737 618.364 49.5153C615.655 48.3429 612.626 48.1376 609.784 48.9336C606.943 49.7297 604.461 51.4788 602.756 53.8876C596.469 62.5474 604.806 70.4785 604.806 70.4785C603.725 71.2082 602.862 72.218 602.31 73.4C601.758 74.582 601.537 75.8917 601.671 77.1894C602.163 80.8499 605.671 81.748 606.077 83.5783C606.156 83.9612 606.108 84.3594 605.939 84.7124C605.771 85.0653 605.493 85.3538 605.146 85.5339C604.799 85.7141 604.402 85.7762 604.017 85.7108C603.632 85.6453 603.278 85.4559 603.01 85.1713C603.101 85.6492 603.286 86.1043 603.554 86.5105C603.822 86.9167 604.167 87.2661 604.57 87.5385C604.973 87.8109 605.426 88.001 605.903 88.0979C606.38 88.1948 606.871 88.1966 607.348 88.1031C611.297 87.8828 614.822 82.5107 614.822 82.5107L654.952 122.488Z" fill="#263238"/>
<path d="M619.025 65.4111C613.941 67.6142 609.145 75.3589 609.213 97.0168C609.213 115.37 614.907 120.014 617.686 121.386C620.465 122.759 626.075 122.047 631.481 121.217V131.775C631.481 131.775 621.702 143.909 630.464 149.942C653.037 145.993 654.765 131.182 654.765 131.182L655.172 108.168C655.172 108.168 658.273 111.422 663.646 106.643C668.153 102.694 669.78 95.9323 666.391 92.204C663.002 88.4757 658.663 88.1876 654.732 92.3395C654.732 92.3395 647.529 92.814 636.7 86.0184C625.871 79.2227 622.007 72.3254 619.025 65.4111Z" fill="#FFA8A7"/>
<path d="M632.023 108.507C632.046 108.857 631.999 109.208 631.885 109.54C631.771 109.871 631.592 110.177 631.358 110.439C631.125 110.701 630.842 110.914 630.525 111.065C630.209 111.216 629.865 111.303 629.515 111.32C628.972 111.364 628.428 111.244 627.953 110.976C627.479 110.707 627.096 110.303 626.853 109.815C626.61 109.327 626.519 108.778 626.592 108.238C626.664 107.698 626.897 107.192 627.26 106.785C627.622 106.378 628.098 106.089 628.627 105.955C629.155 105.822 629.711 105.849 630.224 106.035C630.736 106.22 631.182 106.554 631.502 106.995C631.823 107.436 632.004 107.962 632.023 108.507Z" fill="#B16668"/>
<path d="M618.076 90.7469C618.072 91.2244 617.928 91.6903 617.662 92.0869C617.396 92.4835 617.02 92.7933 616.58 92.9781C616.139 93.1628 615.655 93.2143 615.185 93.1262C614.716 93.0381 614.283 92.8142 613.939 92.4824C613.596 92.1505 613.358 91.7252 613.254 91.2591C613.15 90.7931 613.185 90.3068 613.355 89.8604C613.524 89.4141 613.821 89.0274 614.209 88.7482C614.596 88.4689 615.057 88.3095 615.534 88.2896C615.862 88.2828 616.189 88.3412 616.495 88.4612C616.801 88.5813 617.08 88.7607 617.316 88.9891C617.552 89.2175 617.741 89.4904 617.872 89.7921C618.002 90.0938 618.071 90.4183 618.076 90.7469Z" fill="#263238"/>
<path d="M636.836 91.8653C636.859 92.2153 636.812 92.5664 636.698 92.8981C636.583 93.2298 636.404 93.5355 636.171 93.7973C635.938 94.0591 635.654 94.2719 635.338 94.4232C635.021 94.5744 634.678 94.6612 634.328 94.6785C633.619 94.6831 632.937 94.4081 632.429 93.9133C631.922 93.4184 631.63 92.7435 631.616 92.0348C631.605 91.6921 631.662 91.3505 631.782 91.0296C631.903 90.7087 632.086 90.4148 632.321 90.1646C632.555 89.9143 632.837 89.7128 633.149 89.5713C633.461 89.4299 633.799 89.3514 634.141 89.3402C634.484 89.3291 634.826 89.3856 635.146 89.5065C635.467 89.6273 635.761 89.8102 636.011 90.0447C636.262 90.2792 636.463 90.5607 636.605 90.873C636.746 91.1854 636.825 91.5226 636.836 91.8653Z" fill="#263238"/>
<path d="M616.381 81.0361L611.212 84.0696C611.397 84.4191 611.651 84.7268 611.96 84.9737C612.269 85.2205 612.625 85.4012 613.006 85.5045C613.388 85.6079 613.787 85.6316 614.178 85.5742C614.569 85.5169 614.944 85.3797 615.28 85.1711C615.959 84.7553 616.453 84.0939 616.658 83.3241C616.863 82.5542 616.764 81.7349 616.381 81.0361Z" fill="#263238"/>
<path d="M654.833 89.3569V99.525C654.181 99.5416 653.533 99.4246 652.928 99.1811C652.323 98.9376 651.774 98.5729 651.315 98.1093C650.856 97.6457 650.497 97.0932 650.26 96.4856C650.023 95.878 649.912 95.2284 649.936 94.5765C649.941 93.2486 650.449 91.972 651.358 91.0036C652.267 90.0352 653.508 89.4469 654.833 89.3569Z" fill="#263238"/>
<path d="M624.753 88.3232L623.719 102.965L615.991 101.152L624.753 88.3232Z" fill="#F28F8F"/>
<path d="M631.548 121.251C637.226 120.59 648.953 117.336 650.868 112.557C650.109 114.951 648.644 117.06 646.665 118.607C643.123 121.658 631.531 124.81 631.531 124.81L631.548 121.251Z" fill="#F28F8F"/>
<path d="M699.793 8.01263C701.955 8.83805 703.983 9.98032 705.809 11.402C707.578 12.6951 709.1 14.2968 710.3 16.1301C711.442 17.8937 712.194 19.8815 712.503 21.9598C712.808 24.178 712.534 26.4375 711.707 28.5182C711.115 30.184 710.199 31.7161 709.012 33.0261C707.951 34.1429 706.736 35.1017 705.402 35.8731C704.105 36.6143 702.744 37.2382 701.335 37.7373L697.336 39.1777C696.159 39.6028 695.025 40.1361 693.946 40.7707C692.93 41.2816 692.078 42.0687 691.489 43.0416C691.219 43.4958 690.833 43.8701 690.371 44.1262C690.149 44.248 689.904 44.3189 689.651 44.3335C689.399 44.3482 689.147 44.3063 688.913 44.2109L683.626 42.2281C683.375 42.1353 683.145 41.9929 682.95 41.8095C682.755 41.6261 682.599 41.4054 682.49 41.1605C682.374 40.9262 682.313 40.668 682.313 40.4064C682.313 40.1447 682.374 39.8866 682.49 39.6522C683.17 38.0216 684.173 36.5458 685.439 35.3139C686.587 34.2344 687.869 33.3061 689.252 32.5515C690.588 31.8343 691.983 31.2333 693.421 30.7552C694.845 30.2807 696.166 29.8231 697.404 29.3486C698.521 28.9384 699.594 28.416 700.606 27.7895C701.477 27.2377 702.144 26.4165 702.505 25.4509C702.839 24.605 702.961 23.6903 702.86 22.7864C702.76 21.8826 702.44 21.017 701.928 20.2651C700.653 18.4134 698.799 17.0367 696.658 16.3504C694.793 15.6083 692.744 15.4624 690.792 15.9328C688.841 16.4032 687.083 17.4668 685.761 18.9772C685.423 19.3343 685.028 19.6322 684.592 19.8584C684.121 20.0057 683.613 19.9694 683.168 19.7567L677.542 17.6384C677.341 17.5688 677.157 17.4593 677 17.3166C676.842 17.1739 676.716 17.0009 676.627 16.808C676.53 16.6103 676.479 16.3928 676.479 16.1725C676.479 15.9521 676.53 15.7347 676.627 15.537C677.372 13.809 678.537 12.2945 680.016 11.1308C681.663 9.7614 683.539 8.69424 685.558 7.97873C687.775 7.19525 690.104 6.77187 692.455 6.72467C694.961 6.67727 697.453 7.11461 699.793 8.01263ZM687.727 48.5154C687.974 48.6032 688.2 48.7421 688.39 48.9232C688.58 49.1042 688.729 49.3233 688.828 49.5661C688.933 49.8068 688.987 50.0663 688.987 50.3287C688.987 50.5911 688.933 50.8506 688.828 51.0913L686.524 57.2091C686.436 57.4563 686.297 57.6822 686.116 57.872C685.935 58.0618 685.716 58.2113 685.473 58.3106C685.232 58.4151 684.973 58.469 684.71 58.469C684.448 58.469 684.188 58.4151 683.948 58.3106L677.966 56.0567C677.718 55.9689 677.492 55.83 677.303 55.6489C677.113 55.4679 676.963 55.2488 676.864 55.006C676.76 54.7653 676.706 54.5058 676.706 54.2434C676.706 53.981 676.76 53.7215 676.864 53.4808L679.169 47.363C679.259 47.1152 679.399 46.8883 679.579 46.696C679.76 46.5037 679.978 46.3501 680.22 46.2445C680.461 46.1438 680.72 46.092 680.982 46.092C681.244 46.092 681.503 46.1438 681.745 46.2445L687.727 48.5154Z" fill="#8750F7"/>
<path d="M702.725 81.053C702.902 81.2265 703.042 81.4335 703.138 81.6619C703.234 81.8903 703.283 82.1356 703.283 82.3833C703.283 82.631 703.234 82.8762 703.138 83.1046C703.042 83.3331 702.902 83.5401 702.725 83.7136L698.488 88.1876C698.318 88.3681 698.114 88.5123 697.886 88.6113C697.659 88.7104 697.414 88.7622 697.166 88.7637C696.918 88.7728 696.67 88.7325 696.438 88.6452C696.205 88.5579 695.992 88.4254 695.811 88.2553L691.489 84.1034C691.309 83.9336 691.164 83.7288 691.065 83.5016C690.966 83.2744 690.914 83.0294 690.913 82.7815C690.9 82.5328 690.938 82.284 691.026 82.0507C691.113 81.8175 691.248 81.6047 691.421 81.4258L695.675 76.9688C696.03 76.62 696.508 76.4246 697.005 76.4246C697.503 76.4246 697.981 76.62 698.336 76.9688L702.725 81.053ZM728.145 50.3285C729.721 51.8215 731.074 53.5338 732.161 55.4125C733.21 57.1928 733.938 59.1429 734.314 61.1744C734.631 63.1218 734.533 65.1143 734.026 67.021C733.485 68.8251 732.574 70.4968 731.352 71.9294C730.129 73.362 728.621 74.5242 726.925 75.3419C725.599 75.9273 724.194 76.3155 722.756 76.4943C721.355 76.6519 719.944 76.6915 718.536 76.6129L714.537 76.3926C713.344 76.3282 712.147 76.3678 710.961 76.5112C709.898 76.6285 708.889 77.0393 708.046 77.6975C707.647 77.9989 707.171 78.181 706.673 78.2229C706.436 78.2495 706.195 78.2223 705.969 78.143C705.743 78.0638 705.538 77.9347 705.369 77.7653L701.522 74.1048C701.151 73.7554 700.932 73.2748 700.912 72.766C700.887 72.5156 700.924 72.2631 701.018 72.03C701.113 71.7969 701.262 71.5901 701.454 71.4272C702.635 70.2532 704.041 69.3308 705.589 68.7157C706.981 68.1988 708.433 67.8627 709.91 67.7159C711.337 67.5974 712.771 67.5974 714.198 67.7159C715.61 67.8401 716.932 67.9249 718.163 67.9701C719.297 68.0272 720.433 67.9647 721.553 67.7836C722.517 67.6337 723.405 67.169 724.078 66.4618C724.672 65.8467 725.109 65.0971 725.351 64.2768C725.593 63.4564 725.633 62.5897 725.467 61.7506C725.046 59.6717 723.943 57.793 722.332 56.4124C720.979 55.0885 719.25 54.2152 717.381 53.9118C715.512 53.6085 713.596 53.8899 711.893 54.7177C711.475 54.9017 711.027 55.0107 710.571 55.0397C710.34 55.0258 710.113 54.9645 709.906 54.8595C709.699 54.7546 709.516 54.6083 709.368 54.4296L705.267 50.5149C704.972 50.2479 704.79 49.878 704.758 49.4811C704.748 49.2715 704.782 49.0621 704.858 48.8664C704.934 48.6707 705.05 48.4933 705.199 48.3457C706.481 47.1267 708.039 46.2369 709.741 45.7528C711.673 45.175 713.692 44.9398 715.706 45.058C717.923 45.1931 720.103 45.6852 722.163 46.5155C724.366 47.3841 726.376 48.68 728.077 50.3285H728.145Z" fill="#8750F7"/>
<g opacity="0.6">
<path d="M702.725 81.053C702.902 81.2265 703.042 81.4335 703.138 81.6619C703.234 81.8903 703.283 82.1356 703.283 82.3833C703.283 82.631 703.234 82.8762 703.138 83.1046C703.042 83.3331 702.902 83.5401 702.725 83.7136L698.488 88.1876C698.318 88.3681 698.114 88.5123 697.886 88.6113C697.659 88.7104 697.414 88.7622 697.166 88.7637C696.918 88.7728 696.67 88.7325 696.438 88.6452C696.205 88.5579 695.992 88.4254 695.811 88.2553L691.489 84.1034C691.309 83.9336 691.164 83.7288 691.065 83.5016C690.966 83.2744 690.914 83.0294 690.913 82.7815C690.9 82.5328 690.938 82.284 691.026 82.0507C691.113 81.8175 691.248 81.6047 691.421 81.4258L695.675 76.9688C696.03 76.62 696.508 76.4246 697.005 76.4246C697.503 76.4246 697.981 76.62 698.336 76.9688L702.725 81.053ZM728.145 50.3285C729.721 51.8215 731.074 53.5338 732.161 55.4125C733.21 57.1928 733.938 59.1429 734.314 61.1744C734.631 63.1218 734.533 65.1143 734.026 67.021C733.485 68.8251 732.574 70.4968 731.352 71.9294C730.129 73.362 728.621 74.5242 726.925 75.3419C725.599 75.9273 724.194 76.3155 722.756 76.4943C721.355 76.6519 719.944 76.6915 718.536 76.6129L714.537 76.3926C713.344 76.3282 712.147 76.3678 710.961 76.5112C709.898 76.6285 708.889 77.0393 708.046 77.6975C707.647 77.9989 707.171 78.181 706.673 78.2229C706.436 78.2495 706.195 78.2223 705.969 78.143C705.743 78.0638 705.538 77.9347 705.369 77.7653L701.522 74.1048C701.151 73.7554 700.932 73.2748 700.912 72.766C700.887 72.5156 700.924 72.2631 701.018 72.03C701.113 71.7969 701.262 71.5901 701.454 71.4272C702.635 70.2532 704.041 69.3308 705.589 68.7157C706.981 68.1988 708.433 67.8627 709.91 67.7159C711.337 67.5974 712.771 67.5974 714.198 67.7159C715.61 67.8401 716.932 67.9249 718.163 67.9701C719.297 68.0272 720.433 67.9647 721.553 67.7836C722.517 67.6337 723.405 67.169 724.078 66.4618C724.672 65.8467 725.109 65.0971 725.351 64.2768C725.593 63.4564 725.633 62.5897 725.467 61.7506C725.046 59.6717 723.943 57.793 722.332 56.4124C720.979 55.0885 719.25 54.2152 717.381 53.9118C715.512 53.6085 713.596 53.8899 711.893 54.7177C711.475 54.9017 711.027 55.0107 710.571 55.0397C710.34 55.0258 710.113 54.9645 709.906 54.8595C709.699 54.7546 709.516 54.6083 709.368 54.4296L705.267 50.5149C704.972 50.2479 704.79 49.878 704.758 49.4811C704.748 49.2715 704.782 49.0621 704.858 48.8664C704.934 48.6707 705.05 48.4933 705.199 48.3457C706.481 47.1267 708.039 46.2369 709.741 45.7528C711.673 45.175 713.692 44.9398 715.706 45.058C717.923 45.1931 720.103 45.6852 722.163 46.5155C724.366 47.3841 726.376 48.68 728.077 50.3285H728.145Z" fill="white"/>
</g>
<path d="M99.7251 507.145C105.097 510.416 112.232 510.535 118.96 508.179L124.044 472.591L100.318 466.524L99.7251 507.145Z" fill="#FFA8A7"/>
<path d="M138.008 541.209C138.601 541.819 138.245 546.293 137.516 547.293C136.788 548.292 132.704 551.682 125.179 551.817C118.011 551.936 111.622 550.631 107.622 547.733C103.623 544.835 101.708 541.802 101.521 537.701C101.335 533.6 102.013 529.719 100.25 526.482C98.488 523.245 96.3697 520.534 95.8274 518.941C95.1908 516.055 95.1908 513.065 95.8274 510.179L138.008 541.209Z" fill="#263238"/>
<path d="M120.604 506.688C120.637 508.233 120.853 509.769 121.248 511.264C122.172 514.469 123.474 517.552 125.128 520.449C125.951 521.961 126.874 523.416 127.891 524.804C129.907 527.499 132.483 529.753 134.669 532.346C136.99 534.803 138.386 537.989 138.618 541.361C138.618 546.988 132.432 548.564 127.704 549.14C122.566 549.767 117.353 549.228 112.452 547.564C109.887 546.744 107.613 545.201 105.903 543.121C104.192 541.041 103.118 538.512 102.809 535.837C102.623 534.261 102.809 532.684 102.708 531.108C102.286 527.492 100.969 524.039 98.8777 521.059C97.6616 519.335 96.6387 517.482 95.8273 515.534C94.5393 511.992 95.9289 508.146 97.0474 504.739C98.0134 501.807 98.7421 498.266 99.8267 498.605C99.8267 499.198 99.8267 500.519 99.8267 500.519C100.132 501.18 100.877 501.655 101.064 502.434C101.24 503.239 101.484 504.027 101.793 504.79C102.254 505.97 103.072 506.977 104.131 507.671C104.318 505.553 104.504 503.434 104.674 501.333C104.625 500.999 104.654 500.659 104.757 500.337C104.861 500.016 105.036 499.723 105.269 499.479C105.503 499.236 105.789 499.049 106.106 498.932C106.422 498.816 106.761 498.774 107.097 498.808C111.072 498.081 115.135 497.961 119.146 498.452C119.448 498.475 119.743 498.557 120.013 498.693C120.284 498.83 120.525 499.019 120.722 499.248C120.929 499.699 120.994 500.201 120.909 500.689C120.699 502.682 120.597 504.684 120.604 506.688Z" fill="#8750F7"/>
<path opacity="0.2" d="M120.604 506.688C120.637 508.233 120.853 509.769 121.248 511.264C122.172 514.469 123.474 517.552 125.128 520.449C125.951 521.961 126.874 523.416 127.891 524.804C129.907 527.499 132.483 529.753 134.669 532.346C136.99 534.803 138.386 537.989 138.618 541.361C138.618 546.988 132.432 548.564 127.704 549.14C122.566 549.767 117.353 549.228 112.452 547.564C109.887 546.744 107.613 545.201 105.903 543.121C104.192 541.041 103.118 538.512 102.809 535.837C102.623 534.261 102.809 532.684 102.708 531.108C102.286 527.492 100.969 524.039 98.8777 521.059C97.6616 519.335 96.6387 517.482 95.8273 515.534C94.5393 511.992 95.9289 508.146 97.0474 504.739C98.0134 501.807 98.7421 498.266 99.8267 498.605C99.8267 499.198 99.8267 500.519 99.8267 500.519C100.132 501.18 100.877 501.655 101.064 502.434C101.24 503.239 101.484 504.027 101.793 504.79C102.254 505.97 103.072 506.977 104.131 507.671C104.318 505.553 104.504 503.434 104.674 501.333C104.625 500.999 104.654 500.659 104.757 500.337C104.861 500.016 105.036 499.723 105.269 499.479C105.503 499.236 105.789 499.049 106.106 498.932C106.422 498.816 106.761 498.774 107.097 498.808C111.072 498.081 115.135 497.961 119.146 498.452C119.448 498.475 119.743 498.557 120.013 498.693C120.284 498.83 120.525 499.019 120.722 499.248C120.929 499.699 120.994 500.201 120.909 500.689C120.699 502.682 120.597 504.684 120.604 506.688Z" fill="black"/>
<path d="M125.823 521.669C123.823 519.974 119.146 519.72 116.57 519.856C113.961 519.943 111.414 520.683 109.164 522.008C108.832 522.211 108.44 522.292 108.054 522.24C107.668 522.188 107.312 522.004 107.046 521.72C106.89 521.555 106.771 521.357 106.699 521.141C106.627 520.925 106.603 520.696 106.629 520.47C106.655 520.244 106.73 520.027 106.849 519.833C106.968 519.638 107.128 519.473 107.317 519.347C109.808 517.724 112.7 516.827 115.672 516.754C122.078 516.653 123.773 517.805 123.773 517.805C123.773 517.805 126.552 519.839 125.823 521.669Z" fill="#455A64"/>
<path d="M130.314 527.668C127.772 525.973 122.62 525.973 120.044 526.058C117.483 526.179 114.998 526.974 112.842 528.363C112.508 528.57 112.112 528.654 111.723 528.602C111.333 528.549 110.974 528.363 110.707 528.075C110.548 527.91 110.428 527.712 110.356 527.495C110.283 527.278 110.26 527.047 110.287 526.82C110.315 526.593 110.393 526.375 110.515 526.181C110.637 525.988 110.801 525.824 110.995 525.702C113.5 523.989 116.436 523.014 119.468 522.889C125.789 522.77 127.365 524.16 127.365 524.16C128.092 524.481 128.736 524.964 129.247 525.572C129.758 526.18 130.123 526.897 130.314 527.668Z" fill="#455A64"/>
<path d="M113.486 510.603C116.162 510.282 118.876 510.656 121.366 511.687C122.434 512.382 123.061 514.161 122.332 514.568C120.134 513.548 117.718 513.088 115.299 513.229C112.931 513.334 110.598 513.844 108.402 514.738C107.843 514.941 107.199 515.246 106.707 515.517C106.526 515.61 106.328 515.664 106.125 515.677C105.922 515.689 105.718 515.659 105.527 515.589C105.336 515.519 105.162 515.41 105.015 515.27C104.868 515.129 104.752 514.959 104.674 514.772C104.567 514.458 104.573 514.118 104.691 513.808C104.808 513.499 105.03 513.24 105.318 513.077C107.833 511.68 110.618 510.837 113.486 510.603Z" fill="#455A64"/>
<path d="M166.597 493.775C170.732 504.129 177.206 500.943 187.069 494.978L188.56 459.627L163.462 457.305L166.597 493.775Z" fill="#FFA8A7"/>
<path d="M224.928 518.703C225.386 520.367 225.192 522.143 224.385 523.668C223.606 525.092 215.76 528.99 205.507 527.736C197.905 526.8 190.694 523.838 184.628 519.161C180.849 516.347 176.799 515.653 171.715 515.076C166.631 514.5 162.818 512.738 161.818 510.297C160.818 507.857 162.343 503.824 162.343 503.824L224.928 518.703Z" fill="#263238"/>
<path d="M185.001 486.115C185.928 485.919 186.84 485.659 187.73 485.335C188.227 485.151 188.774 485.151 189.272 485.335C189.916 485.623 190.119 486.403 190.272 487.03C190.416 488.563 190.712 490.079 191.153 491.555C191.846 492.779 192.767 493.86 193.864 494.741C196.307 496.927 198.971 498.852 201.812 500.486C205.083 502.485 208.303 504.061 211.675 505.807C215.048 507.552 219.776 508.806 222.454 510.891C226.334 513.84 226.487 520.703 221.742 523.143C217.658 525.262 207.083 527.228 196.322 523.533C190.441 521.517 184.171 514.789 176.375 513.755C171.41 513.111 164.801 512.331 161.801 508.383C160.717 506.688 161.666 501.774 162.547 496.029C163.343 490.945 164.072 482.81 165.716 483.352L165.834 484.912L167.834 487.301C168.272 487.767 168.736 488.209 169.224 488.623C169.759 489.249 170.325 489.849 170.918 490.419C171.724 491.109 172.726 491.53 173.783 491.622C174.283 491.654 174.783 491.542 175.223 491.3C176.07 490.826 176.189 489.707 176.918 489.013C177.706 488.202 178.652 487.562 179.697 487.132C181.149 486.615 182.666 486.307 184.205 486.216C184.472 486.2 184.738 486.166 185.001 486.115Z" fill="#8750F7"/>
<path opacity="0.2" d="M185.001 486.115C185.928 485.919 186.84 485.659 187.73 485.335C188.227 485.151 188.774 485.151 189.272 485.335C189.916 485.623 190.119 486.403 190.272 487.03C190.416 488.563 190.712 490.079 191.153 491.555C191.846 492.779 192.767 493.86 193.864 494.741C196.307 496.927 198.971 498.852 201.812 500.486C205.083 502.485 208.303 504.061 211.675 505.807C215.048 507.552 219.776 508.806 222.454 510.891C226.334 513.84 226.487 520.703 221.742 523.143C217.658 525.262 207.083 527.228 196.322 523.533C190.441 521.517 184.171 514.789 176.375 513.755C171.41 513.111 164.801 512.331 161.801 508.383C160.717 506.688 161.666 501.774 162.547 496.029C163.343 490.945 164.072 482.81 165.716 483.352L165.834 484.912L167.834 487.301C168.272 487.767 168.736 488.209 169.224 488.623C169.759 489.249 170.325 489.849 170.918 490.419C171.724 491.109 172.726 491.53 173.783 491.622C174.283 491.654 174.783 491.542 175.223 491.3C176.07 490.826 176.189 489.707 176.918 489.013C177.706 488.202 178.652 487.562 179.697 487.132C181.149 486.615 182.666 486.307 184.205 486.216C184.472 486.2 184.738 486.166 185.001 486.115Z" fill="black"/>
<path d="M197.322 497.469C196.995 496.765 196.499 496.154 195.878 495.689C195.257 495.225 194.53 494.922 193.763 494.808C191.526 494.266 187.442 495.723 184.849 497.638C184.602 497.818 184.404 498.054 184.27 498.328C184.136 498.601 184.072 498.903 184.082 499.208C184.092 499.512 184.176 499.809 184.328 500.073C184.479 500.337 184.693 500.56 184.95 500.723C185.277 500.92 185.655 501.014 186.036 500.993C186.417 500.972 186.783 500.836 187.086 500.604C189.953 498.254 193.63 497.128 197.322 497.469Z" fill="#455A64"/>
<path d="M204.117 501.824C203.66 501.103 203.037 500.502 202.3 500.072C201.563 499.641 200.733 499.394 199.881 499.35C196.384 499.315 192.967 500.389 190.119 502.417C189.878 502.584 189.681 502.807 189.545 503.067C189.409 503.327 189.337 503.615 189.337 503.909C189.337 504.202 189.409 504.491 189.545 504.751C189.681 505.01 189.878 505.233 190.119 505.4C190.436 505.591 190.805 505.681 191.174 505.657C191.544 505.632 191.897 505.495 192.187 505.264C193.788 503.829 195.692 502.774 197.758 502.179C199.824 501.583 201.998 501.462 204.117 501.824Z" fill="#455A64"/>
<path d="M211.675 505.79C211.147 505.117 210.481 504.566 209.72 504.174C208.96 503.782 208.124 503.558 207.269 503.519C203.895 503.546 200.616 504.637 197.898 506.637C197.662 506.812 197.472 507.042 197.345 507.306C197.217 507.57 197.156 507.862 197.166 508.155C197.176 508.449 197.257 508.735 197.402 508.99C197.547 509.245 197.752 509.461 197.999 509.62C198.307 509.827 198.674 509.928 199.045 509.907C199.415 509.885 199.768 509.743 200.05 509.501C201.563 508.017 203.403 506.908 205.421 506.264C207.44 505.619 209.582 505.457 211.675 505.79Z" fill="#455A64"/>
<path d="M99.0642 411.735C99.8268 394.67 103.453 385.79 103.962 381.062C103.962 381.062 105.351 287.177 107.639 258.689L191.695 255.113C192.932 285.617 194.051 367.572 193.39 378.418C192.763 388.806 188.543 478.912 188.543 478.912C176.68 482.624 164.021 477.218 164.021 477.218C164.021 477.218 156.971 425.954 155.819 414.65C155.001 404.483 155.262 394.258 156.598 384.146L151.226 311.156C151.226 311.156 144.736 367.758 141.533 389.111C137.872 413.532 122.078 489.233 122.078 489.233C110.724 492.063 99.6743 487.165 99.6743 487.165C99.6743 487.165 97.9457 436.461 99.0642 411.735Z" fill="#455A64"/>
<path d="M151.243 311.224L152.836 301.158C157.734 300.429 170.139 292.684 177.477 285.906C172.25 293.815 165.177 300.335 156.87 304.903L156.615 384.18L151.243 311.224Z" fill="#37474F"/>
<path d="M185.713 205.663C180.002 192.63 170.173 170.684 170.173 170.684L167.682 135.096C171.318 135.212 174.945 135.535 178.545 136.062C183.832 136.893 192.221 141.943 196.051 151.467C198.915 158.534 213.794 201.646 213.794 201.646L239.722 187.987C246.365 183.767 248.721 176.768 252.958 172.735C257.194 168.702 261.431 168.092 266.125 164.855C270.82 161.618 272.667 159.025 273.853 162.262C275.039 165.499 269.786 170.464 268.769 171.701C267.752 172.938 262.651 175.582 269.159 175.921C275.666 176.26 288.834 169.922 291.986 168.837C295.138 167.753 294.867 171.498 293.223 173.82C291.579 176.141 291.41 182.954 288.665 186.767C285.75 190.834 284.174 192.58 277.92 195.003C272.108 197.24 260.058 197.816 253.856 201.392C247.653 204.968 232.639 218.542 222.623 225.507C209.184 234.862 201.626 235.472 196.356 228.015C191.085 220.559 187.73 210.255 185.713 205.663Z" fill="#FFA8A7"/>
<path d="M164.174 134.334C172.986 133.656 183.374 134.198 189.119 139.418C193.712 143.604 195.44 146.196 200.558 160.669C203.948 170.38 211.201 192.749 211.201 192.749C201.242 194.996 192.305 200.471 185.781 208.323L169.258 171.193L164.174 134.334Z" fill="#E0E0E0"/>
<path d="M213.794 201.562C209.328 203.143 205.486 206.112 202.829 210.035C202.829 210.035 203.456 203.256 212.997 199.206L213.794 201.562Z" fill="#F28F8F"/>
<path d="M143.075 132.741C138.901 132.569 134.725 133.026 130.687 134.097C122.942 136.147 109.063 140.045 109.063 140.045C104.657 142.333 102.945 149.959 101.945 154.348C98.7592 168.397 107.029 200.104 108.3 212.459C109.571 224.813 106.826 262.655 106.826 262.655C116.299 273.636 167.631 280.923 192.627 262.655C192.627 262.655 193.712 175.769 191.255 163.296C187.526 144.417 181.985 135.452 162.445 134.317L143.075 132.741Z" fill="#F5F5F5"/>
<path d="M154.04 86.1372L148.464 89.2046C148.078 88.4369 147.998 87.5515 148.241 86.7272C148.483 85.9029 149.029 85.2014 149.769 84.7645C150.137 84.5645 150.543 84.4412 150.96 84.4021C151.378 84.3631 151.799 84.4091 152.198 84.5374C152.597 84.6658 152.966 84.8737 153.283 85.1487C153.599 85.4236 153.857 85.7599 154.04 86.1372Z" fill="#263238"/>
<path d="M178.29 88.3742L173.206 84.4595C173.445 84.1157 173.751 83.824 174.107 83.6024C174.462 83.3808 174.858 83.2338 175.272 83.1704C175.686 83.1069 176.108 83.1284 176.514 83.2335C176.919 83.3386 177.299 83.5251 177.629 83.7816C178.303 84.3196 178.746 85.0939 178.869 85.9471C178.992 86.8003 178.785 87.6682 178.29 88.3742Z" fill="#263238"/>
<path d="M128.416 68.394C128.416 68.394 122.417 69.2244 120.214 73.8001C118.316 77.7317 118.994 87.2219 121.553 97.5255C122.999 104.211 125.158 110.722 127.992 116.947C128.994 118.71 130.63 120.025 132.568 120.624L132.246 108.321L131.805 99.8472C131.805 99.8472 137.279 92.3568 137.889 86.2898C138.669 78.3926 137.008 75.1558 137.008 75.1558L128.416 68.394Z" fill="#263238"/>
<path d="M138.093 80.2569C138.115 86.3292 140.545 92.1446 144.85 96.4273C149.155 100.71 154.983 103.11 161.055 103.101C173.698 103.101 183.188 92.6788 183.086 80.0196C182.985 67.3604 173.494 57.2262 160.835 57.277C154.776 57.3218 148.982 59.7648 144.719 64.0715C140.457 68.3781 138.074 74.1977 138.093 80.2569Z" fill="#263238"/>
<path d="M132.246 98.4068C130.178 100.203 128.501 95.5767 126.772 93.7634C125.044 91.9501 119.366 89.5098 116.604 95.4581C113.842 101.406 119.078 110.032 123.383 111.693C124.682 112.185 126.109 112.225 127.434 111.807C128.759 111.389 129.905 110.537 130.687 109.388V136.503C137.211 148.264 148.718 147.891 154.87 147.23C161.022 146.57 162.36 140.181 157.869 135.029V126.555C161.287 127.092 164.754 127.257 168.207 127.047C173.833 126.166 176.68 121.963 178.375 115.811C181.087 105.999 182.188 89.5267 178.375 70.4955C172.071 65.6148 150.21 66.4283 136.974 74.8169C138.008 91.8823 134.212 96.6274 132.246 98.4068Z" fill="#FFA8A7"/>
<path d="M179.494 61.0729C180.345 57.5401 180.727 53.9105 180.629 50.2778C180.629 48.8543 180.273 47.1257 178.934 46.5834C177.596 46.0411 176.274 47.024 175.121 47.8036C170.241 51.0913 164.174 52.0233 158.293 52.3453C148.125 52.9046 132.585 52.2436 127.416 63.3777C125.976 66.462 125.721 69.7158 128.569 71.851C131.107 73.5514 134.009 74.6312 137.042 75.0031C142.126 75.9013 147.21 77.0198 152.43 77.7146C157.649 78.4094 163.852 79.0873 169.02 77.4943C173.376 76.1555 177.799 75.0031 181.036 71.546C183.841 68.5315 185.424 64.5805 185.476 60.4628C185.476 59.8866 185.357 59.1579 184.781 59.0054C184.493 58.9692 184.201 59.0288 183.951 59.1749L179.494 61.0729Z" fill="#263238"/>
<path d="M157.819 126.742C157.819 126.742 145.244 124.251 140.872 121.929C138.282 120.587 136.156 118.497 134.771 115.93C135.415 118.494 136.568 120.903 138.16 123.013C141.397 127.115 157.785 130.08 157.785 130.08L157.819 126.742Z" fill="#F28F8F"/>
<path d="M155.294 94.4578C155.277 95.0136 155.097 95.5522 154.776 96.0064C154.455 96.4605 154.007 96.81 153.489 97.0113C152.971 97.2126 152.404 97.2567 151.861 97.1381C151.318 97.0195 150.822 96.7435 150.434 96.3445C150.047 95.9456 149.786 95.4413 149.683 94.8948C149.581 94.3482 149.641 93.7836 149.858 93.2714C150.074 92.7592 150.437 92.3221 150.9 92.0147C151.364 91.7073 151.907 91.5432 152.463 91.543C153.225 91.5563 153.949 91.8704 154.48 92.4166C155.01 92.9628 155.303 93.6966 155.294 94.4578Z" fill="#263238"/>
<path d="M159.361 114.032C159.374 114.748 159.104 115.44 158.609 115.958C158.113 116.476 157.433 116.776 156.717 116.794C155.996 116.78 155.31 116.482 154.809 115.965C154.307 115.447 154.03 114.752 154.039 114.032C154.033 113.678 154.096 113.326 154.225 112.996C154.354 112.667 154.547 112.366 154.793 112.111C155.038 111.856 155.331 111.652 155.656 111.511C155.98 111.369 156.329 111.293 156.683 111.286C157.401 111.299 158.084 111.595 158.586 112.109C159.087 112.623 159.365 113.314 159.361 114.032Z" fill="#B16668"/>
<path d="M151.735 85.5608L145.905 89.2382C145.424 88.438 145.272 87.4825 145.48 86.5724C145.689 85.6623 146.242 84.8685 147.024 84.3576C147.41 84.1206 147.84 83.9636 148.289 83.8959C148.737 83.8282 149.194 83.8511 149.633 83.9633C150.073 84.0755 150.485 84.2747 150.846 84.5491C151.207 84.8235 151.509 85.1675 151.735 85.5608Z" fill="#263238"/>
<path d="M172.308 81.9683L178.443 84.7136C178.277 85.1163 178.032 85.4813 177.721 85.7864C177.411 86.0916 177.042 86.3306 176.636 86.489C176.231 86.6474 175.797 86.7219 175.362 86.7081C174.927 86.6942 174.499 86.5922 174.104 86.4083C173.304 86.0275 172.675 85.3601 172.342 84.538C172.009 83.7158 171.997 82.7989 172.308 81.9683Z" fill="#263238"/>
<path d="M175.545 93.6109C175.525 94.145 175.349 94.6615 175.038 95.0963C174.727 95.531 174.295 95.8649 173.796 96.0564C173.297 96.2479 172.753 96.2886 172.231 96.1735C171.709 96.0584 171.232 95.7925 170.86 95.4089C170.488 95.0252 170.237 94.5407 170.137 94.0155C170.038 93.4903 170.095 92.9475 170.302 92.4546C170.509 91.9616 170.855 91.5402 171.299 91.2426C171.743 90.9451 172.265 90.7845 172.8 90.7808C173.538 90.7941 174.242 91.0993 174.756 91.6296C175.27 92.1598 175.554 92.8722 175.545 93.6109Z" fill="#263238"/>
<path d="M161.682 88.8315L162.699 107.676L171.63 105.304L161.682 88.8315Z" fill="#F28F8F"/>
<path d="M3.45062 166.448C6.38241 168.024 18.3299 176.429 24.8205 177.158C27.5659 177.463 28.3116 177.023 28.2099 176.311C28.0743 175.328 26.3288 173.854 25.9051 173.057C25.1764 171.667 20.8211 165.905 22.5158 162.889C24.2104 159.872 25.6848 162.753 29.7181 166.702C33.7515 170.651 37.8865 172.023 41.4284 176.616C44.9702 181.208 46.1565 188.479 52.0201 193.749L75.3727 209.696C75.3727 209.696 86.2525 159.212 91.0315 153.263C96.1156 147.01 117.926 160.635 113.35 180.514C108.775 200.392 98.3525 234.896 91.0993 241.658C86.422 246.047 76.5759 241.912 64.2895 230.981C54.579 222.338 41.2758 209.374 35.6495 204.781C30.0232 200.189 18.3299 197.715 12.9578 194.613C7.17891 191.224 5.9079 189.241 3.68787 184.75C1.60342 180.531 2.53549 173.769 1.29838 171.193C0.0612645 168.617 0.467987 164.872 3.45062 166.448Z" fill="#FFA8A7"/>
<path d="M109.063 140.045C116.553 144.722 116.926 151.535 117.299 159.33C117.405 168.455 115.961 177.532 113.028 186.174C109.859 195.986 104.826 213.899 104.826 213.899C104.826 213.899 85.2695 214.356 75.2031 205.663C75.2031 205.663 79.7957 186.343 83.0325 171.769C86.2694 157.195 90.201 141.689 109.063 140.045Z" fill="#E0E0E0"/>
<path d="M75.2878 209.73C80.626 212.696 83.7612 219.068 84.7271 221.593C84.496 218.653 83.5706 215.809 82.0269 213.296C80.4831 210.783 78.3652 208.672 75.847 207.137L75.2878 209.73Z" fill="#F28F8F"/>
<path d="M278.175 576L408.97 651.515V679.342L278.175 603.827V576Z" fill="#8750F7"/>
<path opacity="0.35" d="M278.175 576L408.97 651.515V679.342L278.175 603.827V576Z" fill="black"/>
<path d="M539.765 576L408.97 651.515V679.342L539.765 603.827V576Z" fill="#8750F7"/>
<path opacity="0.2" d="M539.765 576L408.97 651.515V679.342L539.765 603.827V576Z" fill="black"/>
<path d="M539.765 576L408.97 500.502L278.175 576L408.97 651.515L539.765 576Z" fill="#8750F7"/>
<path opacity="0.15" d="M539.765 576L408.97 500.502L278.175 576L408.97 651.515L539.765 576Z" fill="black"/>
<path opacity="0.1" d="M408.97 651.515V643.567L291.935 576H278.175L408.97 651.515Z" fill="black"/>
<path opacity="0.1" d="M408.97 500.502V508.45L526.004 576H539.765L408.97 500.502Z" fill="black"/>
<path d="M539.765 576H526.004L408.97 643.567V651.515L539.765 576Z" fill="#8750F7"/>
<path d="M408.97 500.502V508.45L291.935 576H278.175L408.97 500.502Z" fill="#8750F7"/>
<path d="M409.444 543.225L465.64 575.661C469.842 578.102 469.842 582.033 465.64 584.457L423.73 608.724C421.369 609.931 418.756 610.56 416.104 610.56C413.453 610.56 410.839 609.931 408.478 608.724L352.283 576.288C348.08 573.848 348.08 569.916 352.283 567.493L394.209 543.225C396.568 542.022 399.178 541.394 401.827 541.394C404.475 541.394 407.085 542.022 409.444 543.225Z" fill="#37474F"/>
<path d="M423.73 608.725L464.25 585.321L409.444 553.682C407.079 552.49 404.467 551.869 401.818 551.869C399.169 551.869 396.557 552.49 394.192 553.682L353.672 577.119L408.478 608.725C410.839 609.931 413.453 610.56 416.104 610.56C418.756 610.56 421.369 609.931 423.73 608.725Z" fill="#455A64"/>
<path d="M375.5 576.051L400.09 561.867C400.547 561.637 401.052 561.518 401.564 561.518C402.076 561.518 402.581 561.637 403.038 561.867L406.055 563.561C406.868 564.019 406.868 564.782 406.055 565.256L381.465 579.441C381.01 579.67 380.508 579.789 379.999 579.789C379.49 579.789 378.988 579.67 378.533 579.441L375.517 577.746C375.341 577.686 375.187 577.573 375.078 577.422C374.969 577.271 374.91 577.091 374.908 576.904C374.906 576.718 374.962 576.536 375.068 576.384C375.174 576.231 375.325 576.115 375.5 576.051Z" fill="#263238"/>
<path d="M412.223 597.285L436.813 583.101C437.268 582.871 437.77 582.752 438.279 582.752C438.788 582.752 439.29 582.871 439.745 583.101L442.778 584.796C443.592 585.253 443.592 586.016 442.778 586.49L418.189 600.675C417.734 600.904 417.232 601.024 416.723 601.024C416.214 601.024 415.712 600.904 415.257 600.675L412.24 598.98C412.064 598.92 411.911 598.807 411.802 598.656C411.693 598.506 411.633 598.325 411.632 598.139C411.63 597.953 411.686 597.771 411.792 597.618C411.898 597.465 412.049 597.349 412.223 597.285Z" fill="#263238"/>
<path d="M352.147 630.958C352.009 628.386 351.264 625.883 349.974 623.654C348.684 621.424 346.885 619.532 344.724 618.13C343.977 617.584 343.097 617.249 342.176 617.159C341.255 617.07 340.326 617.23 339.488 617.621L336.285 619.485C335.531 620.017 334.933 620.74 334.551 621.58C334.17 622.42 334.02 623.347 334.116 624.264C334.256 626.836 335 629.339 336.286 631.571C337.573 633.802 339.366 635.7 341.522 637.11C342.272 637.656 343.155 637.991 344.079 638.08C345.003 638.169 345.934 638.01 346.775 637.619L349.961 635.704C350.71 635.174 351.307 634.457 351.691 633.624C352.074 632.791 352.232 631.872 352.147 630.958Z" fill="#8750F7"/>
<path opacity="0.1" d="M341.522 620.045C343.683 621.447 345.481 623.34 346.771 625.569C348.061 627.799 348.806 630.302 348.944 632.874C348.944 637.602 345.555 639.517 341.522 637.161C339.366 635.751 337.573 633.853 336.286 631.622C335 629.39 334.256 626.888 334.116 624.316C334.116 619.604 337.437 617.689 341.522 620.045Z" fill="black"/>
<path d="M255.551 674.173C247.281 674.317 239.113 672.339 231.825 668.428L145.058 618.333C138.093 614.3 134.246 608.742 134.246 602.675C134.246 596.608 138.093 591.066 145.058 587.033L245.586 528.99C256.601 522.635 265.922 506.519 265.922 493.792V175.65C265.922 174.751 266.279 173.889 266.915 173.253C267.55 172.618 268.412 172.261 269.311 172.261C270.21 172.261 271.072 172.618 271.708 173.253C272.344 173.889 272.701 174.751 272.701 175.65V493.792C272.701 509.145 262.295 527.194 248.975 534.871L148.447 592.913C143.668 595.676 141.024 599.133 141.024 602.675C141.024 606.216 143.668 609.691 148.447 612.453L235.214 662.548C246.416 669.021 264.651 669.021 275.887 662.548L339.861 625.638C340.246 625.392 340.678 625.228 341.129 625.153C341.58 625.079 342.041 625.097 342.485 625.206C342.929 625.315 343.347 625.512 343.713 625.786C344.078 626.061 344.385 626.406 344.613 626.802C344.842 627.197 344.989 627.635 345.044 628.089C345.099 628.543 345.062 629.003 344.934 629.442C344.807 629.881 344.592 630.29 344.303 630.644C344.013 630.998 343.655 631.289 343.25 631.501L279.276 668.428C271.99 672.343 263.821 674.321 255.551 674.173Z" fill="#37474F"/>
<path d="M103.301 53.9891C103.251 53.7593 103.249 53.5216 103.296 53.2912C103.342 53.0607 103.436 52.8424 103.572 52.6503C103.7 52.4494 103.868 52.2776 104.067 52.1462C104.265 52.0148 104.49 51.9267 104.724 51.8877L112.961 50.2947C113.193 50.2421 113.434 50.239 113.667 50.2857C113.901 50.3324 114.122 50.4279 114.316 50.5658C114.71 50.8368 114.983 51.2499 115.079 51.7182L116.35 58.3275C116.398 58.5584 116.397 58.7967 116.347 59.0273C116.297 59.2578 116.2 59.4754 116.062 59.6663C115.938 59.8684 115.772 60.0423 115.577 60.1766C115.381 60.3109 115.16 60.4026 114.926 60.4458L106.673 62.0219C106.444 62.072 106.206 62.0738 105.975 62.0271C105.745 61.9805 105.527 61.8863 105.334 61.7507C105.134 61.623 104.962 61.4543 104.83 61.2558C104.699 61.0572 104.611 60.8332 104.572 60.5983L103.301 53.9891ZM96.4205 18.2992C96.3737 18.0666 96.3735 17.8269 96.4199 17.5942C96.4663 17.3615 96.5583 17.1402 96.6906 16.9433C96.823 16.7463 96.9931 16.5775 97.191 16.4467C97.389 16.3158 97.6109 16.2255 97.844 16.1809L106.097 14.5879C106.328 14.5401 106.566 14.5411 106.797 14.5907C107.027 14.6403 107.245 14.7374 107.436 14.876C107.635 15.0018 107.806 15.1678 107.937 15.3633C108.068 15.5588 108.157 15.7795 108.198 16.0114L113.604 44.2616C113.652 44.4926 113.651 44.7309 113.602 44.9614C113.552 45.192 113.455 45.4096 113.316 45.6004C113.191 45.7995 113.025 45.9701 112.829 46.1014C112.634 46.2327 112.413 46.3218 112.181 46.363L103.928 47.956C103.697 48.0038 103.459 48.0029 103.228 47.9532C102.998 47.9036 102.78 47.8065 102.589 47.6679C102.39 47.5421 102.219 47.3761 102.088 47.1806C101.957 46.9851 101.868 46.7644 101.826 46.5325L96.4205 18.2992Z" fill="#8750F7"/>
<path d="M89.5401 81.6461C89.3817 81.4705 89.2594 81.2654 89.1805 81.0424C89.1015 80.8195 89.0673 80.5831 89.0799 80.3469C89.0925 80.1108 89.1516 79.8794 89.2539 79.6661C89.3561 79.4528 89.4995 79.2618 89.6757 79.1041L95.929 73.4947C96.1036 73.334 96.3099 73.2118 96.5347 73.1359C96.7595 73.06 96.9977 73.0321 97.2339 73.0541C97.4688 73.0591 97.7001 73.113 97.9131 73.2122C98.126 73.3113 98.3161 73.4537 98.4711 73.6303L102.962 78.7143C103.12 78.8899 103.243 79.0951 103.322 79.318C103.401 79.541 103.435 79.7773 103.422 80.0135C103.41 80.2497 103.35 80.481 103.248 80.6943C103.146 80.9076 103.003 81.0986 102.826 81.2563L96.6578 86.7979C96.4832 86.9586 96.2769 87.0809 96.0521 87.1568C95.8273 87.2327 95.5891 87.2605 95.3529 87.2385C95.118 87.2335 94.8867 87.1797 94.6737 87.0805C94.4608 86.9813 94.2708 86.8389 94.1157 86.6623L89.5401 81.6461ZM65.2893 54.5313C64.9704 54.1738 64.8059 53.7047 64.8317 53.2264C64.8389 52.9902 64.8954 52.7582 64.9975 52.5451C65.0997 52.3321 65.2452 52.1427 65.4249 51.9893L71.6782 46.3799C71.8513 46.2162 72.057 46.0908 72.2819 46.012C72.5067 45.9331 72.7457 45.9026 72.9831 45.9223C73.2193 45.9295 73.4513 45.986 73.6644 46.0881C73.8774 46.1903 74.0668 46.3358 74.2202 46.5155L93.404 67.9701C93.5647 68.1446 93.6869 68.351 93.7628 68.5757C93.8387 68.8005 93.8666 69.0387 93.8446 69.275C93.8395 69.5099 93.7857 69.7411 93.6865 69.9541C93.5873 70.1671 93.445 70.3571 93.2684 70.5121L86.9981 76.1215C86.8255 76.28 86.622 76.4009 86.4003 76.4768C86.1786 76.5526 85.9436 76.5817 85.7102 76.5621C85.4724 76.5594 85.2379 76.5067 85.0218 76.4074C84.8057 76.3082 84.613 76.1645 84.4561 75.9859L65.2893 54.5313Z" fill="#8750F7"/>
<g opacity="0.6">
<path d="M89.5401 81.6461C89.3817 81.4705 89.2594 81.2654 89.1805 81.0424C89.1015 80.8195 89.0673 80.5831 89.0799 80.3469C89.0925 80.1108 89.1516 79.8794 89.2539 79.6661C89.3561 79.4528 89.4995 79.2618 89.6757 79.1041L95.929 73.4947C96.1036 73.334 96.3099 73.2118 96.5347 73.1359C96.7595 73.06 96.9977 73.0321 97.2339 73.0541C97.4688 73.0591 97.7001 73.113 97.9131 73.2122C98.126 73.3113 98.3161 73.4537 98.4711 73.6303L102.962 78.7143C103.12 78.8899 103.243 79.0951 103.322 79.318C103.401 79.541 103.435 79.7773 103.422 80.0135C103.41 80.2497 103.35 80.481 103.248 80.6943C103.146 80.9076 103.003 81.0986 102.826 81.2563L96.6578 86.7979C96.4832 86.9586 96.2769 87.0809 96.0521 87.1568C95.8273 87.2327 95.5891 87.2605 95.3529 87.2385C95.118 87.2335 94.8867 87.1797 94.6737 87.0805C94.4608 86.9813 94.2708 86.8389 94.1157 86.6623L89.5401 81.6461ZM65.2893 54.5313C64.9704 54.1738 64.8059 53.7047 64.8317 53.2264C64.8389 52.9902 64.8954 52.7582 64.9975 52.5451C65.0997 52.3321 65.2452 52.1427 65.4249 51.9893L71.6782 46.3799C71.8513 46.2162 72.057 46.0908 72.2819 46.012C72.5067 45.9331 72.7457 45.9026 72.9831 45.9223C73.2193 45.9295 73.4513 45.986 73.6644 46.0881C73.8774 46.1903 74.0668 46.3358 74.2202 46.5155L93.404 67.9701C93.5647 68.1446 93.6869 68.351 93.7628 68.5757C93.8387 68.8005 93.8666 69.0387 93.8446 69.275C93.8395 69.5099 93.7857 69.7411 93.6865 69.9541C93.5873 70.1671 93.445 70.3571 93.2684 70.5121L86.9981 76.1215C86.8255 76.28 86.622 76.4009 86.4003 76.4768C86.1786 76.5526 85.9436 76.5817 85.7102 76.5621C85.4724 76.5594 85.2379 76.5067 85.0218 76.4074C84.8057 76.3082 84.613 76.1645 84.4561 75.9859L65.2893 54.5313Z" fill="white"/>
</g>
<path d="M250.873 2.62373C253.776 2.44185 256.647 3.31448 258.957 5.08101C259.946 5.9817 260.719 7.09424 261.218 8.33553C261.717 9.57682 261.929 10.9148 261.838 12.2495C261.924 13.5913 261.71 14.9354 261.212 16.1842C260.714 17.433 259.943 18.5551 258.957 19.4688C256.662 21.2725 253.788 22.1764 250.873 22.0108H244.095V31.5857C244.098 31.7401 244.07 31.8935 244.012 32.0364C243.954 32.1793 243.866 32.3086 243.756 32.4161C243.65 32.524 243.523 32.6095 243.383 32.6677C243.244 32.726 243.094 32.7556 242.942 32.7551H239.468C239.314 32.7574 239.161 32.7287 239.018 32.6707C238.875 32.6128 238.745 32.5267 238.636 32.4177C238.527 32.3086 238.441 32.1788 238.383 32.0359C238.325 31.893 238.297 31.7399 238.299 31.5857V3.82695C238.299 3.67418 238.329 3.52293 238.388 3.382C238.447 3.24107 238.534 3.11328 238.642 3.00604C238.751 2.89881 238.88 2.81429 239.022 2.75738C239.164 2.70047 239.315 2.67232 239.468 2.67457L250.873 2.62373ZM244.095 16.6387H250.755C252.126 16.7097 253.488 16.3736 254.669 15.6727C255.187 15.2839 255.593 14.7665 255.849 14.172C256.105 13.5774 256.201 12.9264 256.127 12.2834C256.209 11.6397 256.118 10.9857 255.861 10.3895C255.605 9.79336 255.193 9.27691 254.669 8.89403C253.476 8.22709 252.12 7.90992 250.755 7.97891H244.095V16.6387Z" fill="#455A64"/>
<path d="M265.719 15.9098C265.87 15.2247 266.14 14.571 266.515 13.9779C266.959 13.2373 267.533 12.5829 268.21 12.046C269.052 11.3959 269.997 10.8918 271.006 10.5547C272.247 10.1467 273.547 9.95183 274.853 9.97848C276.192 9.95739 277.525 10.1519 278.802 10.5547C279.916 10.9097 280.948 11.4861 281.835 12.2493C282.695 13.0225 283.362 13.9858 283.784 15.0625C284.263 16.3052 284.499 17.6285 284.479 18.9603V31.5856C284.479 31.741 284.448 31.8949 284.387 32.0377C284.326 32.1806 284.236 32.3093 284.123 32.416C284.017 32.5246 283.891 32.6107 283.751 32.6689C283.611 32.7272 283.461 32.7565 283.309 32.7549H280.056C279.901 32.7572 279.748 32.7285 279.605 32.6706C279.463 32.6126 279.333 32.5266 279.224 32.4175C279.115 32.3085 279.029 32.1787 278.971 32.0358C278.913 31.8929 278.884 31.7398 278.886 31.5856V30.179C278.206 31.0845 277.316 31.8114 276.293 32.2974C274.945 32.9339 273.462 33.2361 271.972 33.1786C270.823 33.2028 269.678 33.0367 268.583 32.6871C267.675 32.4015 266.838 31.928 266.125 31.2975C265.474 30.6999 264.954 29.9726 264.6 29.1622C264.241 28.3158 264.062 27.4039 264.075 26.4846C264.032 25.5995 264.2 24.7169 264.566 23.9096C264.931 23.1023 265.483 22.3934 266.176 21.8412C267.875 20.5993 269.865 19.8171 271.955 19.5703L278.954 18.3671C278.998 17.8873 278.914 17.4045 278.712 16.9672C278.509 16.5299 278.196 16.1536 277.802 15.876C276.927 15.3712 275.93 15.119 274.921 15.1472C274.34 15.1178 273.76 15.2221 273.226 15.4523C272.804 15.6647 272.415 15.9389 272.074 16.2657C271.863 16.4606 271.623 16.6207 271.362 16.7402C271.135 16.8291 270.894 16.8751 270.65 16.8758H266.651C266.382 16.8855 266.119 16.788 265.922 16.6047C265.824 16.5212 265.753 16.411 265.717 16.2876C265.681 16.1642 265.681 16.0329 265.719 15.9098ZM272.904 28.0437C273.785 28.0573 274.662 27.9198 275.497 27.637C276.199 27.3945 276.849 27.0207 277.412 26.5355C277.902 26.1097 278.295 25.5838 278.564 24.9933C278.814 24.4628 278.947 23.8849 278.954 23.2986V22.7902L273.107 23.807C272.212 23.9142 271.35 24.2149 270.582 24.6883C270.332 24.8655 270.129 25.1024 269.993 25.3776C269.857 25.6528 269.792 25.9575 269.803 26.2643C269.8 26.5567 269.888 26.8427 270.055 27.0826C270.222 27.3226 270.46 27.5045 270.735 27.6031C271.419 27.9004 272.158 28.0505 272.904 28.0437Z" fill="#455A64"/>
<path d="M300.019 37.0422C300.644 37.0399 301.266 36.9486 301.866 36.7711C302.483 36.5894 303.058 36.2901 303.561 35.8898C304.081 35.4699 304.513 34.9516 304.832 34.3646C305.168 33.6918 305.337 32.9476 305.323 32.1954V30.6024C305.047 30.9035 304.747 31.1813 304.425 31.4328C304.008 31.767 303.553 32.0514 303.069 32.2802C302.478 32.5586 301.859 32.7744 301.222 32.9241C300.438 33.1015 299.636 33.1868 298.833 33.1783C297.493 33.2002 296.166 32.9162 294.952 32.348C293.82 31.8146 292.81 31.053 291.986 30.111C291.153 29.1631 290.499 28.0722 290.054 26.8911C289.577 25.6736 289.308 24.3847 289.258 23.0781C289.258 22.6544 289.258 22.146 289.258 21.5868C289.258 21.0275 289.258 20.5022 289.258 20.0785C289.308 18.7719 289.577 17.483 290.054 16.2655C290.503 15.0863 291.157 13.9961 291.986 13.0456C292.805 12.1055 293.809 11.344 294.935 10.8086C296.149 10.2403 297.476 9.95634 298.816 9.97823C299.619 9.96978 300.421 10.0551 301.205 10.2324C301.842 10.3822 302.461 10.598 303.052 10.8764C303.536 11.1052 303.991 11.3896 304.408 11.7237C304.73 11.9753 305.03 12.253 305.306 12.5541V11.5712C305.311 11.2653 305.433 10.9729 305.648 10.755C305.862 10.5371 306.153 10.4106 306.459 10.4019H309.729C310.036 10.4144 310.326 10.5416 310.542 10.7583C310.759 10.9749 310.886 11.2651 310.899 11.5712V31.7209C310.998 33.1607 310.789 34.6051 310.286 35.9579C309.784 37.3108 308.999 38.5412 307.984 39.5673C305.761 41.4273 302.913 42.3724 300.019 42.211C298.641 42.2211 297.269 42.0211 295.952 41.6178C294.796 41.2837 293.703 40.7628 292.715 40.0757C291.848 39.4938 291.1 38.7518 290.512 37.8895C289.992 37.1433 289.682 36.2714 289.614 35.3645C289.6 35.2131 289.621 35.0606 289.677 34.9192C289.733 34.7779 289.822 34.6517 289.936 34.551C290.158 34.3353 290.456 34.2138 290.766 34.2121H293.698C293.888 34.2081 294.078 34.242 294.255 34.3118C294.433 34.3816 294.595 34.486 294.732 34.6188C295.02 34.89 295.257 35.1442 295.46 35.3645C295.864 35.8833 296.387 36.2963 296.985 36.5677C297.95 36.9441 298.985 37.1061 300.019 37.0422ZM294.935 20.3835C294.85 21.1834 294.85 21.9901 294.935 22.79C294.947 24.3002 295.556 25.7443 296.63 26.8064C297.629 27.6315 298.893 28.0652 300.188 28.0265C301.484 28.0643 302.747 27.6171 303.73 26.7725C304.235 26.322 304.646 25.7751 304.937 25.164C305.228 24.5529 305.394 23.8898 305.425 23.2137C305.487 22.651 305.516 22.0851 305.51 21.519C305.515 20.9529 305.486 20.387 305.425 19.8243C305.355 18.5027 304.772 17.2606 303.801 16.3619C302.829 15.4631 301.545 14.9787 300.222 15.0114C298.927 14.9728 297.662 15.4065 296.664 16.2316C296.109 16.7706 295.67 17.4166 295.373 18.1302C295.076 18.8439 294.927 19.6105 294.935 20.3835Z" fill="#455A64"/>
<path d="M315.729 21.587C315.721 20.042 315.973 18.5067 316.474 17.0452C316.946 15.6789 317.69 14.4222 318.66 13.3509C319.6 12.2925 320.756 11.4487 322.05 10.8766C323.43 10.2898 324.914 9.9873 326.413 9.9873C327.913 9.9873 329.397 10.2898 330.777 10.8766C332.055 11.4244 333.208 12.2257 334.167 13.2322C335.095 14.2486 335.82 15.4337 336.302 16.7233C336.798 18.0628 337.051 19.4805 337.048 20.9091V22.841C337.053 22.9931 337.026 23.1446 336.968 23.285C336.909 23.4255 336.821 23.5515 336.709 23.6545C336.606 23.7678 336.48 23.8581 336.34 23.9195C336.2 23.9808 336.048 24.0118 335.895 24.0104H321.541C321.535 24.6002 321.675 25.1823 321.948 25.705C322.216 26.2057 322.592 26.6401 323.05 26.9761C323.528 27.3323 324.068 27.5967 324.643 27.7556C325.243 27.9265 325.865 28.0121 326.49 28.0098C327.24 28.0301 327.989 27.9329 328.71 27.7217C329.218 27.5659 329.698 27.3315 330.133 27.0269C330.374 26.8393 330.636 26.68 330.913 26.5524C331.173 26.4548 331.449 26.4087 331.726 26.4168H335.116C335.426 26.4185 335.723 26.54 335.946 26.7557C336.065 26.8563 336.156 26.985 336.213 27.13C336.269 27.275 336.288 27.4318 336.268 27.5861C336.168 28.1439 335.942 28.6714 335.607 29.1283C335.096 29.846 334.465 30.4708 333.743 30.9755C332.793 31.6332 331.755 32.1524 330.659 32.5176C329.298 32.9677 327.872 33.1854 326.439 33.1616C324.94 33.1857 323.452 32.9031 322.067 32.3312C320.77 31.8025 319.611 30.9853 318.677 29.9417C317.707 28.9055 316.958 27.6833 316.474 26.349C315.956 24.8158 315.704 23.2052 315.729 21.587ZM326.269 15.1303C325.54 15.1091 324.813 15.2359 324.134 15.5031C323.583 15.7158 323.082 16.0387 322.66 16.4521C322.267 16.8153 321.95 17.2532 321.728 17.7401C321.52 18.167 321.382 18.6249 321.321 19.0958H331.031C330.969 18.6345 330.861 18.1804 330.71 17.7401C330.549 17.2577 330.283 16.8176 329.93 16.4521C329.537 16.0359 329.057 15.7118 328.523 15.5031C327.805 15.2292 327.038 15.1024 326.269 15.1303Z" fill="#455A64"/>
<path d="M372.28 31.5854C372.282 31.7382 372.254 31.8898 372.197 32.0316C372.14 32.1734 372.056 32.3024 371.948 32.4113C371.841 32.5201 371.713 32.6065 371.572 32.6654C371.432 32.7244 371.28 32.7548 371.128 32.7547H367.806C367.654 32.7563 367.504 32.727 367.364 32.6688C367.225 32.6105 367.098 32.5245 366.993 32.4158C366.88 32.3091 366.79 32.1804 366.728 32.0375C366.667 31.8947 366.636 31.7408 366.637 31.5854V20.6717C366.715 19.2022 366.291 17.7497 365.433 16.5536C364.985 16.021 364.416 15.6031 363.773 15.3349C363.13 15.0667 362.433 14.9558 361.739 15.0115C361.065 14.9787 360.392 15.1006 359.772 15.3679C359.152 15.6352 358.602 16.0408 358.163 16.5536C357.237 17.7203 356.767 19.1841 356.841 20.6717V31.5854C356.845 31.7397 356.817 31.8932 356.759 32.0361C356.7 32.179 356.613 32.3083 356.502 32.4158C356.396 32.5237 356.27 32.6092 356.13 32.6674C355.99 32.7256 355.84 32.7553 355.689 32.7547H352.554C352.403 32.7553 352.253 32.7256 352.113 32.6674C351.973 32.6092 351.847 32.5237 351.74 32.4158C351.63 32.3083 351.542 32.179 351.484 32.0361C351.426 31.8932 351.398 31.7397 351.402 31.5854V11.5713C351.396 11.4193 351.423 11.2678 351.482 11.1273C351.54 10.9869 351.628 10.8608 351.74 10.7578C351.843 10.6445 351.969 10.5542 352.109 10.4929C352.249 10.4315 352.401 10.4005 352.554 10.402H355.825C355.978 10.4005 356.129 10.4315 356.269 10.4929C356.41 10.5542 356.535 10.6445 356.638 10.7578C356.75 10.8608 356.838 10.9869 356.897 11.1273C356.955 11.2678 356.983 11.4193 356.977 11.5713V12.5542C357.745 11.7979 358.632 11.1738 359.604 10.707C360.718 10.1938 361.936 9.94444 363.163 9.9783C364.667 9.92873 366.165 10.2063 367.552 10.7917C368.657 11.2824 369.628 12.0323 370.382 12.9779C371.116 13.9223 371.637 15.0152 371.907 16.1808C372.216 17.4396 372.37 18.7315 372.365 20.0277L372.28 31.5854Z" fill="#455A64"/>
<path d="M387.837 9.9786C389.293 9.95496 390.742 10.2021 392.108 10.7073C393.33 11.189 394.451 11.8961 395.412 12.7918C396.341 13.648 397.099 14.6714 397.649 15.8083C398.213 16.9635 398.541 18.2193 398.615 19.5027C398.636 19.83 398.636 20.1583 398.615 20.4856V22.8751C398.636 23.1967 398.636 23.5194 398.615 23.8411C398.509 25.121 398.176 26.3719 397.632 27.5354C397.098 28.6675 396.343 29.6815 395.412 30.5181C394.445 31.3844 393.324 32.0626 392.108 32.5178C389.364 33.4735 386.378 33.4735 383.634 32.5178C382.387 32.0744 381.236 31.3955 380.245 30.5181C379.319 29.6808 378.57 28.6667 378.042 27.5354C377.493 26.3729 377.154 25.122 377.042 23.8411C377.042 23.5812 377.042 23.2592 377.042 22.8751C377.042 22.4853 377.042 22.0955 377.042 21.6888C377.042 21.2821 377.042 20.8923 377.042 20.4856C377.042 20.0789 377.042 19.7569 377.042 19.5027C377.132 18.222 377.46 16.9692 378.008 15.8083C378.558 14.6714 379.317 13.648 380.245 12.7918C381.236 11.9093 382.386 11.2247 383.634 10.7751C384.975 10.2549 386.399 9.98496 387.837 9.9786ZM393.04 19.6383C392.981 18.8692 392.768 18.1198 392.413 17.4352C392.112 16.8884 391.696 16.4141 391.193 16.0455C390.719 15.6963 390.176 15.4535 389.6 15.3338C389.044 15.2035 388.476 15.1353 387.905 15.1304C387.334 15.1343 386.766 15.2025 386.21 15.3338C385.634 15.4535 385.091 15.6963 384.617 16.0455C384.105 16.4047 383.687 16.8812 383.397 17.4352C383.034 18.1167 382.82 18.8677 382.77 19.6383C382.77 19.8755 382.77 20.1636 382.77 20.5025C382.77 20.8415 382.77 21.2143 382.77 21.5871C382.77 21.96 382.77 22.3158 382.77 22.6717C382.755 22.954 382.755 23.2368 382.77 23.5191C382.818 24.29 383.032 25.0414 383.397 25.7221C383.692 26.2777 384.109 26.7587 384.617 27.1287C385.098 27.4645 385.639 27.706 386.21 27.8405C386.768 27.9583 387.335 28.0208 387.905 28.0269C388.474 28.02 389.042 27.9576 389.6 27.8405C390.171 27.706 390.711 27.4645 391.193 27.1287C391.692 26.7495 392.108 26.2705 392.413 25.7221C392.77 25.0384 392.984 24.2886 393.04 23.5191C393.04 23.3157 393.04 23.0276 393.04 22.6717V20.5025C393.074 20.1636 393.057 19.8755 393.04 19.5705V19.6383Z" fill="#455A64"/>
<path d="M410.817 24.6543C410.778 25.43 411.032 26.192 411.529 26.7896C411.892 27.0951 412.314 27.3233 412.768 27.4603C413.223 27.5972 413.701 27.64 414.172 27.5861H416.799C416.951 27.5835 417.101 27.6123 417.241 27.6706C417.381 27.729 417.508 27.8156 417.613 27.925C417.721 28.0306 417.807 28.1571 417.865 28.2969C417.924 28.4368 417.953 28.587 417.951 28.7384V31.5686C417.954 31.7213 417.926 31.873 417.869 32.0148C417.812 32.1565 417.727 32.2856 417.62 32.3944C417.513 32.5032 417.385 32.5896 417.244 32.6486C417.103 32.7075 416.952 32.7379 416.799 32.7379H413.562C411.321 32.8858 409.106 32.1839 407.36 30.7721C406.586 29.9919 405.991 29.0528 405.617 28.0198C405.242 26.9868 405.097 25.8846 405.191 24.7898V15.5708H402.343C402.038 15.5621 401.747 15.4356 401.532 15.2177C401.318 14.9998 401.195 14.7074 401.191 14.4015V11.5714C401.195 11.2655 401.318 10.973 401.532 10.7552C401.747 10.5373 402.038 10.4107 402.343 10.402H405.191V3.40302C405.191 3.09739 405.312 2.80428 405.528 2.58817C405.744 2.37206 406.037 2.25064 406.343 2.25064H409.614C409.765 2.24811 409.916 2.2769 410.056 2.33523C410.196 2.39355 410.322 2.48014 410.427 2.58958C410.536 2.69515 410.622 2.82169 410.68 2.96152C410.738 3.10135 410.768 3.25155 410.766 3.40302V10.402H416.308C416.614 10.4145 416.904 10.5418 417.121 10.7584C417.337 10.975 417.464 11.2652 417.477 11.5714V14.4862C417.464 14.7923 417.337 15.0825 417.121 15.2992C416.904 15.5158 416.614 15.643 416.308 15.6555H410.766L410.817 24.6543Z" fill="#455A64"/>
<path d="M438.982 10.4021H444.948C445.103 10.4014 445.257 10.4326 445.4 10.4939C445.543 10.5551 445.671 10.645 445.778 10.7579C445.887 10.8635 445.973 10.9901 446.031 11.1299C446.089 11.2697 446.118 11.4199 446.117 11.5714V14.4862C446.118 14.6377 446.089 14.7879 446.031 14.9277C445.973 15.0676 445.887 15.1941 445.778 15.2997C445.671 15.4127 445.543 15.5025 445.4 15.5638C445.257 15.625 445.103 15.6562 444.948 15.6556H438.982V31.6702C438.985 31.823 438.956 31.9747 438.9 32.1165C438.843 32.2582 438.758 32.3873 438.651 32.4961C438.544 32.6049 438.416 32.6913 438.275 32.7503C438.134 32.8092 437.983 32.8396 437.83 32.8396H434.559C434.408 32.8411 434.258 32.8119 434.118 32.7536C433.978 32.6953 433.851 32.6093 433.746 32.5006C433.633 32.3939 433.543 32.2652 433.482 32.1224C433.421 31.9795 433.389 31.8256 433.39 31.6702V15.5708H430.509C430.356 15.5733 430.204 15.5429 430.063 15.4815C429.923 15.42 429.798 15.3292 429.695 15.2149C429.583 15.112 429.495 14.9859 429.437 14.8455C429.378 14.705 429.351 14.5535 429.357 14.4015V11.5714C429.351 11.4193 429.378 11.2679 429.437 11.1274C429.495 10.987 429.583 10.8609 429.695 10.7579C429.798 10.6437 429.923 10.5528 430.063 10.4914C430.204 10.43 430.356 10.3995 430.509 10.4021H433.339V8.47013C433.306 7.27728 433.513 6.08996 433.949 4.97909C434.304 4.06254 434.888 3.25178 435.644 2.6235C436.441 2.00845 437.359 1.56948 438.338 1.33554C439.483 1.07234 440.655 0.947174 441.829 0.962713H445.32C445.472 0.960177 445.623 0.988969 445.763 1.04729C445.903 1.10561 446.029 1.19221 446.134 1.30165C446.243 1.40722 446.329 1.53375 446.387 1.67358C446.445 1.81341 446.474 1.96362 446.473 2.11509V4.9452C446.475 5.09795 446.447 5.24963 446.39 5.3914C446.333 5.53318 446.249 5.66223 446.141 5.77104C446.034 5.87985 445.906 5.96625 445.765 6.02521C445.624 6.08418 445.473 6.11455 445.32 6.11453H442.372C441.502 6.05407 440.635 6.25471 439.881 6.69072C439.562 6.95913 439.317 7.30292 439.166 7.69072C439.015 8.07852 438.963 8.49796 439.016 8.91074L438.982 10.4021Z" fill="#455A64"/>
<path d="M459.319 9.9786C460.775 9.95496 462.223 10.2021 463.589 10.7073C464.787 11.1965 465.885 11.9032 466.826 12.7918C467.754 13.648 468.513 14.6714 469.063 15.8083C469.627 16.9635 469.955 18.2193 470.029 19.5027C470.05 19.83 470.05 20.1583 470.029 20.4856V22.8751C470.05 23.1967 470.05 23.5194 470.029 23.8411C469.923 25.121 469.59 26.3719 469.046 27.5354C468.512 28.6675 467.757 29.6815 466.826 30.5181C465.858 31.3844 464.738 32.0626 463.521 32.5178C462.169 32.9745 460.745 33.1812 459.319 33.1279C457.857 33.1513 456.403 32.9042 455.031 32.3992C453.815 31.944 452.694 31.2658 451.726 30.3995C450.8 29.5622 450.051 28.5481 449.523 27.4168C448.966 26.2571 448.627 25.0048 448.523 23.7224C448.523 23.4682 448.523 23.1462 448.523 22.7565C448.523 22.3667 448.523 21.9769 448.523 21.5702C448.523 21.1635 448.523 20.7737 448.523 20.367C448.523 19.9602 448.523 19.6383 448.523 19.3841C448.597 18.1007 448.926 16.8449 449.489 15.6897C450.031 14.6006 450.766 13.6187 451.659 12.7918C452.625 11.9203 453.746 11.2365 454.963 10.7751C456.352 10.2386 457.83 9.96842 459.319 9.9786ZM464.403 19.5705C464.349 18.8026 464.142 18.0533 463.792 17.3674C463.492 16.8159 463.068 16.3405 462.555 15.9778C462.088 15.6289 461.55 15.386 460.979 15.266C460.424 15.1357 459.855 15.0675 459.285 15.0626C458.714 15.0656 458.145 15.1339 457.59 15.266C457.014 15.3857 456.47 15.6285 455.997 15.9778C455.485 16.3369 455.067 16.8134 454.777 17.3674C454.414 18.0489 454.2 18.7999 454.15 19.5705C454.15 19.8077 454.15 20.0958 454.15 20.4348C454.15 20.7737 454.15 21.1465 454.15 21.5193C454.15 21.8922 454.15 22.2481 454.15 22.6039C454.135 22.8862 454.135 23.169 454.15 23.4513C454.198 24.2222 454.412 24.9736 454.777 25.6544C455.071 26.2099 455.489 26.6909 455.997 27.0609C456.478 27.3967 457.019 27.6382 457.59 27.7727C458.147 27.8917 458.715 27.9541 459.285 27.9591C459.854 27.9522 460.422 27.8898 460.979 27.7727C461.545 27.6378 462.08 27.3962 462.555 27.0609C463.065 26.6874 463.487 26.2074 463.792 25.6544C464.144 24.9693 464.352 24.2196 464.403 23.4513C464.424 23.1693 464.424 22.886 464.403 22.6039V20.5025C464.426 20.1923 464.426 19.8807 464.403 19.5705Z" fill="#455A64"/>
<path d="M474.757 11.5712C474.761 11.2653 474.884 10.9729 475.098 10.755C475.313 10.5371 475.604 10.4106 475.909 10.4019H479.18C479.486 10.4144 479.776 10.5416 479.993 10.7582C480.21 10.9749 480.337 11.2651 480.349 11.5712V22.4849C480.276 23.9368 480.655 25.3758 481.434 26.603C481.855 27.1419 482.405 27.5668 483.032 27.8391C483.66 28.1114 484.345 28.2224 485.027 28.1621C485.688 28.1996 486.349 28.0776 486.954 27.8062C487.559 27.5349 488.089 27.1222 488.501 26.603C489.358 25.407 489.783 23.9545 489.704 22.4849V11.5712C489.717 11.2651 489.844 10.9749 490.06 10.7582C490.277 10.5416 490.567 10.4144 490.873 10.4019H494.127C494.283 10.4012 494.436 10.4324 494.579 10.4937C494.722 10.5549 494.851 10.6448 494.958 10.7577C495.066 10.8633 495.152 10.9899 495.21 11.1297C495.269 11.2695 495.298 11.4197 495.297 11.5712V31.5853C495.299 31.7395 495.27 31.8926 495.212 32.0355C495.154 32.1784 495.068 32.3082 494.959 32.4173C494.85 32.5263 494.72 32.6123 494.577 32.6703C494.434 32.7282 494.281 32.7569 494.127 32.7546H490.873C490.722 32.7562 490.572 32.7269 490.432 32.6687C490.292 32.6104 490.166 32.5243 490.06 32.4157C489.947 32.309 489.857 32.1803 489.796 32.0374C489.735 31.8946 489.703 31.7407 489.704 31.5853V30.6024C488.975 31.2797 488.153 31.8502 487.264 32.2971C486.176 32.8593 484.963 33.1335 483.739 33.0936C482.251 33.1434 480.77 32.8657 479.4 32.2801C478.317 31.7926 477.373 31.0409 476.655 30.094C475.944 29.1416 475.442 28.0503 475.181 26.8911C474.891 25.6295 474.749 24.3385 474.757 23.0442V11.5712Z" fill="#455A64"/>
<path d="M522.191 31.5854C522.193 31.7382 522.165 31.8898 522.108 32.0316C522.051 32.1734 521.967 32.3024 521.859 32.4113C521.752 32.5201 521.624 32.6065 521.484 32.6654C521.343 32.7244 521.191 32.7548 521.039 32.7547H517.768C517.616 32.7563 517.466 32.727 517.326 32.6688C517.187 32.6105 517.06 32.5245 516.954 32.4158C516.841 32.3091 516.752 32.1804 516.69 32.0375C516.629 31.8947 516.598 31.7408 516.599 31.5854V20.6717C516.677 19.2022 516.253 17.7497 515.395 16.5536C514.947 16.021 514.378 15.6031 513.735 15.3349C513.092 15.0667 512.395 14.9558 511.701 15.0115C511.027 14.9787 510.354 15.1006 509.734 15.3679C509.114 15.6352 508.564 16.0408 508.125 16.5536C507.199 17.7203 506.729 19.1841 506.803 20.6717V31.5854C506.807 31.7397 506.779 31.8932 506.721 32.0361C506.662 32.179 506.575 32.3083 506.464 32.4158C506.358 32.5237 506.232 32.6092 506.092 32.6674C505.952 32.7256 505.802 32.7553 505.651 32.7547H502.38C502.229 32.7553 502.079 32.7256 501.939 32.6674C501.8 32.6092 501.673 32.5237 501.567 32.4158C501.456 32.3083 501.369 32.179 501.31 32.0361C501.252 31.8932 501.224 31.7397 501.228 31.5854V11.5713C501.222 11.4193 501.249 11.2678 501.308 11.1273C501.366 10.9869 501.455 10.8608 501.567 10.7578C501.67 10.6445 501.795 10.5542 501.935 10.4929C502.076 10.4315 502.227 10.4005 502.38 10.402H505.651C505.804 10.4005 505.956 10.4315 506.096 10.4929C506.236 10.5542 506.362 10.6445 506.464 10.7578C506.576 10.8608 506.665 10.9869 506.723 11.1273C506.782 11.2678 506.809 11.4193 506.803 11.5713V12.5542C507.571 11.7979 508.459 11.1738 509.43 10.707C510.545 10.1938 511.762 9.94444 512.989 9.9783C514.494 9.92873 515.991 10.2063 517.378 10.7917C518.483 11.2824 519.454 12.0323 520.208 12.9779C520.943 13.9223 521.463 15.0152 521.733 16.1808C522.043 17.4396 522.196 18.7315 522.191 20.0277V31.5854Z" fill="#455A64"/>
<path d="M536.494 9.97848C537.298 9.96847 538.1 10.0538 538.884 10.2327C539.52 10.3824 540.139 10.5983 540.731 10.8767C541.214 11.1055 541.669 11.3898 542.086 11.724C542.412 11.9711 542.713 12.2492 542.985 12.5544V3.40314C542.985 3.25037 543.015 3.09912 543.074 2.95819C543.133 2.81726 543.219 2.68947 543.328 2.58223C543.437 2.475 543.566 2.39047 543.708 2.33357C543.85 2.27666 544.001 2.24851 544.154 2.25076H547.442C547.594 2.24498 547.745 2.27231 547.886 2.33083C548.026 2.38935 548.152 2.47767 548.255 2.58969C548.369 2.69181 548.46 2.81731 548.522 2.95767C548.583 3.09803 548.614 3.24995 548.611 3.40314V31.5856C548.612 31.741 548.58 31.8949 548.519 32.0377C548.458 32.1806 548.368 32.3093 548.255 32.416C548.15 32.5246 548.023 32.6107 547.883 32.669C547.743 32.7272 547.593 32.7565 547.442 32.7549H544.188C544.034 32.7572 543.881 32.7285 543.738 32.6706C543.595 32.6126 543.465 32.5266 543.356 32.4175C543.247 32.3085 543.161 32.1787 543.103 32.0358C543.045 31.8929 543.016 31.7398 543.019 31.5856V30.6027C542.747 30.9079 542.446 31.186 542.12 31.4331C541.703 31.7673 541.248 32.0516 540.765 32.2804C540.173 32.5588 539.554 32.7746 538.917 32.9244C538.134 33.1033 537.332 33.1886 536.528 33.1786C535.188 33.2005 533.861 32.9165 532.647 32.3482C531.515 31.8148 530.505 31.0532 529.681 30.1112C528.854 29.159 528.2 28.0693 527.75 26.8914C527.273 25.6738 527.003 24.3849 526.953 23.0783C526.953 22.6547 526.953 22.1463 526.953 21.587C526.953 21.0278 526.953 20.5024 526.953 20.0788C527.003 18.7722 527.273 17.4833 527.75 16.2657C528.204 15.0896 528.858 14.0005 529.681 13.0458C530.505 12.1039 531.515 11.3423 532.647 10.8089C533.85 10.2456 535.166 9.96175 536.494 9.97848ZM532.495 20.3838C532.41 21.1837 532.41 21.9903 532.495 22.7902C532.514 24.2989 533.122 25.7404 534.189 26.8066C535.19 27.629 536.454 28.0623 537.748 28.0268C539.049 28.0623 540.316 27.6156 541.307 26.7727C541.812 26.3222 542.222 25.7754 542.513 25.1642C542.804 24.5531 542.97 23.89 543.002 23.2139C543.064 22.6512 543.092 22.0853 543.086 21.5192C543.091 20.9532 543.063 20.3873 543.002 19.8246C542.931 18.503 542.349 17.2608 541.377 16.3621C540.406 15.4634 539.122 14.9789 537.799 15.0117C536.504 14.9761 535.241 15.4094 534.24 16.2318C533.686 16.7718 533.246 17.4176 532.946 18.1308C532.646 18.844 532.493 19.6101 532.495 20.3838Z" fill="#455A64"/>
<path d="M302.459 75.0878C302.599 75.0863 302.738 75.1142 302.866 75.1697C302.995 75.2252 303.11 75.307 303.205 75.4098C303.304 75.5068 303.382 75.6229 303.434 75.7511C303.487 75.8794 303.513 76.017 303.51 76.1555V80.3244C303.513 80.4629 303.487 80.6005 303.434 80.7287C303.382 80.8569 303.304 80.9731 303.205 81.07C303.11 81.1729 302.995 81.2547 302.866 81.3102C302.738 81.3656 302.599 81.3935 302.459 81.392H283.818C283.678 81.3946 283.539 81.3672 283.41 81.3117C283.282 81.2561 283.166 81.1737 283.072 81.07C282.971 80.9739 282.89 80.8583 282.835 80.7302C282.78 80.602 282.751 80.464 282.75 80.3244V54.9042C282.751 54.7646 282.78 54.6266 282.835 54.4985C282.89 54.3703 282.971 54.2547 283.072 54.1586C283.166 54.0549 283.282 53.9725 283.41 53.917C283.539 53.8614 283.678 53.834 283.818 53.8366H302.171C302.452 53.8451 302.718 53.9603 302.917 54.1587C303.115 54.3571 303.23 54.6238 303.239 54.9042V59.0562C303.241 59.1986 303.213 59.3399 303.157 59.4711C303.102 59.6024 303.02 59.7207 302.917 59.8188C302.82 59.9178 302.704 59.9959 302.576 60.0483C302.447 60.1008 302.31 60.1265 302.171 60.1238H290.037V64.3775H301.307C301.447 64.3749 301.586 64.4023 301.715 64.4578C301.843 64.5134 301.958 64.5958 302.053 64.6995C302.154 64.7956 302.235 64.9112 302.29 65.0393C302.345 65.1675 302.374 65.3055 302.375 65.4451V69.614C302.374 69.7536 302.345 69.8916 302.29 70.0198C302.235 70.148 302.154 70.2636 302.053 70.3597C301.958 70.4634 301.843 70.5458 301.715 70.6013C301.586 70.6568 301.447 70.6842 301.307 70.6817H290.037V75.0878H302.459Z" fill="#8750F7"/>
<path d="M319.779 53.8194C321.345 53.7985 322.906 53.9866 324.422 54.3787C325.684 54.7142 326.869 55.2896 327.913 56.0734C328.872 56.8185 329.629 57.7913 330.116 58.9035C330.648 60.1625 330.908 61.5196 330.879 62.886C330.945 64.6066 330.522 66.3108 329.659 67.8005C328.845 69.1004 327.666 70.1318 326.269 70.7662L331.15 80.1378C331.225 80.2728 331.266 80.424 331.269 80.5784C331.269 80.8076 331.178 81.0274 331.016 81.1895C330.854 81.3516 330.634 81.4427 330.404 81.4427H325.049C324.848 81.4631 324.645 81.442 324.453 81.3808C324.261 81.3196 324.083 81.2195 323.931 81.0868C323.719 80.8745 323.537 80.6352 323.388 80.375L319.016 71.9016H315.271V80.375C315.274 80.5135 315.248 80.6511 315.195 80.7794C315.143 80.9076 315.065 81.0237 314.966 81.1207C314.871 81.2235 314.756 81.3053 314.627 81.3608C314.499 81.4163 314.36 81.4442 314.22 81.4427H309.136C308.996 81.4442 308.858 81.4163 308.729 81.3608C308.601 81.3053 308.485 81.2235 308.391 81.1207C308.292 81.0237 308.214 80.9076 308.161 80.7794C308.109 80.6511 308.083 80.5135 308.086 80.375V54.9549C308.083 54.8164 308.109 54.6788 308.161 54.5505C308.214 54.4223 308.292 54.3062 308.391 54.2092C308.485 54.1064 308.601 54.0246 308.729 53.9691C308.858 53.9136 308.996 53.8857 309.136 53.8872L319.779 53.8194ZM315.322 65.6822H319.779C320.733 65.7202 321.681 65.5038 322.524 65.0551C322.895 64.8087 323.191 64.4648 323.379 64.0612C323.568 63.6576 323.641 63.21 323.592 62.7673C323.642 62.327 323.569 61.8815 323.38 61.4805C323.192 61.0794 322.895 60.7388 322.524 60.4965C321.681 60.0478 320.733 59.8314 319.779 59.8694H315.271L315.322 65.6822Z" fill="#8750F7"/>
<path d="M347.148 53.8194C348.714 53.7985 350.275 53.9866 351.791 54.3787C353.053 54.7142 354.238 55.2896 355.282 56.0734C356.246 56.8138 357.004 57.7879 357.485 58.9035C358.017 60.1625 358.277 61.5196 358.248 62.886C358.314 64.6066 357.891 66.3108 357.028 67.8005C356.214 69.1004 355.035 70.1318 353.639 70.7662L358.519 80.1378C358.594 80.2728 358.635 80.424 358.638 80.5784C358.638 80.8076 358.547 81.0274 358.385 81.1895C358.223 81.3516 358.003 81.4427 357.774 81.4427H352.418C352.217 81.4631 352.015 81.442 351.822 81.3808C351.63 81.3196 351.452 81.2195 351.3 81.0868C351.088 80.8745 350.906 80.6352 350.758 80.375L346.385 71.9016H342.776V80.375C342.775 80.5146 342.746 80.6526 342.691 80.7808C342.636 80.9089 342.555 81.0246 342.454 81.1207C342.359 81.2235 342.243 81.3053 342.115 81.3608C341.987 81.4163 341.848 81.4442 341.708 81.4427H336.539C336.399 81.4442 336.261 81.4163 336.132 81.3608C336.004 81.3053 335.888 81.2235 335.794 81.1207C335.695 81.0237 335.617 80.9076 335.564 80.7794C335.512 80.6511 335.486 80.5135 335.489 80.375V54.9549C335.486 54.8164 335.512 54.6788 335.564 54.5505C335.617 54.4223 335.695 54.3062 335.794 54.2092C335.888 54.1064 336.004 54.0246 336.132 53.9691C336.261 53.9136 336.399 53.8857 336.539 53.8872L347.148 53.8194ZM342.708 65.6822H347.148C348.102 65.7202 349.05 65.5038 349.893 65.0551C350.264 64.8087 350.56 64.4648 350.749 64.0612C350.937 63.6576 351.01 63.21 350.961 62.7673C351.011 62.327 350.938 61.8815 350.749 61.4805C350.561 61.0794 350.264 60.7388 349.893 60.4965C349.05 60.0478 348.102 59.8314 347.148 59.8694H342.708V65.6822Z" fill="#8750F7"/>
<path d="M361.875 64.1062C361.948 62.676 362.275 61.2702 362.841 59.9542C363.392 58.6658 364.212 57.5102 365.247 56.5649C366.343 55.5594 367.627 54.7817 369.026 54.2771C372.35 53.1472 375.955 53.1472 379.279 54.2771C380.676 54.7857 381.96 55.5629 383.058 56.5649C384.088 57.5108 384.903 58.6666 385.448 59.9542C386.028 61.265 386.356 62.6737 386.414 64.1062C386.414 65.2247 386.498 66.411 386.498 67.6481C386.498 68.8852 386.498 70.0376 386.414 71.0374C386.354 72.4751 386.027 73.8891 385.448 75.2063C384.888 76.4859 384.075 77.6389 383.058 78.5957C381.953 79.602 380.656 80.3744 379.245 80.8665C375.917 81.974 372.32 81.974 368.992 80.8665C367.591 80.3741 366.306 79.6015 365.213 78.5957C364.191 77.6396 363.372 76.4867 362.807 75.2063C362.243 73.8839 361.916 72.4729 361.841 71.0374C361.841 69.9698 361.841 68.8174 361.841 67.6481C361.841 66.4788 361.824 65.2247 361.875 64.1062ZM379.16 70.8849C379.16 70.4104 379.16 69.885 379.245 69.3089C379.33 68.7327 379.245 68.1395 379.245 67.5295C379.245 66.9194 379.245 66.3432 379.245 65.8348C379.245 65.3264 379.245 64.7671 379.16 64.3096C379.117 63.6935 378.98 63.0877 378.754 62.5132C378.541 61.9724 378.217 61.4818 377.805 61.0727C377.373 60.6516 376.859 60.323 376.296 60.1068C375.613 59.857 374.889 59.7364 374.161 59.7509C373.439 59.7345 372.72 59.8552 372.043 60.1068C371.472 60.3187 370.953 60.6477 370.517 61.0727C370.11 61.4862 369.788 61.9756 369.568 62.5132C369.342 63.0877 369.205 63.6935 369.162 64.3096C369.162 64.7615 369.128 65.2699 369.06 65.8348C369.06 66.394 369.06 66.9872 369.06 67.5295C369.06 68.0718 369.06 68.7327 369.06 69.3089C369.06 69.885 369.06 70.4104 369.162 70.8849C369.226 72.0982 369.704 73.2528 370.517 74.1556C371 74.6148 371.574 74.9669 372.202 75.1889C372.83 75.4108 373.497 75.4976 374.161 75.4436C374.822 75.4995 375.488 75.4136 376.113 75.1914C376.739 74.9693 377.31 74.6162 377.788 74.1556C378.585 73.255 379.067 72.1184 379.16 70.9188V70.8849Z" fill="#8750F7"/>
<path d="M402.801 53.8198C404.367 53.8001 405.928 53.9881 407.444 54.379C408.702 54.713 409.882 55.2886 410.919 56.0737C411.882 56.8178 412.645 57.7905 413.139 58.9038C413.67 60.1628 413.93 61.5199 413.901 62.8863C413.968 64.6069 413.544 66.3111 412.681 67.8008C411.847 69.1155 410.636 70.1488 409.207 70.7665L414.088 80.1381C414.166 80.2724 414.213 80.4233 414.223 80.5787C414.222 80.6935 414.197 80.8067 414.15 80.9116C414.104 81.0164 414.036 81.1108 413.952 81.1888C413.873 81.2707 413.778 81.3355 413.673 81.3792C413.568 81.4229 413.456 81.4446 413.342 81.443H407.987C407.786 81.4634 407.583 81.4424 407.391 81.3811C407.198 81.3199 407.02 81.2199 406.868 81.0871C406.661 80.8753 406.484 80.6357 406.343 80.3753L401.971 71.902H398.31V80.3753C398.302 80.6558 398.186 80.9224 397.988 81.1209C397.79 81.3193 397.523 81.4345 397.242 81.443H392.158C391.878 81.4345 391.611 81.3193 391.413 81.1209C391.215 80.9224 391.099 80.6558 391.091 80.3753V54.9552C391.099 54.6747 391.215 54.4081 391.413 54.2097C391.611 54.0113 391.878 53.8961 392.158 53.8875L402.801 53.8198ZM398.344 65.6825H402.801C403.75 65.7208 404.692 65.5043 405.529 65.0555C405.906 64.814 406.208 64.4715 406.4 64.067C406.591 63.6625 406.666 63.2123 406.614 62.7676C406.664 62.3255 406.589 61.8781 406.398 61.4766C406.206 61.075 405.905 60.7355 405.529 60.4968C404.692 60.048 403.75 59.8315 402.801 59.8698H398.31L398.344 65.6825Z" fill="#8750F7"/>
<path d="M439.779 81.3921C439.636 81.3939 439.495 81.3662 439.364 81.3108C439.233 81.2554 439.114 81.1735 439.016 81.0702C438.917 80.9732 438.839 80.857 438.787 80.7288C438.734 80.6006 438.709 80.463 438.711 80.3245V76.3081H426.306C426.168 76.3108 426.03 76.2851 425.902 76.2326C425.774 76.1801 425.657 76.102 425.561 76.0031C425.457 75.905 425.375 75.7866 425.32 75.6554C425.264 75.5242 425.237 75.3829 425.239 75.2405V71.0716C425.218 70.4662 425.396 69.8708 425.747 69.3769L437.525 54.5315C437.702 54.3011 437.92 54.1057 438.169 53.9553C438.429 53.8577 438.705 53.8117 438.982 53.8198H444.931C445.071 53.8172 445.21 53.8446 445.338 53.9001C445.467 53.9557 445.582 54.038 445.676 54.1417C445.778 54.2379 445.858 54.3535 445.914 54.4816C445.969 54.6098 445.998 54.7478 445.998 54.8874V70.0039H449.388C449.669 70.0088 449.937 70.1245 450.133 70.3259C450.232 70.4229 450.31 70.539 450.363 70.6672C450.415 70.7955 450.441 70.933 450.438 71.0716V75.2405C450.441 75.5248 450.331 75.7987 450.133 76.0031C450.035 76.1005 449.919 76.1776 449.791 76.2299C449.663 76.2822 449.526 76.3088 449.388 76.3081H445.998V80.3245C445.998 80.4641 445.969 80.6021 445.914 80.7303C445.858 80.8584 445.778 80.974 445.676 81.0702C445.582 81.1739 445.467 81.2562 445.338 81.3118C445.21 81.3673 445.071 81.3947 444.931 81.3921H439.779ZM438.982 70.0039V62.7676L433.237 70.0039H438.982Z" fill="#8750F7"/>
<path d="M465.25 53.4635C466.984 53.4237 468.71 53.7171 470.334 54.3278C471.658 54.8467 472.859 55.6376 473.859 56.6495C474.785 57.6199 475.495 58.7749 475.943 60.0389C476.404 61.3556 476.678 62.7304 476.757 64.1231C476.757 65.2415 476.757 66.4278 476.757 67.6649C476.757 68.902 476.757 70.0544 476.757 71.0543C476.678 72.447 476.404 73.8217 475.943 75.1384C475.503 76.406 474.791 77.5625 473.859 78.5278C472.859 79.5397 471.658 80.3307 470.334 80.8495C467.043 82.0017 463.457 82.0017 460.166 80.8495C458.841 80.3307 457.641 79.5397 456.641 78.5278C455.709 77.5625 454.997 76.406 454.557 75.1384C454.096 73.8217 453.822 72.447 453.743 71.0543C453.743 69.9866 453.743 68.8342 453.743 67.6649C453.743 66.4956 453.743 65.2415 453.743 64.1231C453.822 62.7304 454.096 61.3556 454.557 60.0389C455.005 58.7749 455.715 57.6199 456.641 56.6495C457.641 55.6376 458.841 54.8467 460.166 54.3278C461.79 53.7171 463.516 53.4237 465.25 53.4635ZM469.487 70.9187C469.588 68.6817 469.588 66.4786 469.487 64.2925C469.443 63.6853 469.341 63.0837 469.182 62.4962C469.057 61.9746 468.826 61.4844 468.504 61.0557C468.163 60.6371 467.727 60.3059 467.233 60.0897C466.61 59.8329 465.94 59.7116 465.267 59.7338C464.594 59.7132 463.924 59.8344 463.301 60.0897C462.807 60.3059 462.371 60.6371 462.03 61.0557C461.709 61.4872 461.473 61.9761 461.335 62.4962C461.165 63.0808 461.069 63.6841 461.047 64.2925C460.928 66.4997 460.928 68.7116 461.047 70.9187C461.075 71.5298 461.16 72.1369 461.301 72.732C461.441 73.2544 461.683 73.744 462.013 74.1725C462.361 74.5871 462.802 74.9125 463.301 75.1215C463.924 75.3768 464.594 75.4981 465.267 75.4774C465.94 75.4996 466.61 75.3783 467.233 75.1215C467.732 74.9125 468.173 74.5871 468.521 74.1725C468.851 73.744 469.092 73.2544 469.232 72.732C469.374 72.1369 469.459 71.5298 469.487 70.9187Z" fill="#8750F7"/>
<path d="M494.551 81.3921C494.27 81.3836 494.004 81.2684 493.805 81.0699C493.607 80.8715 493.492 80.6049 493.483 80.3244V76.308H481.078C480.94 76.3107 480.802 76.285 480.674 76.2325C480.546 76.1801 480.429 76.102 480.332 76.003C480.13 75.8003 480.015 75.5268 480.01 75.2404V71.0715C479.987 70.4631 480.172 69.865 480.536 69.3768L492.297 54.5314C492.475 54.2961 492.7 54.0999 492.958 53.9553C493.211 53.8559 493.482 53.8097 493.754 53.8197H499.703C499.983 53.8282 500.25 53.9434 500.448 54.1418C500.647 54.3402 500.762 54.6069 500.77 54.8873V70.0039H504.16C504.44 70.0124 504.707 70.1276 504.905 70.326C505.104 70.5244 505.219 70.791 505.227 71.0715V75.2404C505.223 75.5268 505.108 75.8003 504.905 76.003C504.808 76.102 504.692 76.1801 504.564 76.2325C504.436 76.285 504.298 76.3107 504.16 76.308H500.77V80.3244C500.762 80.6049 500.647 80.8715 500.448 81.0699C500.25 81.2684 499.983 81.3836 499.703 81.3921H494.551ZM493.687 70.0039V62.7676L487.942 70.0039H493.687Z" fill="#8750F7"/>
</g>
<defs>
<clipPath id="clip0_2389_936">
<rect width="779" height="747" fill="white"/>
</clipPath>
</defs>
</svg>
